<svg width="28" height="28" viewBox="0 0 28 28" fill="none" xmlns="http://www.w3.org/2000/svg">
<path fill-rule="evenodd" clip-rule="evenodd" d="M14 28H7C5.14351 27.9999 3.36308 27.2624 2.05034 25.9497C0.737605 24.6369 8.12161e-05 22.8565 0 21L0 7C8.12161e-05 5.14351 0.737605 3.36308 2.05034 2.05034C3.36308 0.737605 5.14351 8.12161e-05 7 0L21 0C22.8565 0 24.637 0.737498 25.9497 2.05025C27.2625 3.36301 28 5.14348 28 7V21C28 22.8565 27.2625 24.637 25.9497 25.9497C24.637 27.2625 22.8565 28 21 28H18.375C18.375 27.4198 18.1445 26.8634 17.7343 26.4532C17.3241 26.043 16.7677 25.8125 16.1875 25.8125C15.6073 25.8125 15.0509 26.043 14.6407 26.4532C14.2305 26.8634 14 27.4198 14 28Z" fill="#3764B9"/>
<path fill-rule="evenodd" clip-rule="evenodd" d="M13.125 7.875H21C22.0094 7.87494 22.9803 7.48722 23.7121 6.79193C24.4439 6.09663 24.8807 5.14686 24.9324 4.13875C24.984 3.13064 24.6466 2.14119 23.9897 1.37474C23.3328 0.608287 22.4066 0.123367 21.4025 0.020125C21.2686 0.0126875 21.1361 0 21 0H7C5.14351 8.12161e-05 3.36308 0.737605 2.05034 2.05034C0.737605 3.36308 8.12161e-05 5.14351 0 7L0 21C8.12191e-05 17.5191 1.38292 14.1807 3.84431 11.7193C6.30571 9.25792 9.64406 7.87508 13.125 7.875Z" fill="#507DD2"/>
<path fill-rule="evenodd" clip-rule="evenodd" d="M20.9999 14C19.6154 14 18.262 14.4105 17.1109 15.1797C15.9597 15.9489 15.0625 17.0421 14.5327 18.3212C14.0029 19.6003 13.8643 21.0078 14.1344 22.3656C14.4045 23.7235 15.0712 24.9708 16.0501 25.9497C17.0291 26.9287 18.2764 27.5954 19.6342 27.8655C20.9921 28.1356 22.3996 27.997 23.6787 27.4672C24.9577 26.9373 26.051 26.0401 26.8202 24.889C27.5893 23.7378 27.9999 22.3845 27.9999 21V7C27.9999 8.85652 27.2624 10.637 25.9496 11.9497C24.6369 13.2625 22.8564 14 20.9999 14Z" fill="#1E4BA0"/>
<path fill-rule="evenodd" clip-rule="evenodd" d="M22.7499 7.875C22.7499 8.10706 22.6577 8.32962 22.4936 8.49372C22.3295 8.65781 22.1069 8.75 21.8749 8.75H19.2499C19.0178 8.75 18.7953 8.84219 18.6312 9.00628C18.4671 9.17038 18.3749 9.39294 18.3749 9.625V13.125H21.6824C21.8118 13.125 21.9397 13.1537 22.0567 13.2091C22.1737 13.2645 22.2769 13.3451 22.359 13.4452C22.4411 13.5453 22.4999 13.6624 22.5313 13.788C22.5627 13.9136 22.5658 14.0446 22.5404 14.1715C22.378 14.9839 22.1573 16.0873 22.0154 16.7965C21.9758 16.9949 21.8686 17.1734 21.7122 17.3016C21.5557 17.4299 21.3597 17.5 21.1574 17.5H18.3749V28H13.9999V17.5H11.3749C11.1428 17.5 10.9203 17.4078 10.7562 17.2437C10.5921 17.0796 10.4999 16.8571 10.4999 16.625V14C10.4999 13.7679 10.5921 13.5454 10.7562 13.3813C10.9203 13.2172 11.1428 13.125 11.3749 13.125H13.9999V9.625C13.9999 8.23261 14.553 6.89726 15.5376 5.91269C16.5221 4.92812 17.8575 4.375 19.2499 4.375H21.8749C22.1069 4.375 22.3295 4.46719 22.4936 4.63128C22.6577 4.79538 22.7499 5.01794 22.7499 5.25V7.875Z" fill="white"/>
</svg>
