<svg width="28" height="28" viewBox="0 0 28 28" fill="none" xmlns="http://www.w3.org/2000/svg">
<g clip-path="url(#clip0_27877_8102)">
<path fill-rule="evenodd" clip-rule="evenodd" d="M21 28H7C5.14351 27.9999 3.36308 27.2624 2.05034 25.9497C0.737605 24.6369 8.12161e-05 22.8565 0 21L0 7C8.12161e-05 5.14351 0.737605 3.36308 2.05034 2.05034C3.36308 0.737605 5.14351 8.12161e-05 7 0L21 0C22.8565 0 24.637 0.737498 25.9497 2.05025C27.2625 3.36301 28 5.14348 28 7V21C28 22.8565 27.2625 24.637 25.9497 25.9497C24.637 27.2625 22.8565 28 21 28Z" fill="#FF3A55"/>
<path fill-rule="evenodd" clip-rule="evenodd" d="M13.125 7.875H21C22.0094 7.87494 22.9803 7.48722 23.7121 6.79193C24.4439 6.09663 24.8807 5.14686 24.9324 4.13875C24.984 3.13064 24.6466 2.14119 23.9897 1.37474C23.3328 0.608287 22.4066 0.123367 21.4025 0.020125C21.2686 0.0126875 21.1361 0 21 0H7C5.14351 8.12161e-05 3.36308 0.737605 2.05034 2.05034C0.737605 3.36308 8.12161e-05 5.14351 0 7L0 21C8.12191e-05 17.5191 1.38292 14.1807 3.84431 11.7193C6.30571 9.25792 9.64406 7.87508 13.125 7.875Z" fill="#FF796C"/>
<path fill-rule="evenodd" clip-rule="evenodd" d="M21 14C19.6155 14 18.2622 14.4105 17.111 15.1797C15.9599 15.9489 15.0627 17.0421 14.5328 18.3212C14.003 19.6003 13.8644 21.0078 14.1345 22.3656C14.4046 23.7235 15.0713 24.9708 16.0503 25.9497C17.0292 26.9287 18.2765 27.5954 19.6344 27.8655C20.9922 28.1356 22.3997 27.997 23.6788 27.4672C24.9579 26.9373 26.0511 26.0401 26.8203 24.889C27.5895 23.7378 28 22.3845 28 21V7C28 8.85652 27.2625 10.637 25.9498 11.9497C24.637 13.2625 22.8565 14 21 14Z" fill="#E00047"/>
<path d="M19.4688 9.625C20.0728 9.625 20.5625 9.13531 20.5625 8.53125C20.5625 7.92719 20.0728 7.4375 19.4688 7.4375C18.8647 7.4375 18.375 7.92719 18.375 8.53125C18.375 9.13531 18.8647 9.625 19.4688 9.625Z" fill="white"/>
<path fill-rule="evenodd" clip-rule="evenodd" d="M14 10.5C14.6922 10.5 15.3689 10.7053 15.9445 11.0899C16.5201 11.4744 16.9687 12.0211 17.2336 12.6606C17.4985 13.3001 17.5678 14.0039 17.4327 14.6828C17.2977 15.3617 16.9644 15.9854 16.4749 16.4749C15.9854 16.9644 15.3617 17.2977 14.6828 17.4327C14.0039 17.5678 13.3001 17.4985 12.6606 17.2336C12.0211 16.9687 11.4744 16.5201 11.0899 15.9445C10.7053 15.3689 10.5 14.6922 10.5 14C10.5005 13.0719 10.8694 12.1819 11.5257 11.5257C12.1819 10.8694 13.0719 10.5005 14 10.5ZM14 8.75C15.0384 8.75 16.0534 9.05791 16.9167 9.63478C17.7801 10.2117 18.453 11.0316 18.8504 11.9909C19.2477 12.9502 19.3517 14.0058 19.1491 15.0242C18.9466 16.0426 18.4465 16.9781 17.7123 17.7123C16.9781 18.4465 16.0426 18.9466 15.0242 19.1491C14.0058 19.3517 12.9502 19.2477 11.9909 18.8504C11.0316 18.453 10.2117 17.7801 9.63478 16.9167C9.05791 16.0534 8.75 15.0384 8.75 14C8.75066 12.6078 9.304 11.2728 10.2884 10.2884C11.2728 9.304 12.6078 8.75066 14 8.75Z" fill="white"/>
<path fill-rule="evenodd" clip-rule="evenodd" d="M22.75 9.625C22.75 8.46468 22.2891 7.35188 21.4686 6.53141C20.6481 5.71094 19.5353 5.25 18.375 5.25H9.625C8.46468 5.25 7.35188 5.71094 6.53141 6.53141C5.71094 7.35188 5.25 8.46468 5.25 9.625V18.375C5.25 19.5353 5.71094 20.6481 6.53141 21.4686C7.35188 22.2891 8.46468 22.75 9.625 22.75H18.375C19.5353 22.75 20.6481 22.2891 21.4686 21.4686C22.2891 20.6481 22.75 19.5353 22.75 18.375V9.625ZM24.5 9.625C24.5 8.00055 23.8547 6.44263 22.706 5.29397C21.5574 4.14531 19.9995 3.5 18.375 3.5H9.625C8.00055 3.5 6.44263 4.14531 5.29397 5.29397C4.14531 6.44263 3.5 8.00055 3.5 9.625V18.375C3.5 19.9995 4.14531 21.5574 5.29397 22.706C6.44263 23.8547 8.00055 24.5 9.625 24.5H18.375C19.9995 24.5 21.5574 23.8547 22.706 22.706C23.8547 21.5574 24.5 19.9995 24.5 18.375V9.625Z" fill="white"/>
</g>
<defs>
<clipPath id="clip0_27877_8102">
<rect width="28" height="28" fill="white"/>
</clipPath>
</defs>
</svg>
