<svg width="28" height="28" viewBox="0 0 28 28" fill="none" xmlns="http://www.w3.org/2000/svg">
<g clip-path="url(#clip0_27877_8110)">
<path fill-rule="evenodd" clip-rule="evenodd" d="M21 28H7C5.14351 27.9999 3.36308 27.2624 2.05034 25.9497C0.737605 24.6369 8.12161e-05 22.8565 0 21L0 7C8.12161e-05 5.14351 0.737605 3.36308 2.05034 2.05034C3.36308 0.737605 5.14351 8.12161e-05 7 0L21 0C22.8565 0 24.637 0.737498 25.9497 2.05025C27.2625 3.36301 28 5.14348 28 7V21C28 22.8565 27.2625 24.637 25.9497 25.9497C24.637 27.2625 22.8565 28 21 28Z" fill="#2864B4"/>
<path fill-rule="evenodd" clip-rule="evenodd" d="M13.125 7.875H21C22.0094 7.87494 22.9803 7.48722 23.7121 6.79193C24.4439 6.09663 24.8807 5.14686 24.9324 4.13875C24.984 3.13064 24.6466 2.14119 23.9897 1.37474C23.3328 0.608287 22.4066 0.123367 21.4025 0.020125C21.2686 0.0126875 21.1361 0 21 0H7C5.14351 8.12161e-05 3.36308 0.737605 2.05034 2.05034C0.737605 3.36308 8.12161e-05 5.14351 0 7L0 21C8.12191e-05 17.5191 1.38292 14.1807 3.84431 11.7193C6.30571 9.25792 9.64406 7.87508 13.125 7.875Z" fill="#417DCD"/>
<path fill-rule="evenodd" clip-rule="evenodd" d="M21.0001 14C19.6157 14 18.2623 14.4105 17.1111 15.1797C15.96 15.9489 15.0628 17.0421 14.533 18.3212C14.0032 19.6003 13.8645 21.0078 14.1346 22.3656C14.4047 23.7235 15.0714 24.9708 16.0504 25.9497C17.0293 26.9287 18.2766 27.5954 19.6345 27.8655C20.9924 28.1356 22.3998 27.997 23.6789 27.4672C24.958 26.9373 26.0512 26.0401 26.8204 24.889C27.5896 23.7378 28.0001 22.3845 28.0001 21V7C28.0001 8.85652 27.2626 10.637 25.9499 11.9497C24.6371 13.2625 22.8566 14 21.0001 14Z" fill="#0F4B9B"/>
<path d="M7.87512 10.9375H6.12512C5.64187 10.9375 5.25012 11.3293 5.25012 11.8125V21.875C5.25012 22.3582 5.64187 22.75 6.12512 22.75H7.87512C8.35837 22.75 8.75012 22.3582 8.75012 21.875V11.8125C8.75012 11.3293 8.35837 10.9375 7.87512 10.9375Z" fill="white"/>
<path d="M7.00012 9.1875C8.20825 9.1875 9.18762 8.20812 9.18762 7C9.18762 5.79188 8.20825 4.8125 7.00012 4.8125C5.792 4.8125 4.81262 5.79188 4.81262 7C4.81262 8.20812 5.792 9.1875 7.00012 9.1875Z" fill="white"/>
<path fill-rule="evenodd" clip-rule="evenodd" d="M14.8751 12.53C15.2279 11.9133 15.7374 11.4007 16.3521 11.0442C16.9667 10.6877 17.6646 10.5 18.3751 10.5C20.6007 10.5 22.7501 11.8125 22.7501 15.3125V21.875C22.7502 21.9899 22.7275 22.1037 22.6836 22.2099C22.6396 22.3161 22.5752 22.4125 22.4939 22.4938C22.4127 22.5751 22.3162 22.6395 22.21 22.6835C22.1038 22.7274 21.99 22.75 21.8751 22.75H20.1251C20.0102 22.75 19.8964 22.7274 19.7902 22.6835C19.6841 22.6395 19.5876 22.5751 19.5063 22.4938C19.4251 22.4125 19.3606 22.3161 19.3167 22.2099C19.2727 22.1037 19.2501 21.9899 19.2501 21.875V15.75C19.2501 15.1698 19.0197 14.6134 18.6094 14.2032C18.1992 13.793 17.6428 13.5625 17.0626 13.5625C16.4825 13.5625 15.9261 13.793 15.5158 14.2032C15.1056 14.6134 14.8751 15.1698 14.8751 15.75V21.875C14.8752 21.9899 14.8525 22.1037 14.8086 22.2099C14.7646 22.3161 14.7002 22.4125 14.6189 22.4938C14.5377 22.5751 14.4412 22.6395 14.335 22.6835C14.2288 22.7274 14.115 22.75 14.0001 22.75H12.2501C12.1352 22.75 12.0214 22.7274 11.9152 22.6835C11.8091 22.6395 11.7126 22.5751 11.6313 22.4938C11.5501 22.4125 11.4856 22.3161 11.4417 22.2099C11.3977 22.1037 11.3751 21.9899 11.3751 21.875V11.8125C11.3751 11.6976 11.3977 11.5838 11.4417 11.4776C11.4856 11.3714 11.5501 11.275 11.6313 11.1937C11.7126 11.1124 11.8091 11.048 11.9152 11.004C12.0214 10.9601 12.1352 10.9375 12.2501 10.9375H14.0001C14.115 10.9375 14.2288 10.9601 14.335 11.004C14.4412 11.048 14.5377 11.1124 14.6189 11.1937C14.7002 11.275 14.7646 11.3714 14.8086 11.4776C14.8525 11.5838 14.8752 11.6976 14.8751 11.8125V12.53Z" fill="white"/>
</g>
<defs>
<clipPath id="clip0_27877_8110">
<rect width="28" height="28" fill="white"/>
</clipPath>
</defs>
</svg>
