<svg width="120" height="19" viewBox="0 0 120 19" fill="none" xmlns="http://www.w3.org/2000/svg">
<path d="M23.8173 8.40796L27.6794 4.52074H32.2057V10.4369L28.5023 14.1496H23.8173V8.40796ZM25.829 0.0136719L19.3242 6.53686V18.6554H30.3079L36.6975 12.3722V0.0149565H25.829V0.0136719Z" fill="white"/>
<path d="M6.50473 0.0142201L0 6.53227V18.6546H16.8908V8.58689H12.3709V14.1489H4.49304V8.41749L8.36031 4.51616H15.9144V0.0129395H6.50473V0.0142201Z" fill="white"/>
<path d="M38.7168 12.8718H41.9903C42.1963 15.1459 43.9495 15.9736 45.9855 15.9736C47.9703 15.9736 49.465 15.0689 49.465 13.3377C49.465 8.73693 39.0777 12.4586 39.0777 5.22188C39.0777 1.88778 41.9391 0 45.4698 0C49.1553 0 51.8107 1.83517 52.0679 5.16927H48.8201C48.6396 3.46372 47.1705 2.63596 45.4698 2.63596C43.6398 2.63596 42.1451 3.43676 42.1451 5.09098C42.1451 9.53645 52.5325 5.81478 52.5325 13.1811C52.5325 16.7744 49.5687 18.6096 45.8563 18.6096C41.9391 18.6096 38.974 16.8271 38.7168 12.8718Z" fill="white"/>
<path d="M54.3887 11.6311C54.3887 7.10736 57.3013 4.65234 61.0124 4.65234C64.698 4.65234 67.6106 7.10736 67.6106 11.6311C67.6106 16.1549 64.698 18.6099 61.0124 18.6099C57.3013 18.6099 54.3887 16.1549 54.3887 11.6311ZM64.5175 11.6311C64.5175 8.78724 63.0228 7.23697 61.0124 7.23697C58.9764 7.23697 57.4817 8.78724 57.4817 11.6311C57.4817 14.475 58.9764 16.0252 61.0124 16.0252C63.0228 16.0252 64.5175 14.475 64.5175 11.6311Z" fill="white"/>
<path d="M69.8809 13.0013V4.91113H72.8703V13.0013C72.8703 14.8621 74.0297 16.0261 75.8596 16.0261C77.664 16.0261 78.7978 14.8634 78.7978 13.0013V4.91113H81.7104V13.0013C81.7104 16.4393 79.3647 18.6107 75.7816 18.6107C72.201 18.6094 69.8809 16.438 69.8809 13.0013Z" fill="white"/>
<path d="M87.8725 4.91016H92.3579V7.41779H88.2334C87.9493 7.41779 87.7433 7.59874 87.7433 7.90931V18.6085H84.7539V7.77969C84.7539 5.81491 85.9146 4.91016 87.8725 4.91016Z" fill="white"/>
<path d="M93.1289 11.6311C93.1289 7.26264 95.8355 4.65234 99.5722 4.65234C102.381 4.65234 104.856 6.22956 105.372 9.33138H102.33C101.944 7.88378 100.835 7.23826 99.5722 7.23826C97.4581 7.23826 96.222 8.89248 96.222 11.6324C96.222 14.3466 97.4594 16.0265 99.5722 16.0265C100.912 16.0265 102.073 15.3284 102.434 13.5446H105.475C104.985 16.9826 102.434 18.6112 99.5735 18.6112C95.8355 18.6099 93.1289 15.9739 93.1289 11.6311Z" fill="white"/>
<path d="M107.074 11.6311C107.074 7.26264 109.677 4.65234 113.364 4.65234C116.714 4.65234 119.73 7.08169 119.446 12.2779H110.193C110.399 14.7599 111.688 16.0265 113.518 16.0265C114.832 16.0265 115.966 15.4323 116.301 14.4236H119.368C118.723 17.1122 116.352 18.6112 113.518 18.6112C109.781 18.6099 107.074 15.9739 107.074 11.6311ZM116.251 9.84727C115.916 8.19306 114.833 7.23697 113.338 7.23697C111.92 7.23697 110.812 8.14172 110.375 9.84727H116.251Z" fill="white"/>
</svg>
