<svg width="120" height="20" viewBox="0 0 120 20" fill="none" xmlns="http://www.w3.org/2000/svg">
<g id="Group">
<path id="Vector" d="M23.8173 9.08004L27.6794 5.19283H32.2057V11.109L28.5023 14.8217H23.8173V9.08004ZM25.829 0.68576L19.3242 7.20895V19.3275H30.3079L36.6975 13.0443V0.687045H25.829V0.68576Z" fill="#00003D"/>
<path id="Vector_2" d="M6.50473 0.686217L0 7.20427V19.3266H16.8908V9.25889H12.3709V14.8209H4.49304V9.08949L8.36031 5.18815H15.9144V0.684937H6.50473V0.686217Z" fill="#00003D"/>
<g id="Group_2">
<path id="Vector_3" d="M38.7168 13.5439H41.9903C42.1963 15.818 43.9495 16.6457 45.9855 16.6457C47.9703 16.6457 49.465 15.741 49.465 14.0098C49.465 9.40902 39.0777 13.1307 39.0777 5.89397C39.0777 2.55987 41.9391 0.672089 45.4698 0.672089C49.1553 0.672089 51.8107 2.50726 52.0679 5.84135H48.8201C48.6396 4.13581 47.1705 3.30805 45.4698 3.30805C43.6398 3.30805 42.1451 4.10885 42.1451 5.76307C42.1451 10.2085 52.5325 6.48687 52.5325 13.8532C52.5325 17.4465 49.5687 19.2817 45.8563 19.2817C41.9391 19.2817 38.974 17.4992 38.7168 13.5439Z" fill="#00003D"/>
<path id="Vector_4" d="M54.3887 12.3032C54.3887 7.77945 57.3013 5.32443 61.0124 5.32443C64.698 5.32443 67.6106 7.77945 67.6106 12.3032C67.6106 16.8269 64.698 19.282 61.0124 19.282C57.3013 19.282 54.3887 16.8269 54.3887 12.3032ZM64.5175 12.3032C64.5175 9.45933 63.0228 7.90906 61.0124 7.90906C58.9764 7.90906 57.4817 9.45933 57.4817 12.3032C57.4817 15.1471 58.9764 16.6973 61.0124 16.6973C63.0228 16.6973 64.5175 15.1471 64.5175 12.3032Z" fill="#00003D"/>
<path id="Vector_5" d="M69.8809 13.6734V5.58322H72.8703V13.6734C72.8703 15.5342 74.0297 16.6982 75.8596 16.6982C77.664 16.6982 78.7978 15.5355 78.7978 13.6734V5.58322H81.7104V13.6734C81.7104 17.1114 79.3647 19.2828 75.7816 19.2828C72.201 19.2815 69.8809 17.1101 69.8809 13.6734Z" fill="#00003D"/>
<path id="Vector_6" d="M87.8725 5.58224H92.3579V8.08988H88.2334C87.9493 8.08988 87.7433 8.27083 87.7433 8.5814V19.2805H84.7539V8.45178C84.7539 6.487 85.9146 5.58224 87.8725 5.58224Z" fill="#00003D"/>
<path id="Vector_7" d="M93.1289 12.3032C93.1289 7.93473 95.8355 5.32443 99.5722 5.32443C102.381 5.32443 104.856 6.90165 105.372 10.0035H102.33C101.944 8.55586 100.835 7.91035 99.5722 7.91035C97.4581 7.91035 96.222 9.56456 96.222 12.3045C96.222 15.0187 97.4594 16.6986 99.5722 16.6986C100.912 16.6986 102.073 16.0005 102.434 14.2166H105.475C104.985 17.6547 102.434 19.2832 99.5735 19.2832C95.8355 19.282 93.1289 16.646 93.1289 12.3032Z" fill="#00003D"/>
<path id="Vector_8" d="M107.074 12.3032C107.074 7.93473 109.677 5.32443 113.364 5.32443C116.714 5.32443 119.73 7.75378 119.446 12.95H110.193C110.399 15.432 111.688 16.6986 113.518 16.6986C114.832 16.6986 115.966 16.1044 116.301 15.0957H119.368C118.723 17.7843 116.352 19.2832 113.518 19.2832C109.781 19.282 107.074 16.646 107.074 12.3032ZM116.251 10.5194C115.916 8.86515 114.833 7.90906 113.338 7.90906C111.92 7.90906 110.812 8.81381 110.375 10.5194H116.251Z" fill="#00003D"/>
</g>
</g>
</svg>
