<svg width="61" height="29" viewBox="0 0 61 29" fill="none" xmlns="http://www.w3.org/2000/svg">
<path fill-rule="evenodd" clip-rule="evenodd" d="M18.4794 0.150746L17.9913 0.315297L17.9649 0.721999C17.9111 1.55037 17.6241 2.17949 15.0522 7.10721C12.1146 12.7359 6.55857 23.3046 5.92643 24.4664C5.21771 25.7689 4.47426 26.4844 3.49155 26.8097C3.05662 26.9537 2.51026 27.0154 1.4286 27.0428C0.53406 27.0655 0.38602 27.0784 0.279302 27.1433C0.013116 27.3052 -0.0793679 27.6455 0.0743652 27.8976C0.234768 28.1607 0.273974 28.1694 1.20792 28.1506C3.09819 28.1125 9.96688 28.1387 11.0048 28.1879C12.0402 28.237 12.0755 28.2362 12.2288 28.1579C12.5322 28.0032 12.6406 27.6747 12.4815 27.3917C12.321 27.106 12.3026 27.1017 10.7819 26.9937C10.0273 26.9401 9.33674 26.8757 9.24727 26.8505C8.95839 26.7693 8.75333 26.6233 8.66146 26.4336C8.48897 26.0773 8.5745 25.6671 9.083 24.4123C9.75463 22.755 11.041 19.9229 12.1374 17.6879C12.32 17.3158 12.5847 17.0518 12.8744 16.9531C13.0473 16.8942 15.2184 16.8884 37.0322 16.8884H61V16.014V15.1396L37.5435 15.1393C22.0307 15.1392 14.0374 15.1253 13.9406 15.0984C13.7506 15.0457 13.6578 14.9392 13.6335 14.7462C13.6157 14.6058 13.7474 14.3227 14.973 11.8656C16.3469 9.11127 16.922 7.98613 18.2803 5.39557L19.0284 3.96861V1.99184C19.0284 0.904608 19.0147 0.00856343 18.9979 0.00063276C18.9811 -0.00729791 18.7478 0.0602552 18.4794 0.150746ZM30.6372 7.07671C30.6238 7.1382 30.5526 7.39902 30.479 7.65625C30.4055 7.91349 30.3532 8.13771 30.3628 8.15446C30.3724 8.17122 30.4312 8.18497 30.4936 8.18497C30.5868 8.18497 30.6203 8.15564 30.6811 8.02086C30.7913 7.77656 31.0182 7.59135 31.2762 7.53534C31.3976 7.50895 31.7095 7.49378 31.9819 7.50098L32.4699 7.51391V9.59716V11.6804L32.3812 11.7691C32.3186 11.8317 32.2048 11.8709 31.9948 11.9024C31.7391 11.9406 31.6972 11.9584 31.6972 12.0283C31.6972 12.1076 31.7279 12.1099 32.9349 12.1204C34.1953 12.1314 34.2653 12.1237 34.2106 11.9812C34.1991 11.9511 34.1401 11.9266 34.0794 11.9266C33.8488 11.9266 33.5636 11.8106 33.5058 11.6932C33.4623 11.6049 33.4473 11.1808 33.4353 9.7101C33.427 8.68114 33.4359 7.76606 33.4552 7.67659L33.4902 7.51391L34.0287 7.50256C34.8512 7.4852 35.0457 7.56804 35.1616 7.98524C35.2232 8.20644 35.2377 8.22564 35.3438 8.22564C35.4557 8.22564 35.4592 8.21921 35.4604 8.01212C35.4617 7.7997 35.5179 7.2901 35.5636 7.07671C35.5837 6.98349 35.5739 6.96486 35.5049 6.96486C35.4594 6.96486 35.3764 7.01062 35.3205 7.06654L35.2188 7.16821H33.1003H30.9818L30.8801 7.06654C30.7479 6.93436 30.6676 6.93774 30.6372 7.07671ZM59.1088 6.99032C58.6725 7.07626 58.5542 7.10969 58.3856 7.19481C58.1206 7.32854 57.8814 7.57797 57.7538 7.85359C57.6018 8.18175 57.6049 8.61021 57.7616 8.93045C57.9295 9.27358 58.3287 9.61916 58.934 9.94517C59.7123 10.3644 59.9238 10.59 59.9715 11.0516C60.0099 11.424 59.8495 11.7243 59.5206 11.8955C59.2825 12.0194 58.8169 12.0204 58.549 11.8975C58.2795 11.7739 57.9519 11.4313 57.7483 11.0604C57.611 10.8103 57.5575 10.7472 57.4827 10.7472C57.3549 10.7472 57.3415 10.8051 57.3832 11.1767C57.4256 11.5552 57.5267 11.8999 57.6192 11.9813C57.6556 12.0133 57.8226 12.09 57.9904 12.1517C58.3919 12.2993 59.1252 12.338 59.5835 12.2358C60.1391 12.1119 60.594 11.7591 60.7574 11.3256C60.8821 10.9946 60.8581 10.4512 60.7056 10.1549C60.5268 9.80758 60.1523 9.49873 59.5081 9.16768C58.9048 8.85761 58.6001 8.61664 58.4958 8.36713C58.3254 7.95921 58.5722 7.45099 58.9983 7.33268C59.1942 7.27827 59.5548 7.279 59.7537 7.33419C59.9835 7.39804 60.2607 7.6726 60.3969 7.97145C60.4918 8.17972 60.5303 8.22564 60.6097 8.22564C60.7419 8.22564 60.7543 8.17037 60.7107 7.77465C60.6626 7.33858 60.6075 7.17159 60.4977 7.12986C60.2149 7.02233 59.3749 6.93794 59.1088 6.99032ZM20.1677 7.21047C20.0897 7.27766 19.9693 7.3531 19.9 7.37811C19.7957 7.41585 19.7668 7.45563 19.7311 7.61111C19.6889 7.794 18.3906 10.8826 18.1095 11.4688C17.9541 11.7928 17.8693 11.8596 17.5536 11.907C17.3852 11.9322 17.361 11.9482 17.361 12.0337V12.1316L18.2455 12.1206C19.0993 12.11 19.1301 12.1068 19.1301 12.0283C19.1301 11.962 19.0879 11.9386 18.9016 11.9018C18.6245 11.8471 18.5811 11.8226 18.5811 11.7213C18.5811 11.6433 18.9782 10.551 19.0665 10.3859C19.1109 10.303 19.1405 10.2998 19.8586 10.2998C20.4061 10.2998 20.6157 10.3134 20.6461 10.3507C20.685 10.3982 21.103 11.4682 21.1633 11.6744C21.2029 11.8096 21.1224 11.8805 20.895 11.9107C20.7201 11.9339 20.6959 11.9488 20.6959 12.0335V12.13H21.7765H22.8571L22.8441 12.0401C22.8336 11.9677 22.7859 11.9393 22.5977 11.8935C22.4287 11.8524 22.333 11.8011 22.2509 11.7076C22.1483 11.5908 21.2885 9.38705 20.6464 7.59525C20.448 7.04144 20.4045 7.00655 20.1677 7.21047ZM24.7019 7.19453C24.2874 7.21596 24.2265 7.23552 24.2417 7.34248C24.2513 7.40963 24.2856 7.43521 24.3766 7.44302C24.4437 7.44876 24.5666 7.47222 24.6498 7.49512C24.7757 7.52977 24.8086 7.56214 24.8456 7.68802C24.876 7.79108 24.8861 8.45254 24.8774 9.76447L24.8646 11.6897L24.752 11.7865C24.6825 11.8463 24.5616 11.8937 24.4359 11.9103C24.2158 11.9396 24.1797 11.9653 24.2183 12.0659C24.2407 12.1241 24.3683 12.1301 25.3877 12.1204C26.4855 12.1101 26.5321 12.1065 26.5321 12.0315C26.5321 11.9689 26.4854 11.9441 26.2965 11.9064C26.167 11.8805 26.0333 11.8317 25.9995 11.7979C25.9657 11.764 25.9211 11.619 25.9003 11.4756C25.8582 11.184 25.8474 10.0979 25.8857 9.99812C25.9235 9.89958 26.3477 9.90934 26.4778 10.0117C26.5323 10.0546 26.7407 10.3494 26.9408 10.667C27.5141 11.5762 27.9283 11.9737 28.4423 12.1076C28.6885 12.1717 29.2046 12.1913 29.4349 12.1452C29.6152 12.1091 29.5923 12.0191 29.3891 11.9655C28.9439 11.8482 28.606 11.5032 27.9169 10.4625C27.6873 10.1158 27.487 9.80986 27.4718 9.78265C27.4537 9.75036 27.5297 9.68992 27.6908 9.60858C28.0215 9.44167 28.2357 9.24023 28.3662 8.97356C28.4623 8.7772 28.4722 8.71783 28.4555 8.43834C28.418 7.81092 28.1085 7.49239 27.332 7.28209C27.0608 7.20864 26.8874 7.19644 26.0034 7.18871C25.4441 7.18379 24.8585 7.18643 24.7019 7.19453ZM37.1266 7.26851C37.1266 7.35839 37.1481 7.3716 37.3345 7.39633C37.4606 7.41305 37.5846 7.46023 37.6497 7.51623L37.757 7.60855V9.64909V11.6896L37.6444 11.7865C37.575 11.8462 37.4541 11.8937 37.3292 11.9102C37.1508 11.9339 37.1266 11.9486 37.1266 12.0335V12.13H38.2857H39.4448V12.0339C39.4448 11.9487 39.4214 11.9352 39.2364 11.9132C38.9609 11.8806 38.8461 11.8002 38.8062 11.6117C38.7505 11.349 38.7666 7.73471 38.8241 7.60493C38.8811 7.47617 38.9786 7.42761 39.2517 7.39186C39.4224 7.36953 39.4448 7.35505 39.4448 7.26741V7.16821H38.2857H37.1266V7.26851ZM41.3302 7.22975C41.2922 7.32878 41.385 7.40032 41.5801 7.42228C42.0072 7.47043 42.108 7.66475 42.0695 8.36607C41.9378 10.7647 41.8817 11.442 41.797 11.654C41.7442 11.7863 41.5968 11.8726 41.3585 11.9106C41.2163 11.9334 41.1914 11.9513 41.2017 12.0237C41.2137 12.1078 41.2327 12.1099 42.1189 12.1206L43.0238 12.1315V12.0336C43.0238 11.9523 42.9979 11.9311 42.8713 11.9088C42.5637 11.8545 42.4642 11.8044 42.4114 11.677C42.3714 11.5804 42.366 11.209 42.3868 10.0011C42.4016 9.14763 42.4247 8.40934 42.4381 8.36054C42.4566 8.29331 42.6628 8.67374 43.2868 9.92634C43.7401 10.8363 44.1638 11.7135 44.2283 11.8757C44.3406 12.1579 44.4482 12.2682 44.53 12.1848C44.5486 12.1658 44.7315 11.8117 44.9364 11.3979C45.2709 10.7225 46.1895 8.97466 46.4862 8.44932L46.601 8.24597L46.6019 9.98173C46.6029 11.8794 46.6106 11.8173 46.3661 11.8676C46.0573 11.9312 46.0131 11.9515 46.0131 12.0298C46.0131 12.1069 46.0509 12.11 47.1213 12.1205L48.2296 12.1313V12.0304C48.2296 11.9396 48.2085 11.9266 48.0217 11.9018C47.7119 11.8607 47.6222 11.7632 47.5764 11.418C47.5557 11.2615 47.5265 10.3803 47.5116 9.45961C47.4816 7.59842 47.4847 7.56942 47.7269 7.46824C47.8006 7.43745 47.9221 7.41223 47.9968 7.41223C48.1667 7.41223 48.2927 7.32618 48.2575 7.23422C48.2342 7.17366 48.1471 7.16764 47.4366 7.17753L46.6418 7.18855L46.467 7.61558C46.3709 7.85045 46.2091 8.18903 46.1075 8.36798C46.0059 8.54693 45.6988 9.11229 45.425 9.62428C44.7906 10.8105 44.7952 10.8032 44.7419 10.7381C44.5456 10.4981 43.1588 7.7426 43.0987 7.47324C43.0738 7.3614 43.0473 7.24703 43.0399 7.21905C43.0296 7.18046 42.8248 7.16821 42.1901 7.16821C41.4811 7.16821 41.3502 7.17757 41.3302 7.22975ZM50.0752 7.22727C50.0383 7.32325 50.0912 7.36522 50.2858 7.39438C50.5654 7.43631 50.6287 7.50944 50.6712 7.83984C50.6913 7.99609 50.7087 8.69131 50.7097 9.38474C50.7112 10.3495 50.7258 10.7054 50.7718 10.9005C50.9869 11.8129 51.6283 12.2189 52.866 12.2261C53.4251 12.2294 53.7354 12.1685 54.1268 11.9788C54.3981 11.8473 54.7297 11.5244 54.8489 11.2759C55.0486 10.8595 55.0697 10.6846 55.1 9.20172C55.1333 7.57154 55.1411 7.53099 55.4352 7.45071C55.532 7.42427 55.657 7.38958 55.7129 7.37356C55.7758 7.35554 55.8146 7.31479 55.8146 7.26651C55.8146 7.19221 55.7699 7.18802 54.869 7.17765L53.9234 7.16671V7.26098C53.9234 7.34346 53.9538 7.36156 54.1654 7.40528C54.6217 7.49951 54.6555 7.62848 54.6555 9.27651C54.6555 10.2347 54.6424 10.5364 54.5927 10.7285C54.4162 11.4105 54.0926 11.7334 53.4735 11.8458C52.8795 11.9535 52.3267 11.7652 52.0425 11.3584C51.7361 10.9198 51.7129 10.7794 51.6957 9.26272C51.6873 8.52456 51.6923 7.84151 51.7068 7.74483C51.7421 7.50858 51.833 7.42871 52.1048 7.39475C52.3216 7.36766 52.413 7.29848 52.3553 7.20522C52.3425 7.18444 51.8423 7.16821 51.2152 7.16821C50.2759 7.16821 50.0942 7.17761 50.0752 7.22727ZM26.7765 7.55214C27.0336 7.65955 27.19 7.80429 27.3066 8.0427C27.3978 8.22905 27.4162 8.32072 27.4151 8.58227C27.4134 8.97356 27.3292 9.19777 27.1153 9.38087C26.913 9.55396 26.6574 9.62758 26.2561 9.62823C26.0191 9.62863 25.9295 9.61342 25.8997 9.56775C25.8758 9.53111 25.8642 9.11997 25.8707 8.53749C25.8833 7.38738 25.8639 7.43257 26.3313 7.46576C26.4893 7.47698 26.6897 7.51586 26.7765 7.55214ZM20.2235 9.0839C20.3715 9.47763 20.4926 9.82755 20.4926 9.86147C20.4926 9.9424 20.2957 9.97344 19.7784 9.974C19.1686 9.97466 19.1803 10.0138 19.5314 9.14071C19.6933 8.73808 19.8398 8.37205 19.8569 8.32731C19.8983 8.21893 19.8993 8.221 20.2235 9.0839Z" fill="#111827"/>
</svg>
