<svg xmlns="http://www.w3.org/2000/svg" width="122" height="52" viewBox="0 0 122 52" fill="none">
  <path d="M79.8893 17.4357V0.484326C79.8893 0.0842305 79.9937 0 80.3695 0C83.1462 0.0210576 85.923 0.0210576 88.6998 0.0210576C89.3052 0.0210576 89.8898 0.105288 90.4744 0.252692C91.8523 0.568556 92.6666 1.45298 92.9798 2.82172C93.2094 3.83249 93.3138 4.88537 93.3138 5.93825C93.3347 8.17036 93.4182 10.4235 93.2512 12.6556C93.2303 12.9715 93.1885 13.3084 93.1259 13.6243C92.8127 15.351 91.9985 16.1091 90.2447 16.2986C90.1195 16.3197 89.9107 16.2144 89.8898 16.425C89.8689 16.6987 90.1195 16.5934 90.2447 16.6145C90.537 16.6776 90.8502 16.6987 91.1425 16.7829C92.3743 17.1409 93.1677 18.0885 93.2303 19.4783C93.3973 23.0371 93.3973 26.6169 93.2094 30.1756C93.1677 30.6599 93.105 31.1442 92.9798 31.6075C92.5413 33.5238 91.6018 34.3871 89.7019 34.724C88.9503 34.8504 88.1987 34.9136 87.4262 34.9136H80.3695C79.9728 34.9136 79.8684 34.8293 79.8684 34.4082C79.8893 28.7437 79.9102 23.1002 79.8893 17.4357ZM84.2737 24.5111V30.3019C84.2737 30.4704 84.211 30.6599 84.5033 30.6599C85.589 30.6178 86.6537 30.7442 87.7394 30.5757C88.3657 30.4915 88.6371 30.2177 88.7415 29.607C88.7833 29.3333 88.825 29.0385 88.8459 28.7647C88.9921 26.4695 88.9712 24.1742 88.9086 21.8789C88.8877 21.0576 88.8668 20.2364 88.5954 19.4362C88.4701 18.9308 88.0317 18.5518 87.5097 18.4886C86.5702 18.3623 85.6098 18.4675 84.6703 18.4254C84.3154 18.4044 84.2737 18.5307 84.2737 18.8466C84.2737 20.7418 84.2737 22.6159 84.2737 24.5111ZM84.2737 9.41276V14.2771C84.2737 14.4245 84.1693 14.6561 84.4824 14.6561C85.4219 14.6351 86.3823 14.7193 87.3218 14.5719C88.1152 14.4455 88.4075 14.1718 88.5954 13.3927C88.825 12.3608 88.825 11.329 88.8459 10.2761C88.9086 8.57046 88.825 6.86479 88.5954 5.15912C88.491 4.44316 88.1987 4.19047 87.468 4.16941C86.5285 4.14835 85.589 4.14835 84.6703 4.1273C84.3363 4.10624 84.2528 4.21153 84.2528 4.54845C84.2945 6.16989 84.2737 7.79133 84.2737 9.41276Z" fill="#1D2933"/>
  <path d="M7.54719 0.0211792H10.0108C10.2404 0.0211792 10.324 0.0843521 10.3657 0.337044C11.2008 5.91732 12.0568 11.4765 12.9128 17.0568C13.6853 22.1106 14.4578 27.1645 15.2511 32.1972C15.3764 32.9764 15.4808 33.7766 15.6061 34.5557C15.6478 34.8505 15.5852 34.9347 15.272 34.9347C14.0402 34.9137 12.8084 34.9137 11.5975 34.9347C11.2008 34.9347 11.1799 34.7452 11.1382 34.4715C10.8877 32.5973 10.6162 30.7022 10.3657 28.828C10.324 28.5753 10.2404 28.4911 9.98991 28.4911C8.48669 28.5122 6.98348 28.5122 5.48027 28.4911C5.1671 28.4911 5.08359 28.5964 5.06271 28.8912C4.85393 30.7653 4.6034 32.6395 4.39462 34.5136C4.35286 34.8294 4.29023 34.9769 3.93531 34.9558C2.72439 34.9347 1.51346 34.9347 0.302544 34.9558C0.0520092 34.9558 -0.0315026 34.9137 0.0102533 34.6189C0.490446 31.3128 0.928882 28.0068 1.3882 24.7007C1.80576 21.6263 2.24419 18.5519 2.66175 15.4775C3.07931 12.4662 3.49687 9.47606 3.91443 6.46482C4.18584 4.44328 4.47813 2.44281 4.74954 0.421274C4.7913 0.147525 4.87481 0.0632945 5.1671 0.0632945C5.93959 0.0422368 6.75383 0.0211792 7.54719 0.0211792ZM7.65158 24.2585H9.44708C9.67674 24.2585 9.73937 24.1953 9.69762 23.9427C9.30093 21.1841 8.92513 18.4256 8.50757 15.6881C8.09001 12.7821 7.67246 9.89721 7.71421 6.94914C7.71421 6.80174 7.83948 6.5701 7.52631 6.5701C7.21314 6.5701 7.27577 6.80174 7.29665 6.9702C7.33841 10.7185 6.81646 14.4035 6.33627 18.0886C6.08573 20.0259 5.85608 21.9843 5.60554 23.9216C5.56378 24.1953 5.6473 24.2796 5.91871 24.2796C6.50329 24.2375 7.08787 24.2585 7.65158 24.2585Z" fill="#1D2933"/>
  <path d="M103.189 32.8081C102.834 33.3135 102.437 33.7978 102.02 34.2611C100.391 35.7983 97.2804 35.4824 96.2365 33.6504C95.8398 32.9134 95.6519 32.0921 95.6937 31.2709C95.6937 29.3336 95.7355 27.4174 95.6937 25.48C95.6519 23.5427 96.4453 22.174 98.032 21.1843C99.2847 20.4052 100.537 19.605 101.79 18.8258C101.894 18.7627 101.978 18.6995 102.082 18.6363C103.084 18.0467 103.606 17.2465 103.46 16.0041C103.356 15.0565 103.439 14.0668 103.439 13.0982C103.419 11.561 102.228 10.7818 100.83 11.4135C100.224 11.6873 100.015 12.2348 100.015 12.8665V16.5727C100.015 16.8254 99.9946 16.9728 99.6605 16.9517C98.554 16.9306 97.4474 16.9517 96.32 16.9517C96.1739 16.9517 95.9651 17.0359 95.9651 16.7411C96.0069 15.2039 95.819 13.6457 96.0904 12.1085C96.4871 9.81317 97.6771 8.63394 99.9319 8.17067C101.289 7.89692 102.688 7.93904 104.003 8.29702C105.882 8.82346 107.051 10.2343 107.239 12.1927C107.302 12.7402 107.323 13.2877 107.323 13.8352V30.9971C107.323 32.2606 107.406 33.503 107.907 34.6822C108.012 34.8928 107.949 34.956 107.719 34.956H104.087C103.857 34.956 103.794 34.8507 103.732 34.6612C103.523 34.0294 103.335 33.4188 103.189 32.8081ZM103.419 21.7528C102.563 22.4267 101.748 22.9742 100.913 23.5427C100.036 24.1113 99.5144 25.101 99.577 26.1539C99.5979 27.1647 99.577 28.1544 99.577 29.1651C99.5561 29.6916 99.5979 30.218 99.7023 30.7445C99.8484 31.3551 100.099 31.8816 100.746 32.0079C101.414 32.1974 102.124 31.9447 102.563 31.3972C102.98 30.8497 103.231 30.197 103.314 29.5021C103.502 28.2386 103.398 26.9751 103.419 25.7117C103.439 24.4482 103.419 23.1427 103.419 21.7528Z" fill="#1D2933"/>
  <path d="M41.3277 34.8924H37.34C37.1312 34.8924 37.1103 34.7661 37.0477 34.6397C36.7971 34.0501 36.6092 33.4184 36.4631 32.7867C36.0038 33.3973 35.6071 34.008 35.0225 34.4502C33.5193 35.6084 30.9096 35.3978 29.7822 34.0291C29.1558 33.2499 28.9679 32.3234 28.947 31.3758C28.9262 29.1437 28.8635 26.8905 28.9888 24.6584C29.0514 23.416 29.6986 22.2789 30.7217 21.584C32.037 20.6364 33.4567 19.8362 34.8137 18.9518C35.3983 18.5938 35.9411 18.1516 36.4213 17.6673C36.6092 17.4778 36.7136 17.2251 36.6928 16.9513C36.6719 15.6668 36.6719 14.3823 36.6928 13.0978C36.7136 11.371 35.6071 10.992 34.2709 11.2868C33.5611 11.4342 33.227 12.0028 33.227 12.9293V16.5091C33.227 16.7618 33.2061 16.9092 32.8721 16.8881C31.7656 16.8671 30.659 16.8881 29.5316 16.8881C29.3646 16.8881 29.1976 16.9303 29.1976 16.6565C29.2185 15.1614 29.0723 13.6453 29.3228 12.1502C29.7195 9.7496 30.9513 8.48614 33.2688 8.06499C34.8346 7.77018 36.4213 7.83336 37.9246 8.44403C39.4904 9.07576 40.2629 10.3182 40.4925 11.9607C40.5552 12.445 40.5969 12.9293 40.5761 13.4136V30.365C40.5969 31.9233 40.6596 33.4394 41.3277 34.8924ZM36.7136 21.7525C35.8368 22.4474 34.9808 23.0159 34.1456 23.5845C33.3105 24.132 32.8303 25.1006 32.8721 26.1114C32.893 27.2485 32.8721 28.3856 32.8721 29.5227C32.8512 29.986 32.9138 30.4282 33.0182 30.8704C33.394 32.1549 34.7302 32.5129 35.6906 31.5864C36.4005 30.8915 36.5675 29.986 36.651 29.0595C36.7763 27.6907 36.6928 26.322 36.6928 24.9532C36.7136 23.9214 36.7136 22.8896 36.7136 21.7525Z" fill="#1D2933"/>
  <path d="M68.9283 10.1706C69.4085 9.581 69.8261 9.09668 70.348 8.75975C71.6216 7.85428 73.271 7.72793 74.6907 8.38072C76.006 8.97033 76.4444 10.1706 76.6741 11.5183C76.7576 12.1079 76.7993 12.7186 76.7784 13.3293V34.4711C76.7784 34.8291 76.6949 34.9344 76.3191 34.9344C75.2961 34.9133 74.2731 34.8923 73.2501 34.9344C72.8325 34.9555 72.749 34.808 72.749 34.408V13.9189C72.749 13.603 72.7281 13.3082 72.6864 12.9923C72.5193 11.9395 71.7469 11.4341 70.6195 11.6447C69.6799 11.8131 69.1371 12.4238 69.0119 13.5188C68.9701 13.9189 68.9492 14.34 68.9492 14.7612V34.408C68.9492 34.8502 68.824 34.9344 68.4064 34.9344C67.446 34.8923 66.4856 34.9133 65.5044 34.9344C65.1286 34.9344 65.0242 34.8502 65.0242 34.4501C65.045 27.6063 65.045 20.7626 65.0242 13.9189V8.92822C65.0242 8.61235 65.0659 8.48601 65.4208 8.50706C66.4439 8.52812 67.4669 8.52812 68.4899 8.50706C68.8239 8.50706 68.9283 8.61235 68.8866 8.92822C68.9075 9.2862 68.9283 9.66523 68.9283 10.1706Z" fill="#1D2933"/>
  <path d="M62.3517 21.5213V29.3968C62.3517 30.197 62.2473 31.0183 62.0176 31.7974C61.5166 33.4399 60.4727 34.5349 58.8442 35.0403C57.341 35.5035 55.7543 35.5246 54.2511 35.1245C52.1633 34.5981 51.1402 33.103 50.7853 31.0393C50.6392 30.176 50.5765 29.2915 50.5974 28.4071C50.5974 23.7534 50.5974 19.1207 50.6183 14.488C50.6183 13.5404 50.7644 12.6139 51.0359 11.7084C51.6204 9.85534 52.8314 8.67611 54.7312 8.27601C56.2553 7.91803 57.8629 8.00226 59.3453 8.50765C61.2452 9.20255 62.0803 10.6976 62.2891 12.6139C62.4561 14.2564 62.3517 15.9199 62.3726 17.5624C62.3517 18.868 62.3517 20.1946 62.3517 21.5213ZM58.4893 21.6055V13.5194C58.4893 13.2035 58.4684 12.9087 58.4058 12.5928C58.3223 11.9611 57.8421 11.4557 57.2157 11.3504C56.819 11.2662 56.4015 11.2662 56.0048 11.3294C55.3367 11.4136 54.7939 11.919 54.6477 12.5928C54.5433 13.0561 54.4807 13.5194 54.5016 14.0037V29.8601C54.5016 30.176 54.5225 30.5129 54.5851 30.8287C54.6269 31.2499 54.8565 31.6079 55.2114 31.8395C56.1718 32.4923 57.4663 32.2396 58.1135 31.271C58.2805 30.9972 58.4058 30.7024 58.4475 30.3865C58.4893 30.1549 58.5102 29.9233 58.5102 29.6916C58.4893 26.9963 58.4893 24.3009 58.4893 21.6055Z" fill="#1D2933"/>
  <path d="M122 8.52869C121.457 11.7505 120.914 14.9302 120.372 18.1099C119.662 22.3425 118.931 26.5751 118.221 30.8077C117.783 33.3556 117.365 35.8826 116.906 38.4095C116.488 40.6626 115.048 41.884 112.772 41.9682C111.979 41.9893 111.185 41.9893 110.413 41.905C110.162 41.884 110.1 41.7998 110.1 41.5471V38.3674C110.1 38.1147 110.183 38.0515 110.434 38.0515C110.789 38.0725 111.144 38.0515 111.478 37.9883C112.563 37.7988 113.148 37.146 113.231 36.051C113.315 34.7665 113.023 33.5241 112.835 32.2817C112.271 28.4913 111.707 24.722 111.123 20.9316C110.642 17.7519 110.141 14.5512 109.661 11.3715C109.536 10.5502 109.411 9.70792 109.285 8.88667C109.244 8.5708 109.264 8.44446 109.64 8.44446C110.726 8.46552 111.812 8.46552 112.876 8.44446C113.127 8.44446 113.231 8.50763 113.252 8.78138C113.461 10.8029 113.691 12.8244 113.92 14.846C114.233 17.7309 114.567 20.6158 114.86 23.5007C115.048 25.3748 115.215 27.2489 115.403 29.1231C115.423 29.2705 115.34 29.5021 115.653 29.481C115.966 29.46 115.862 29.2494 115.862 29.102C115.862 25.6064 116.238 22.1319 116.697 18.6785C117.115 15.4777 117.49 12.2769 117.866 9.07619C117.929 8.61292 118.054 8.48657 118.513 8.48657C119.683 8.54975 120.831 8.52869 122 8.52869Z" fill="#1D2933"/>
  <path d="M21.1178 34.9139C20.4706 34.9139 19.8025 34.8928 19.1344 34.9139C18.8213 34.935 18.7377 34.8086 18.696 34.5349C18.4246 32.6186 18.1532 30.7234 17.8609 28.8072C17.4433 25.9012 17.0049 22.9953 16.5664 20.0683C16.1698 17.3729 15.7731 14.6775 15.3973 11.9821C15.2511 10.9293 15.105 9.87638 14.938 8.84455C14.8962 8.5708 14.9171 8.46552 15.2302 8.46552C16.3159 8.48657 17.4224 8.48657 18.529 8.46552C18.7795 8.46552 18.9048 8.50763 18.9465 8.8235C19.3641 12.3822 19.8025 15.962 20.241 19.5208C20.6585 22.7847 20.909 26.0486 21.0134 29.3336C21.0134 29.5021 20.909 29.7548 21.2431 29.7337C21.5354 29.7337 21.431 29.481 21.431 29.3336C21.4519 25.7117 21.8694 22.1109 22.3287 18.51C22.7463 15.2882 23.1221 12.0453 23.477 8.8235C23.5188 8.52869 23.6023 8.44446 23.8737 8.44446C24.9594 8.46552 26.0659 8.46552 27.1724 8.44446C27.4856 8.44446 27.5274 8.52869 27.4647 8.8235C26.901 12.4033 26.3582 15.9831 25.8154 19.5629C25.2517 23.269 24.688 26.9752 24.1034 30.6813C23.8946 31.9869 23.6858 33.2925 23.4979 34.598C23.4562 34.8507 23.3726 34.8718 23.1639 34.8718C22.4958 34.8928 21.8068 34.9139 21.1178 34.9139Z" fill="#1D2933"/>
  <path d="M47.6119 34.8927C46.401 34.8927 45.1901 34.8927 43.9792 34.9138C43.666 34.9138 43.666 34.7453 43.666 34.5347V0.526638C43.666 0.126543 43.7704 0.000197455 44.1671 0.0212551C45.211 0.0423127 46.234 0.0423127 47.2779 0.0212551C47.4867 0.0212551 47.6537 0.0212551 47.6328 0.316062C47.6328 0.526638 47.6119 0.737215 47.6119 0.926734C47.6328 12.2347 47.6119 23.5637 47.6119 34.8927Z" fill="#1D2933"/>
  <path d="M32.7677 44.6003C32.5171 45.2952 32.2457 45.9901 31.9743 46.685C31.3897 48.2222 30.8051 49.7594 30.2623 51.3177C30.2206 51.5914 29.9491 51.781 29.6777 51.7388C28.78 51.7178 28.78 51.7388 28.4668 50.8965C27.757 48.9803 27.0262 47.043 26.3164 45.1267C26.2746 45.0004 26.212 44.8741 26.1076 44.7898V47.064C26.1285 48.496 26.1494 49.9279 26.1911 51.3598C26.1911 51.6757 26.1076 51.781 25.7944 51.7599C25.356 51.7178 24.7923 51.9073 24.5209 51.6757C24.2495 51.444 24.4374 50.8544 24.4374 50.4122C24.4374 47.5063 24.4374 44.6003 24.4165 41.6943C24.4165 41.3574 24.5 41.2521 24.8341 41.2732C25.2725 41.2943 25.7109 41.2943 26.1494 41.2732C26.4208 41.2521 26.546 41.3574 26.6504 41.6312C27.5064 44.0107 28.4042 46.3691 29.2811 48.7276C29.3228 48.8118 29.3646 48.9171 29.4063 49.0435C29.5733 48.7908 29.6986 48.496 29.7821 48.1801C30.5964 45.9901 31.4315 43.8001 32.2248 41.6101C32.3292 41.3364 32.4336 41.2521 32.7259 41.2521C33.1852 41.2732 33.6654 41.2732 34.1247 41.2521C34.3335 41.2521 34.4379 41.2943 34.4379 41.5469V51.4019C34.4379 51.6757 34.3335 51.7178 34.1039 51.7178C33.8116 51.6967 33.5193 51.7178 33.227 51.7178C32.6633 51.7178 32.6842 51.7178 32.6842 51.1282C32.7468 48.9592 32.7885 46.7692 32.8512 44.6003H32.7677Z" fill="#1D2933"/>
  <path d="M41.7661 49.0852C42.2671 47.7586 42.7265 46.5372 43.1649 45.3369C43.6242 44.1156 44.1044 42.8311 44.5637 41.5887C44.6055 41.3781 44.8143 41.2307 45.0439 41.2728C45.4823 41.2939 45.9208 41.2939 46.3592 41.2728C46.6724 41.2517 46.7768 41.336 46.7768 41.6729C46.7559 44.4525 46.7768 47.2532 46.7768 50.0328V51.4436C46.7768 51.6542 46.735 51.7384 46.5054 51.7174C46.0878 51.6963 45.6911 51.6963 45.2736 51.7174C45.0439 51.7174 45.023 51.6121 45.023 51.4226C45.0648 49.8011 45.1065 48.1797 45.1274 46.5583V44.4736C44.8143 45.2948 44.522 46.095 44.2297 46.8741C43.666 48.3903 43.1023 49.9064 42.5386 51.4226C42.4968 51.6121 42.3298 51.7384 42.121 51.7174C41.439 51.7314 40.9727 51.4156 40.7222 50.7698C40.0123 48.8536 39.3025 46.9373 38.5926 45.0421C38.5509 44.9368 38.5509 44.8105 38.4047 44.7263V46.3477C38.4256 48.0112 38.4465 49.6748 38.4882 51.3384C38.4882 51.6121 38.4465 51.7384 38.1333 51.7174C37.7784 51.6963 37.4026 51.6963 37.0477 51.7174C36.818 51.7174 36.7554 51.6332 36.7554 51.4015V41.5466C36.7554 41.2939 36.8389 41.2517 37.0685 41.2517C37.4861 41.2728 37.9245 41.2728 38.3421 41.2517C38.7179 41.2096 38.8849 41.357 39.0311 41.715C39.8662 44.0524 40.7431 46.3687 41.5991 48.6851C41.6199 48.7904 41.6617 48.8746 41.7661 49.0852Z" fill="#1D2933"/>
  <path d="M12.0776 46.3054C12.1403 44.326 12.871 42.5782 14.8335 41.5674C17.2762 40.325 20.3662 41.1042 21.7232 43.2731C23.0177 45.3578 22.788 48.6849 21.1595 50.3695C19.5937 52.012 17.652 52.3068 15.5851 51.6962C13.56 51.1065 12.537 49.6115 12.182 47.5689C12.1194 47.1688 12.0776 46.7476 12.0776 46.3054ZM13.9358 46.4528C13.9149 47.1267 14.0402 47.8005 14.2698 48.4322C14.7709 49.7589 15.8148 50.4748 17.2762 50.4959C18.7377 50.5169 19.8025 49.822 20.3035 48.4954C20.7837 47.253 20.8046 45.9053 20.3871 44.6419C19.9695 43.3995 19.0926 42.6835 17.7982 42.515C16.5664 42.3676 15.4807 42.6624 14.6874 43.7153C14.1028 44.5576 13.9567 45.4842 13.9358 46.4528Z" fill="#1D2933"/>
  <path d="M61.1408 44.2215C61.1408 46.601 61.1408 48.9805 61.1617 51.3389C61.1617 51.6548 61.0991 51.718 60.8068 51.6969C60.4727 51.6759 60.1387 51.6759 59.8046 51.6969C59.575 51.718 59.4915 51.6338 59.4915 51.4021C59.5123 51.0231 59.4915 50.644 59.4915 50.2439V41.7156C59.4915 41.3155 59.6167 41.2734 59.9716 41.2313C60.765 41.1471 61.2243 41.4208 61.6628 42.1157C63.0198 44.2636 64.4604 46.3483 65.8801 48.4541C65.9219 48.5383 66.0054 48.6015 66.1306 48.7699V46.3904C66.1306 44.8111 66.1098 43.2318 66.0889 41.6524C66.0889 41.3155 66.1933 41.2102 66.5064 41.2523C66.9031 41.2945 67.4042 41.0839 67.6547 41.3366C67.9053 41.5893 67.7174 42.0946 67.7174 42.4947V51.2968C67.7174 51.6338 67.6338 51.6969 67.2998 51.739C66.4647 51.8443 66.0054 51.5285 65.5461 50.8125C64.2099 48.6857 62.7693 46.622 61.3705 44.5373C61.3078 44.432 61.2661 44.2636 61.1408 44.2215Z" fill="#1D2933"/>
  <path d="M99.598 51.9911C98.3662 51.9911 97.3849 51.8016 96.5289 51.2331C95.5268 50.5803 95.0883 49.6116 94.984 48.4535C94.9631 48.2008 95.0257 48.1165 95.2762 48.0744C95.6938 48.0323 96.1114 47.9691 96.5289 47.906C96.7377 47.8638 96.8003 47.927 96.8212 48.1587C96.9674 49.6327 98.2618 50.7277 99.7232 50.6013C100.203 50.5592 100.663 50.3908 101.059 50.096C101.561 49.759 101.811 49.1484 101.707 48.5588C101.644 47.9481 101.247 47.6322 100.705 47.4638C99.9529 47.2111 99.1595 47.1268 98.4079 46.9373C97.9069 46.811 97.4267 46.6425 96.9674 46.4109C95.1092 45.4633 94.8796 43.168 96.508 41.8624C97.7607 40.8727 99.1804 40.8727 100.642 41.1675C101.644 41.357 102.521 42.0098 102.98 42.9153C103.168 43.3365 103.314 43.7576 103.377 44.2209C103.419 44.4315 103.398 44.5367 103.126 44.5367C102.709 44.5367 102.312 44.5789 101.915 44.621C101.707 44.642 101.665 44.5789 101.644 44.3683C101.54 43.2101 100.892 42.5784 99.7441 42.5152C99.1178 42.4731 98.4914 42.4731 97.9069 42.7679C97.4684 42.9785 97.197 43.4207 97.2388 43.905C97.2388 44.3472 97.5311 44.7263 97.9486 44.8737C98.8046 45.2316 99.7232 45.358 100.6 45.6107C101.101 45.716 101.581 45.8844 102.041 46.095C102.98 46.5583 103.565 47.5059 103.565 48.5588C103.627 49.6959 103.064 50.7698 102.082 51.3384C101.352 51.7806 100.475 52.0122 99.598 51.9911Z" fill="#1D2933"/>
  <path d="M86.4867 46.4534V41.6733C86.4867 41.3574 86.5285 41.2521 86.8834 41.2521C89.0547 41.2732 91.2051 41.2732 93.3764 41.2521C93.6896 41.2521 93.8357 41.3153 93.794 41.6522C93.7522 42.0313 93.961 42.5577 93.7105 42.7893C93.5017 42.9789 92.9797 42.8525 92.6039 42.8525H88.6163C88.324 42.8525 88.1987 42.9367 88.2196 43.2526C88.2404 43.8633 88.2404 44.495 88.2196 45.1057C88.1987 45.4426 88.3031 45.569 88.658 45.5479C89.9942 45.5268 91.3513 45.5479 92.6874 45.5268C92.9797 45.5268 93.1259 45.59 93.0841 45.9059C93.0424 46.2849 93.2512 46.7903 93.0006 47.043C92.7501 47.2957 92.2699 47.1062 91.8941 47.1062C90.8084 47.1062 89.7019 47.1272 88.5954 47.1062C88.2822 47.1062 88.1987 47.2114 88.1987 47.5063C88.2196 48.2433 88.2196 48.9803 88.1987 49.7173C88.1987 50.0542 88.3031 50.0963 88.5954 50.0963C90.2447 50.0753 91.8941 50.0963 93.5434 50.0753C93.8357 50.0753 93.9819 50.1174 93.9401 50.4543C93.9192 50.7491 93.9192 51.0439 93.9401 51.3387C93.961 51.6125 93.8566 51.6757 93.5852 51.6757H86.779C86.4867 51.6757 86.4658 51.5704 86.4658 51.3177C86.4867 49.7173 86.4867 48.0959 86.4867 46.4534Z" fill="#1D2933"/>
  <path d="M0.678467 46.4955C0.678467 44.6424 1.24217 43.042 2.78714 41.9259C4.6244 40.6204 7.56819 40.7046 9.2593 42.0944C9.90651 42.663 10.3867 43.3789 10.6372 44.2002C10.6999 44.3686 10.6581 44.4529 10.4911 44.4739C10.345 44.516 10.1988 44.5371 10.0735 44.5792C9.73949 44.6424 9.40544 44.8108 9.09227 44.7477C8.73735 44.6845 8.79998 44.2002 8.63296 43.9264C7.92311 42.8525 6.92097 42.4103 5.66829 42.4734C4.41562 42.5366 3.41348 43.1262 2.95416 44.3055C2.30695 45.948 2.30695 47.6115 3.30909 49.1277C4.10245 50.349 5.31337 50.6228 6.67043 50.349C7.94399 50.0753 8.69559 49.2119 8.92525 47.9484C9.00876 47.5273 9.13403 47.422 9.53071 47.5062C9.88564 47.5694 10.2197 47.6115 10.5746 47.6326C10.8043 47.6536 10.9087 47.7168 10.846 47.9905C10.3241 49.8857 9.19666 51.2545 7.27589 51.7599C5.31337 52.2863 3.49699 51.9915 2.05641 50.4332C1.03339 49.3382 0.678467 47.9695 0.678467 46.4955Z" fill="#1D2933"/>
  <path d="M49.0942 45.2103C49.0942 44.0311 49.1151 42.8519 49.0942 41.6726C49.0942 41.3147 49.1986 41.2094 49.5327 41.2515C49.9502 41.2936 50.5139 41.1252 50.7645 41.3357C51.0359 41.5884 50.848 42.157 50.848 42.5992V48.1163C50.848 49.9904 52.3094 50.9591 54.0423 50.222C54.8357 49.8851 55.1906 49.2534 55.2532 48.4322C55.3367 46.8949 55.2741 45.3788 55.295 43.8416C55.295 43.0835 55.3159 42.3465 55.295 41.5884C55.295 41.3147 55.3785 41.2304 55.6499 41.2515C56.1092 41.2726 56.6938 41.1041 56.9652 41.3357C57.2366 41.5674 57.0487 42.1991 57.0487 42.6413C57.0487 44.4733 57.0696 46.3264 57.0487 48.1584C57.0279 50.3273 55.6708 51.8014 53.5204 51.9488C52.1007 52.0541 50.8062 51.8014 49.8458 50.6432C49.3865 50.1168 49.136 49.4429 49.1151 48.748C49.0942 47.5688 49.1151 46.3896 49.1151 45.2103H49.0942Z" fill="#1D2933"/>
  <path d="M76.2147 47.2747V43.2106C76.2147 42.9158 76.1312 42.8315 75.8598 42.8526C75.0873 42.8737 74.3148 42.8526 73.5423 42.8737C73.3127 42.8737 73.2083 42.8105 73.2292 42.5578C73.25 42.1366 73.1039 41.6102 73.2918 41.3575C73.4797 41.1048 74.0643 41.2733 74.461 41.2733C76.4861 41.2733 78.5322 41.2733 80.5573 41.2522C80.8705 41.2522 81.0166 41.3154 80.9749 41.6523C80.9331 42.0313 81.1419 42.5578 80.8914 42.7894C80.6826 42.9789 80.1606 42.8526 79.7848 42.8526C79.3255 42.8526 78.8453 42.8737 78.386 42.8526C78.052 42.8315 77.9684 42.9368 77.9893 43.2737C78.0102 45.927 77.9893 48.5803 78.0102 51.2335C78.0102 51.6126 77.9267 51.781 77.53 51.7389C77.1125 51.6968 76.5905 51.8653 76.34 51.6547C76.0894 51.4441 76.2565 50.8755 76.2565 50.4755C76.2147 49.4015 76.2147 48.3486 76.2147 47.2747Z" fill="#1D2933"/>
  <path d="M71.8513 46.5378V51.3179C71.8513 51.6338 71.8095 51.7812 71.4546 51.7391C71.0997 51.718 70.7239 51.718 70.3689 51.7391C70.1184 51.7601 70.0767 51.6549 70.0767 51.4443V41.5893C70.0767 41.3366 70.1602 41.2734 70.4107 41.2734C70.7656 41.2945 71.1414 41.2945 71.4964 41.2734C71.7887 41.2524 71.8513 41.3787 71.8513 41.6525C71.8513 43.2529 71.8513 44.8953 71.8513 46.5378Z" fill="#1D2933"/>
  <path d="M84.1066 46.4951V51.3594C84.1066 51.6332 84.044 51.7595 83.7517 51.7384C83.2924 51.6963 82.7078 51.8858 82.4364 51.6542C82.165 51.4226 82.3529 50.7909 82.3529 50.3486V41.694C82.3529 41.3781 82.4155 41.2517 82.7496 41.2728C83.188 41.3149 83.7726 41.1254 84.0231 41.357C84.3154 41.6097 84.1066 42.2204 84.1066 42.6626C84.1275 43.9261 84.1066 45.2106 84.1066 46.4951Z" fill="#1D2933"/>
</svg>
