<svg width="70" height="14" viewBox="0 0 70 14" fill="none" xmlns="http://www.w3.org/2000/svg">
<path d="M10.194 5.80381C10.1576 6.56609 10.0537 7.31101 9.76593 8.02292C9.1976 9.43106 8.14214 10.3679 6.59475 10.7793C5.04737 11.1912 3.55193 11.058 2.17289 10.2437C1.10191 9.61127 0.480445 8.66878 0.184341 7.52985C0.00763385 6.8476 -0.034155 6.15361 0.0255434 5.4529C0.07569 4.86132 0.185535 4.28318 0.415971 3.72854C0.97236 2.38924 1.97589 1.48929 3.43372 1.0326C4.12682 0.815443 4.83962 0.732612 5.56257 0.788019C6.94638 0.893798 8.16005 1.34825 9.05492 2.39092C9.56952 2.98977 9.88115 3.68265 10.0226 4.43485C10.1074 4.88651 10.139 5.34712 10.194 5.80325V5.80381ZM7.31531 5.91966C7.298 5.54189 7.28785 5.04825 7.24965 4.55686C7.19771 3.88413 7.101 3.21756 6.83892 2.58177C6.53267 1.83909 5.99001 1.39471 5.11065 1.37624C4.59605 1.3656 4.12503 1.47362 3.75132 1.83293C3.5179 2.05736 3.36507 2.32544 3.25403 2.61759C2.96509 3.37707 2.89465 4.17013 2.87435 4.9643C2.85584 5.6846 2.87256 6.40714 2.9048 7.12744C2.93226 7.73077 3.01225 8.3313 3.2003 8.91336C3.30537 9.24021 3.45343 9.55027 3.68386 9.81835C4.13518 10.3422 4.74769 10.4435 5.41631 10.3842C6.02463 10.3305 6.48013 10.0405 6.74161 9.53404C6.90399 9.22006 7.01981 8.87698 7.09921 8.53502C7.29084 7.71286 7.29681 6.87335 7.31531 5.92078V5.91966Z" fill="#00003D"/>
<path d="M41.9772 3.3581C41.9772 3.22322 41.9783 3.07938 41.9772 2.93611C41.9706 2.10275 41.9634 1.2694 41.9574 0.436605C41.9563 0.260867 41.9825 0.240159 42.167 0.220571C42.8279 0.150052 43.4881 0.0772942 44.1484 0.00453669C44.3269 -0.0150519 44.3812 0.0258043 44.3806 0.185871C44.3681 3.62171 44.3561 7.05698 44.3436 10.4928C44.3436 10.5393 44.3418 10.5857 44.3436 10.6327C44.346 10.7251 44.2887 10.7704 44.2003 10.7805C43.6732 10.8387 43.1454 10.8947 42.6177 10.9506C42.4995 10.9635 42.3807 10.9725 42.2625 10.9864C42.0494 11.0128 42.0106 10.9792 42.0118 10.7743C42.0136 10.5432 42.0118 10.3126 42.0118 10.063C41.9598 10.0954 41.9055 10.1229 41.8589 10.1587C41.3503 10.5477 40.7814 10.8241 40.1325 10.9355C39.3552 11.0687 38.6072 11.0055 37.9296 10.5863C37.4335 10.2796 37.0914 9.85423 36.8646 9.34325C36.5052 8.53284 36.4449 7.68549 36.5147 6.8236C36.5607 6.25833 36.6974 5.71321 36.9696 5.20278C37.4508 4.30171 38.2281 3.73308 39.2442 3.44093C39.8471 3.26743 40.468 3.19803 41.0978 3.24281C41.3879 3.26351 41.6751 3.3178 41.9777 3.35922L41.9772 3.3581ZM41.9574 6.98422C41.9574 6.16094 41.958 5.3371 41.9557 4.51383C41.9557 4.4573 41.9461 4.38846 41.9115 4.34592C41.3175 3.59988 40.1104 3.61555 39.5337 4.37503C39.2191 4.78862 39.0758 5.26547 39.0364 5.75854C38.9863 6.38313 38.9672 7.01221 38.9803 7.63848C38.9898 8.09685 39.0764 8.55355 39.2668 8.98394C39.5068 9.52738 39.9241 9.838 40.5689 9.8671C41.0124 9.88669 41.4214 9.78203 41.8225 9.62029C41.9258 9.57831 41.961 9.53298 41.9604 9.42832C41.9557 8.61399 41.958 7.79967 41.958 6.98534L41.9574 6.98422Z" fill="#00003D"/>
<path d="M13.6172 4.24713C13.7086 4.18053 13.7772 4.1324 13.8441 4.08202C14.3169 3.72383 14.8333 3.44176 15.4327 3.31863C16.4613 3.10763 17.3985 3.25483 18.171 3.97681C18.6486 4.42287 18.9053 4.97974 19.0217 5.58979C19.2367 6.71305 19.1967 7.82288 18.7101 8.8885C18.2713 9.85058 17.4935 10.4701 16.4344 10.7763C15.5449 11.0332 14.6411 11.0735 13.7307 10.8703C13.7169 10.8669 13.7014 10.8703 13.6668 10.8703C13.6668 10.919 13.6668 10.9677 13.6668 11.0164C13.6686 11.8637 13.6698 12.7111 13.671 13.5579C13.671 13.7493 13.6513 13.7728 13.4471 13.794C12.8107 13.8618 12.1749 13.9278 11.538 13.9927C11.3057 14.0162 11.2812 13.9927 11.2812 13.7705C11.2812 10.4047 11.2812 7.03878 11.2812 3.67346C11.2812 3.47758 11.3099 3.45519 11.5165 3.43448C12.1433 3.37124 12.7689 3.30128 13.3952 3.23804C13.5928 3.21789 13.6196 3.25035 13.6178 3.4356C13.6149 3.69081 13.6172 3.94546 13.6172 4.24657V4.24713ZM13.671 7.31918C13.671 8.14302 13.6686 8.96686 13.6746 9.7907C13.6746 9.86009 13.7104 9.94628 13.7611 9.9961C14.1551 10.3839 14.653 10.4713 15.1963 10.4097C15.7127 10.3509 16.0774 10.0935 16.2959 9.65525C16.4893 9.2674 16.5914 8.85268 16.6147 8.43069C16.6487 7.80497 16.6571 7.17646 16.6469 6.54963C16.6398 6.11588 16.5389 5.69053 16.3401 5.29484C16.1377 4.89187 15.8201 4.60812 15.3372 4.51521C14.8035 4.41223 14.2936 4.49059 13.794 4.67864C13.7002 4.7139 13.668 4.75251 13.6686 4.84822C13.6728 5.67206 13.671 6.4959 13.671 7.31974V7.31918Z" fill="#00003D"/>
<path d="M30.6076 4.2563C30.6846 4.21097 30.7383 4.18075 30.7908 4.14829C31.3854 3.78058 32.0021 3.45429 32.706 3.3099C33.1949 3.20971 33.6898 3.18733 34.1829 3.29255C35.0342 3.47388 35.387 4.03467 35.4772 4.69453C35.5046 4.89657 35.5082 5.10253 35.5088 5.30681C35.5112 7.07146 35.51 8.83611 35.51 10.6008C35.51 10.8062 35.4843 10.8302 35.261 10.8308C34.6247 10.8308 33.9883 10.8308 33.3519 10.8308C33.1322 10.8308 33.1018 10.8022 33.1018 10.598C33.1018 8.98219 33.1024 7.36697 33.1 5.75119C33.1 5.59392 33.094 5.43442 33.0671 5.27939C32.9853 4.80758 32.7269 4.58707 32.2212 4.55573C31.7203 4.52439 31.2338 4.62177 30.7496 4.72419C30.7198 4.73035 30.6899 4.77456 30.6774 4.80702C30.6649 4.84004 30.6744 4.8809 30.6744 4.91784C30.6744 6.80785 30.6744 8.69843 30.6744 10.5884C30.6744 10.8045 30.6476 10.8308 30.4201 10.8308C29.7885 10.8308 29.1575 10.8308 28.5259 10.8308C28.3056 10.8308 28.2859 10.8123 28.2859 10.6108C28.2859 8.29659 28.2859 5.9829 28.2859 3.66865C28.2859 3.46772 28.3068 3.45597 28.5217 3.43414C29.0936 3.37594 29.6643 3.30766 30.2368 3.25001C30.6565 3.20748 30.6261 3.19572 30.6171 3.55559C30.6129 3.72797 30.6028 3.89979 30.598 4.07217C30.5968 4.12534 30.6034 4.17907 30.6082 4.25686L30.6076 4.2563Z" fill="#00003D"/>
<path d="M49.4358 11.0098C48.7027 10.9952 48.0048 10.8598 47.3499 10.5475C46.6198 10.1993 46.0873 9.67325 45.744 8.97758C45.3888 8.25728 45.3082 7.49333 45.3548 6.71538C45.4037 5.8977 45.6718 5.14662 46.2401 4.50971C46.7666 3.91869 47.4442 3.54763 48.2364 3.36406C49.4041 3.09318 50.5366 3.19056 51.6028 3.72337C52.4583 4.15096 53.0153 4.82928 53.2893 5.6951C53.5949 6.65997 53.5961 7.63324 53.2487 8.59085C52.8523 9.68557 52.0446 10.4053 50.8817 10.7786C50.6996 10.8374 50.5115 10.8883 50.3217 10.9163C50.0286 10.9594 49.7313 10.9801 49.4358 11.0103V11.0098ZM50.9819 6.96444C50.9599 6.67117 50.9276 6.10926 50.8733 5.54902C50.8351 5.15501 50.7306 4.77443 50.5521 4.41121C50.2286 3.75303 49.3593 3.64949 48.7827 3.90918C48.3875 4.08716 48.2227 4.43471 48.1021 4.80074C47.9158 5.36601 47.8788 5.95255 47.8669 6.53796C47.8573 6.99802 47.8788 7.45919 47.8949 7.9198C47.9123 8.41791 47.9612 8.91434 48.1069 9.39454C48.2561 9.88649 48.4937 10.3202 49.1092 10.4154C49.5802 10.4881 50.0387 10.4613 50.3653 10.0913C50.5247 9.91112 50.6429 9.68165 50.7187 9.45666C50.9617 8.73412 50.9712 7.98304 50.9819 6.96444Z" fill="#00003D"/>
<path d="M62.4818 7.08862C62.4681 7.98578 62.2609 8.82529 61.6801 9.55622C61.1374 10.239 60.4097 10.6677 59.5285 10.8625C58.3973 11.1127 57.3 11.022 56.2607 10.5217C55.5974 10.2021 55.0965 9.71853 54.7682 9.08889C54.3228 8.23427 54.2315 7.3276 54.3563 6.39686C54.4542 5.66593 54.7371 5.0044 55.2631 4.44696C55.7771 3.9024 56.4218 3.5554 57.1705 3.37127C57.9441 3.18098 58.7208 3.17035 59.4975 3.34385C60.855 3.64719 61.7929 4.39547 62.2412 5.64858C62.3039 5.82376 62.3594 6.00509 62.3869 6.18755C62.4317 6.48585 62.4514 6.78808 62.4812 7.08862H62.4818ZM59.9542 7.05504C59.9315 6.65096 59.9214 6.24519 59.8826 5.84223C59.8402 5.40288 59.7679 4.96634 59.5888 4.55274C59.4372 4.2035 59.202 3.93318 58.7972 3.8358C58.1316 3.67517 57.4582 3.84363 57.1842 4.52644C57.072 4.80627 56.9705 5.10122 56.9394 5.39673C56.8773 5.98774 56.8421 6.5838 56.8415 7.17817C56.8403 7.93093 56.8588 8.68817 57.0839 9.41966C57.294 10.1025 57.6254 10.4036 58.2952 10.4433C58.8145 10.4741 59.2593 10.3314 59.5029 9.8702C59.633 9.62338 59.7327 9.35362 59.79 9.08386C59.9327 8.41561 59.9631 7.73672 59.9548 7.05504H59.9542Z" fill="#00003D"/>
<path d="M24.8784 6.78989C24.1273 6.78989 23.3769 6.78989 22.6259 6.78989C22.417 6.78989 22.3955 6.81339 22.4062 7.00816C22.4325 7.47828 22.485 7.94393 22.6456 8.39335C22.9011 9.10637 23.3972 9.57818 24.2056 9.71082C24.8037 9.80876 25.4037 9.80149 25.9923 9.64702C26.2347 9.58322 26.4735 9.50318 26.7081 9.41811C26.7977 9.38565 26.8514 9.39293 26.9159 9.45673C27.1511 9.69011 27.1576 9.71362 26.8932 9.92741C26.0144 10.6382 25.0073 11.0193 23.8301 10.9886C23.2175 10.9723 22.6259 10.8934 22.0612 10.6623C21.2487 10.3298 20.6959 9.76287 20.3783 8.9978C20.0123 8.11575 19.921 7.19621 20.0888 6.26939C20.2678 5.28101 20.786 4.46948 21.6785 3.88742C22.4212 3.4033 23.242 3.18839 24.1476 3.22812C24.6897 3.25163 25.2121 3.33614 25.7028 3.55665C26.2938 3.82194 26.6896 4.26184 26.9547 4.81424C27.2323 5.39294 27.3063 6.01026 27.3552 6.63318C27.3654 6.76022 27.2949 6.79156 27.1738 6.791C26.4084 6.78877 25.6425 6.78989 24.8766 6.78989H24.8784ZM24.9536 6.11604C25.0019 5.68005 24.9106 4.8064 24.787 4.4303C24.6115 3.89637 24.165 3.70161 23.6026 3.79843C23.2104 3.86559 22.9704 4.11353 22.7979 4.42415C22.5077 4.94688 22.4367 5.51831 22.4003 6.09645C22.3931 6.21062 22.4331 6.23917 22.5519 6.23301C23.0976 6.20615 23.6432 6.18936 24.1888 6.16473C24.4414 6.15354 24.6939 6.13283 24.9536 6.11604Z" fill="#00003D"/>
<path d="M65.8097 4.3553C65.996 4.19803 66.1416 4.06651 66.2968 3.94506C66.7129 3.62045 67.1684 3.363 67.7075 3.26226C68.0191 3.20405 68.3326 3.20741 68.6269 3.32662C69.108 3.52194 69.3176 3.87958 69.2812 4.40455C69.2483 4.88419 68.9158 5.2726 68.4394 5.3879C67.9362 5.5099 67.4532 5.33697 67.1684 4.93456C67.1141 4.85733 67.0502 4.78513 67.0049 4.70397C66.9219 4.55454 66.7864 4.52488 66.6282 4.54671C66.3595 4.58365 66.1309 4.70286 65.9345 4.873C65.8963 4.90602 65.8813 4.97821 65.8813 5.0325C65.8784 6.04271 65.879 7.05348 65.879 8.06369C65.879 8.90656 65.879 9.74943 65.879 10.5917C65.879 10.7971 65.8491 10.8251 65.6294 10.8251C64.9978 10.8251 64.3668 10.8257 63.7352 10.8251C63.5155 10.8251 63.4934 10.8039 63.4934 10.6046C63.4934 8.28588 63.4934 5.96716 63.4934 3.64843C63.4934 3.48557 63.5239 3.4559 63.6958 3.43799C64.3023 3.37363 64.9089 3.30871 65.5154 3.24435C65.5596 3.23987 65.6043 3.23931 65.6491 3.23707C65.7733 3.22924 65.833 3.27849 65.8282 3.39994C65.8187 3.63724 65.8151 3.87398 65.8103 4.11128C65.8085 4.17956 65.8103 4.24784 65.8103 4.35474L65.8097 4.3553Z" fill="#00003D"/>
</svg>
