<svg width="62" height="9" viewBox="0 0 62 9" fill="none" xmlns="http://www.w3.org/2000/svg">
<path d="M13.3657 7.12997C12.15 7.13732 11.0494 6.41012 10.5781 5.28873C10.1068 4.16733 10.3602 2.87332 11.2172 2.01024C12.0741 1.14716 13.3669 0.887622 14.492 1.35161C15.617 1.81559 16.3503 2.91127 16.3503 4.12694C16.3528 5.77965 15.0184 7.12263 13.3657 7.12997ZM13.3657 5.47024e-05C11.6958 -0.00851491 10.1864 0.990457 9.54242 2.52931C8.89725 4.0694 9.24493 5.84575 10.4226 7.02958C11.6003 8.21342 13.3742 8.56967 14.918 7.93307C16.4617 7.29647 17.468 5.79189 17.468 4.12204C17.4668 1.85354 15.6342 0.012297 13.3657 5.47024e-05Z" fill="#00003D"/>
<path d="M28.5938 0.236969C28.5558 0.236969 28.5203 0.257781 28.502 0.289611L24.2759 6.03615L20.0487 0.289611C20.0291 0.256557 19.9936 0.236969 19.9544 0.236969C19.8932 0.236969 19.843 0.285938 19.8418 0.34715V8.00349H20.9595V3.4824L24.2074 7.86882C24.2233 7.88841 24.2478 7.89943 24.2735 7.89943C24.2992 7.89943 24.3237 7.88841 24.3396 7.86882L27.5875 3.4824V8.00349H28.7052V0.34715C28.7052 0.317768 28.6929 0.289611 28.6709 0.268799C28.6489 0.247987 28.6207 0.236969 28.5913 0.236969" fill="#00003D"/>
<path d="M35.5432 4.09654H32.938V1.35916H35.5432C36.2985 1.35916 36.9106 1.97128 36.9106 2.72663C36.9106 3.48198 36.2985 4.0941 35.5432 4.0941M35.5432 0.235321H31.8167V8.00184H32.9344V5.22161H35.5395C36.9155 5.22161 38.0308 4.10634 38.0308 2.7303C38.0308 1.35427 36.9155 0.238994 35.5395 0.238994" fill="#00003D"/>
<path d="M4.13543 7.13041C2.72635 7.13775 1.50212 6.16571 1.18995 4.79213C0.878993 3.41854 1.56456 2.0119 2.83897 1.41203C4.11339 0.810932 5.63388 1.1782 6.49573 2.29347L7.29882 1.50017C6.18967 0.160866 4.36068 -0.339844 2.72512 0.24901C1.08956 0.837865 0 2.39019 0 4.12737C0 5.86455 1.08956 7.41688 2.72512 8.00573C4.36068 8.59459 6.18968 8.0951 7.2976 6.75579L6.49451 5.96249C5.93259 6.69825 5.06094 7.13041 4.13543 7.13041Z" fill="#00003D"/>
<path d="M51.2864 3.41236L50.4307 3.21771C49.51 3.01939 49.4415 2.3938 49.4415 2.1967C49.4415 1.56133 49.9483 1.19773 50.8298 1.19773C51.7112 1.19773 52.3992 1.81229 52.6024 2.02164L53.3884 1.24792C52.6502 0.472987 51.814 0.0934753 50.8298 0.0934753C49.3313 0.0934753 48.3238 0.935746 48.3238 2.19058C48.3238 2.58968 48.3238 3.80289 50.3388 4.29993L51.2754 4.52029C52.1446 4.75902 52.5669 5.18015 52.5669 5.80329C52.5669 6.53415 51.863 7.04343 50.8567 7.04343C49.7794 7.04343 49.1171 6.30277 48.9187 6.05425L48.1426 6.8194C48.6714 7.42294 49.5749 8.13912 50.8689 8.13912C52.48 8.13912 53.6957 7.1328 53.6957 5.80084C53.6957 4.60721 52.8718 3.77963 51.2962 3.40869" fill="#00003D"/>
<path d="M58.8094 3.41236L57.9536 3.21771C57.033 3.01939 56.9644 2.3938 56.9644 2.1967C56.9644 1.56133 57.4713 1.19773 58.3527 1.19773C59.2342 1.19773 59.9222 1.81229 60.1242 2.02164L60.9126 1.24792C60.1744 0.472987 59.3358 0.0934753 58.3539 0.0934753C56.8555 0.0934753 55.848 0.935746 55.848 2.19058C55.848 2.58968 55.848 3.80289 57.863 4.29993L58.8045 4.5154C59.6712 4.75412 60.0936 5.17526 60.0936 5.79839C60.0936 6.52925 59.3909 7.03853 58.3858 7.03853C57.3085 7.03853 56.6449 6.29787 56.4478 6.04936L55.6594 6.82307C56.1883 7.42662 57.0918 8.14279 58.3858 8.14279C59.9968 8.14279 61.2125 7.13647 61.2125 5.80451C61.2125 4.61089 60.3886 3.78331 58.813 3.41236" fill="#00003D"/>
<path d="M41.2918 4.88979L42.5711 2.4499L43.8529 4.88979H41.2918ZM42.5711 0.169162C42.527 0.169162 42.4878 0.194871 42.4683 0.235271L38.394 8.00546H39.6587L40.7005 6.01486H44.4393L45.4835 8.00546H46.7469L42.6739 0.234047C42.6556 0.194871 42.6152 0.169162 42.5711 0.167938V0.169162Z" fill="#00003D"/>
<path d="M11.6047 5.09859L12.3944 5.89311L15.1281 3.14471L14.336 2.35019L11.6035 5.09859H11.6047Z" fill="#00003D"/>
</svg>
