<svg width="91" height="28" viewBox="0 0 91 28" fill="none" xmlns="http://www.w3.org/2000/svg">
<rect x="46.5713" y="21.6735" width="43.6727" height="5.98262" fill="#111827"/>
<path d="M49.1257 26.0724V23.6867H49.5474V24.579H49.5648C49.5866 24.5355 49.6173 24.4893 49.6569 24.4404C49.6965 24.3907 49.7501 24.3483 49.8176 24.3134C49.8852 24.2777 49.9714 24.2598 50.0762 24.2598C50.2145 24.2598 50.3391 24.2951 50.4501 24.3658C50.562 24.4357 50.6505 24.5394 50.7157 24.6768C50.7817 24.8135 50.8148 24.9813 50.8148 25.1801C50.8148 25.3765 50.7825 25.5435 50.7181 25.681C50.6536 25.8184 50.5659 25.9233 50.4548 25.9955C50.3438 26.0677 50.2179 26.1038 50.0774 26.1038C49.9749 26.1038 49.8898 26.0867 49.8223 26.0526C49.7547 26.0184 49.7004 25.9772 49.6592 25.9291C49.6188 25.8802 49.5874 25.8339 49.5648 25.7905H49.5404V26.0724H49.1257ZM49.5392 25.1777C49.5392 25.2934 49.5555 25.3948 49.5881 25.4818C49.6215 25.5687 49.6693 25.6367 49.7314 25.6856C49.7943 25.7338 49.8704 25.7578 49.9597 25.7578C50.0529 25.7578 50.131 25.733 50.1939 25.6833C50.2568 25.6328 50.3041 25.5641 50.336 25.4771C50.3686 25.3894 50.3849 25.2896 50.3849 25.1777C50.3849 25.0667 50.369 24.9681 50.3372 24.8819C50.3053 24.7957 50.2579 24.7281 50.195 24.6792C50.1321 24.6302 50.0537 24.6058 49.9597 24.6058C49.8697 24.6058 49.7932 24.6295 49.7303 24.6768C49.6674 24.7242 49.6196 24.7906 49.587 24.876C49.5551 24.9615 49.5392 25.062 49.5392 25.1777ZM53.941 25.3198V24.2831H54.3627V26.0724H53.9538V25.7543H53.9352C53.8948 25.8545 53.8284 25.9365 53.736 26.0001C53.6443 26.0638 53.5313 26.0957 53.397 26.0957C53.2797 26.0957 53.176 26.0696 53.086 26.0176C52.9967 25.9648 52.9268 25.8883 52.8763 25.7881C52.8258 25.6872 52.8006 25.5652 52.8006 25.4224V24.2831H53.2223V25.3571C53.2223 25.4705 53.2533 25.5606 53.3154 25.6274C53.3776 25.6942 53.4591 25.7276 53.5601 25.7276C53.6222 25.7276 53.6824 25.7124 53.7406 25.6821C53.7989 25.6518 53.8466 25.6068 53.8839 25.547C53.922 25.4864 53.941 25.4107 53.941 25.3198ZM56.4236 26.0724V24.2831H56.8453V26.0724H56.4236ZM56.6356 24.0292C56.5688 24.0292 56.5114 24.007 56.4632 23.9628C56.4151 23.9177 56.391 23.8638 56.391 23.8009C56.391 23.7372 56.4151 23.6832 56.4632 23.6389C56.5114 23.5939 56.5688 23.5714 56.6356 23.5714C56.7032 23.5714 56.7607 23.5939 56.808 23.6389C56.8562 23.6832 56.8803 23.7372 56.8803 23.8009C56.8803 23.8638 56.8562 23.9177 56.808 23.9628C56.7607 24.007 56.7032 24.0292 56.6356 24.0292ZM59.3279 23.6867V26.0724H58.9063V23.6867H59.3279ZM62.0529 26.1038C61.9123 26.1038 61.7865 26.0677 61.6755 25.9955C61.5644 25.9233 61.4767 25.8184 61.4122 25.681C61.3477 25.5435 61.3155 25.3765 61.3155 25.1801C61.3155 24.9813 61.3481 24.8135 61.4134 24.6768C61.4794 24.5394 61.5683 24.4357 61.6801 24.3658C61.7919 24.2951 61.9166 24.2598 62.054 24.2598C62.1589 24.2598 62.2451 24.2777 62.3126 24.3134C62.3802 24.3483 62.4338 24.3907 62.4734 24.4404C62.513 24.4893 62.5437 24.5355 62.5654 24.579H62.5829V23.6867H63.0057V26.0724H62.591V25.7905H62.5654C62.5437 25.8339 62.5122 25.8802 62.4711 25.9291C62.4299 25.9772 62.3755 26.0184 62.308 26.0526C62.2404 26.0867 62.1554 26.1038 62.0529 26.1038ZM62.1705 25.7578C62.2598 25.7578 62.3359 25.7338 62.3988 25.6856C62.4617 25.6367 62.5095 25.5687 62.5421 25.4818C62.5747 25.3948 62.591 25.2934 62.591 25.1777C62.591 25.062 62.5747 24.9615 62.5421 24.876C62.5103 24.7906 62.4629 24.7242 62.4 24.6768C62.3379 24.6295 62.2614 24.6058 62.1705 24.6058C62.0766 24.6058 61.9981 24.6302 61.9352 24.6792C61.8723 24.7281 61.8249 24.7957 61.7931 24.8819C61.7613 24.9681 61.7453 25.0667 61.7453 25.1777C61.7453 25.2896 61.7613 25.3894 61.7931 25.4771C61.8257 25.5641 61.8735 25.6328 61.9364 25.6833C62.0001 25.733 62.0781 25.7578 62.1705 25.7578ZM65.0824 26.0724V24.2831H65.5041V26.0724H65.0824ZM65.2944 24.0292C65.2276 24.0292 65.1702 24.007 65.122 23.9628C65.0739 23.9177 65.0498 23.8638 65.0498 23.8009C65.0498 23.7372 65.0739 23.6832 65.122 23.6389C65.1702 23.5939 65.2276 23.5714 65.2944 23.5714C65.362 23.5714 65.4195 23.5939 65.4668 23.6389C65.515 23.6832 65.5391 23.7372 65.5391 23.8009C65.5391 23.8638 65.515 23.9177 65.4668 23.9628C65.4195 24.007 65.362 24.0292 65.2944 24.0292ZM67.9867 25.024V26.0724H67.5651V24.2831H67.9681V24.5871H67.9891C68.0302 24.487 68.0959 24.4074 68.1859 24.3483C68.2768 24.2893 68.389 24.2598 68.5226 24.2598C68.6461 24.2598 68.7536 24.2862 68.8453 24.339C68.9377 24.3918 69.0091 24.4683 69.0596 24.5685C69.1108 24.6687 69.1361 24.7902 69.1353 24.9331V26.0724H68.7136V24.9983C68.7136 24.8787 68.6826 24.7852 68.6204 24.7176C68.5591 24.65 68.474 24.6163 68.3653 24.6163C68.2916 24.6163 68.2259 24.6326 68.1685 24.6652C68.1118 24.697 68.0671 24.7432 68.0345 24.8038C68.0027 24.8644 67.9867 24.9378 67.9867 25.024ZM71.9694 26.7806C71.818 26.7806 71.6879 26.76 71.5792 26.7189C71.4705 26.6785 71.3831 26.6241 71.3171 26.5558C71.2511 26.4874 71.2053 26.4117 71.1797 26.3286L71.5594 26.2366C71.5765 26.2716 71.6013 26.3061 71.634 26.3403C71.6666 26.3752 71.7105 26.404 71.7656 26.4265C71.8215 26.4498 71.8918 26.4614 71.9764 26.4614C72.096 26.4614 72.195 26.4323 72.2735 26.3741C72.3519 26.3166 72.3911 26.2218 72.3911 26.0898V25.7509H72.3702C72.3484 25.7943 72.3166 25.839 72.2746 25.8848C72.2335 25.9306 72.1787 25.9691 72.1104 26.0001C72.0428 26.0312 71.9578 26.0467 71.8553 26.0467C71.7178 26.0467 71.5932 26.0145 71.4814 25.95C71.3703 25.8848 71.2818 25.7877 71.2158 25.6588C71.1505 25.5291 71.1179 25.3668 71.1179 25.1719C71.1179 24.9754 71.1505 24.8096 71.2158 24.6745C71.2818 24.5386 71.3707 24.4357 71.4825 24.3658C71.5944 24.2951 71.719 24.2598 71.8565 24.2598C71.9613 24.2598 72.0475 24.2777 72.1151 24.3134C72.1834 24.3483 72.2378 24.3907 72.2781 24.4404C72.3185 24.4893 72.3492 24.5355 72.3702 24.579H72.3935V24.2831H72.8093V26.1015C72.8093 26.2545 72.7728 26.381 72.6998 26.4812C72.6268 26.5814 72.527 26.6563 72.4004 26.706C72.2739 26.7557 72.1302 26.7806 71.9694 26.7806ZM71.9729 25.7159C72.0622 25.7159 72.1384 25.6942 72.2013 25.6507C72.2642 25.6072 72.3119 25.5447 72.3445 25.4631C72.3772 25.3816 72.3935 25.2837 72.3935 25.1696C72.3935 25.057 72.3772 24.9583 72.3445 24.8737C72.3127 24.7891 72.2653 24.7234 72.2024 24.6768C72.1403 24.6295 72.0638 24.6058 71.9729 24.6058C71.879 24.6058 71.8005 24.6302 71.7376 24.6792C71.6747 24.7281 71.6274 24.7953 71.5955 24.8807C71.5637 24.9653 71.5478 25.0616 71.5478 25.1696C71.5478 25.2791 71.5637 25.375 71.5955 25.4573C71.6281 25.5388 71.6759 25.6025 71.7388 25.6483C71.8025 25.6934 71.8805 25.7159 71.9729 25.7159ZM78.0903 26.1073C77.9117 26.1073 77.7583 26.0681 77.6302 25.9897C77.5028 25.9112 77.4046 25.8029 77.3354 25.6647C77.2671 25.5256 77.2329 25.3657 77.2329 25.1847C77.2329 25.003 77.2679 24.8426 77.3378 24.7036C77.4077 24.5638 77.5063 24.4551 77.6336 24.3775C77.7618 24.299 77.9132 24.2598 78.0879 24.2598C78.2332 24.2598 78.3617 24.2866 78.4735 24.3402C78.5861 24.393 78.6758 24.4679 78.7426 24.565C78.8094 24.6613 78.8474 24.7739 78.8568 24.9028H78.4537C78.4374 24.8166 78.3986 24.7448 78.3372 24.6873C78.2767 24.6291 78.1955 24.6 78.0938 24.6C78.0076 24.6 77.9319 24.6233 77.8666 24.6698C77.8014 24.7157 77.7505 24.7817 77.714 24.8679C77.6783 24.9541 77.6604 25.0574 77.6604 25.1777C77.6604 25.2997 77.6783 25.4045 77.714 25.4922C77.7497 25.5792 77.7998 25.6464 77.8643 25.6938C77.9295 25.7404 78.006 25.7637 78.0938 25.7637C78.1559 25.7637 78.2114 25.752 78.2603 25.7287C78.3101 25.7046 78.3516 25.6701 78.385 25.625C78.4184 25.58 78.4413 25.5253 78.4537 25.4608H78.8568C78.8467 25.5874 78.8094 25.6996 78.7449 25.7974C78.6805 25.8945 78.5927 25.9706 78.4817 26.0258C78.3706 26.0801 78.2402 26.1073 78.0903 26.1073ZM80.7972 26.1073C80.6224 26.1073 80.471 26.0689 80.3429 25.992C80.2147 25.9151 80.1153 25.8075 80.0446 25.6693C79.9748 25.5311 79.9398 25.3695 79.9398 25.1847C79.9398 24.9999 79.9748 24.838 80.0446 24.699C80.1153 24.56 80.2147 24.452 80.3429 24.3751C80.471 24.2983 80.6224 24.2598 80.7972 24.2598C80.9719 24.2598 81.1233 24.2983 81.2515 24.3751C81.3796 24.452 81.4786 24.56 81.5485 24.699C81.6192 24.838 81.6545 24.9999 81.6545 25.1847C81.6545 25.3695 81.6192 25.5311 81.5485 25.6693C81.4786 25.8075 81.3796 25.9151 81.2515 25.992C81.1233 26.0689 80.9719 26.1073 80.7972 26.1073ZM80.7995 25.7695C80.8942 25.7695 80.9734 25.7435 81.0371 25.6914C81.1008 25.6386 81.1482 25.568 81.1792 25.4794C81.2111 25.3909 81.227 25.2923 81.227 25.1836C81.227 25.0741 81.2111 24.975 81.1792 24.8865C81.1482 24.7972 81.1008 24.7262 81.0371 24.6733C80.9734 24.6205 80.8942 24.5941 80.7995 24.5941C80.7024 24.5941 80.6216 24.6205 80.5572 24.6733C80.4935 24.7262 80.4458 24.7972 80.4139 24.8865C80.3828 24.975 80.3673 25.0741 80.3673 25.1836C80.3673 25.2923 80.3828 25.3909 80.4139 25.4794C80.4458 25.568 80.4935 25.6386 80.5572 25.6914C80.6216 25.7435 80.7024 25.7695 80.7995 25.7695ZM82.8261 26.0724V24.2831H83.2349V24.5813H83.2536C83.2862 24.478 83.3421 24.3984 83.4213 24.3425C83.5013 24.2858 83.5926 24.2575 83.6951 24.2575C83.7184 24.2575 83.7444 24.2586 83.7731 24.261C83.8026 24.2625 83.8271 24.2652 83.8465 24.2691V24.657C83.8286 24.6508 83.8003 24.6454 83.7615 24.6407C83.7234 24.6353 83.6865 24.6326 83.6508 24.6326C83.5739 24.6326 83.5048 24.6493 83.4435 24.6827C83.3829 24.7153 83.3351 24.7607 83.3002 24.819C83.2652 24.8772 83.2478 24.9444 83.2478 25.0205V26.0724H82.8261ZM84.9403 26.7433V24.2831H85.355V24.579H85.3795C85.4012 24.5355 85.4319 24.4893 85.4715 24.4404C85.5111 24.3907 85.5647 24.3483 85.6323 24.3134C85.6998 24.2777 85.786 24.2598 85.8909 24.2598C86.0291 24.2598 86.1537 24.2951 86.2648 24.3658C86.3766 24.4357 86.4651 24.5394 86.5304 24.6768C86.5964 24.8135 86.6294 24.9813 86.6294 25.1801C86.6294 25.3765 86.5972 25.5435 86.5327 25.681C86.4682 25.8184 86.3805 25.9233 86.2694 25.9955C86.1584 26.0677 86.0326 26.1038 85.892 26.1038C85.7895 26.1038 85.7045 26.0867 85.6369 26.0526C85.5694 26.0184 85.515 25.9772 85.4738 25.9291C85.4334 25.8802 85.402 25.8339 85.3795 25.7905H85.362V26.7433H84.9403ZM85.3538 25.1777C85.3538 25.2934 85.3702 25.3948 85.4028 25.4818C85.4362 25.5687 85.4839 25.6367 85.5461 25.6856C85.609 25.7338 85.6851 25.7578 85.7744 25.7578C85.8676 25.7578 85.9456 25.733 86.0085 25.6833C86.0714 25.6328 86.1188 25.5641 86.1506 25.4771C86.1832 25.3894 86.1995 25.2896 86.1995 25.1777C86.1995 25.0667 86.1836 24.9681 86.1518 24.8819C86.1199 24.7957 86.0726 24.7281 86.0097 24.6792C85.9468 24.6302 85.8683 24.6058 85.7744 24.6058C85.6843 24.6058 85.6078 24.6295 85.5449 24.6768C85.482 24.7242 85.4342 24.7906 85.4016 24.876C85.3698 24.9615 85.3538 25.062 85.3538 25.1777ZM88.0639 26.098C87.9933 26.098 87.9327 26.0731 87.8822 26.0234C87.8317 25.9737 87.8069 25.9132 87.8077 25.8417C87.8069 25.7718 87.8317 25.712 87.8822 25.6623C87.9327 25.6126 87.9933 25.5878 88.0639 25.5878C88.1323 25.5878 88.1917 25.6126 88.2422 25.6623C88.2934 25.712 88.3194 25.7718 88.3202 25.8417C88.3194 25.8891 88.307 25.9322 88.2829 25.971C88.2596 26.0098 88.2286 26.0409 88.1897 26.0642C88.1517 26.0867 88.1097 26.098 88.0639 26.098Z" fill="white"/>
<rect x="46.5713" y="2.69165" width="43.8318" height="14.1354" fill="#111827"/>
<path d="M49.7231 13.2685V5.00506H50.2051V8.89575H55.209V5.00506H55.6911V13.2685H55.209V9.37778H50.2051V13.2685H49.7231ZM58.2293 16.0229L59.4344 12.7864L59.4458 13.7505L56.7258 7.07091H57.2537L59.6868 13.0848H59.3196L61.5002 7.07091H62.0167L58.7687 16.0229H58.2293ZM62.9906 9.89424V9.41221H66.4337V9.89424H62.9906ZM67.9248 13.2685V5.00506H68.3839L71.8958 12.6831L75.3733 5.00506H75.8554V13.257H75.3733V6.16423L72.1598 13.2685H71.6204L68.4068 6.16423V13.2685H67.9248ZM79.2646 13.4406C78.7826 13.4406 78.3828 13.3565 78.0653 13.1881C77.7478 13.0198 77.5106 12.7979 77.3537 12.5225C77.1969 12.247 77.1184 11.9486 77.1184 11.6273C77.1184 11.2638 77.1969 10.9635 77.3537 10.7263C77.5144 10.4853 77.7229 10.2959 77.9792 10.1582C78.2355 10.0205 78.511 9.92102 78.8056 9.85981C79.1652 9.78712 79.5496 9.724 79.959 9.67044C80.3722 9.61306 80.7528 9.56523 81.1009 9.52698C81.4491 9.48872 81.7092 9.45812 81.8814 9.43516L81.7092 9.54993C81.7284 8.81923 81.5945 8.27599 81.3075 7.92021C81.0244 7.56059 80.5233 7.38079 79.8041 7.38079C79.2838 7.38079 78.8649 7.49747 78.5473 7.73084C78.2336 7.96037 78.0137 8.31425 77.8874 8.79245L77.3595 8.65473C77.4972 8.08088 77.7784 7.64476 78.203 7.34636C78.6315 7.04796 79.1728 6.89876 79.827 6.89876C80.4009 6.89876 80.8791 7.01544 81.2616 7.2488C81.6442 7.48217 81.9043 7.79778 82.0421 8.19565C82.0956 8.34868 82.1339 8.53422 82.1568 8.75228C82.1798 8.97035 82.1913 9.18267 82.1913 9.38925V13.2685H81.7437V11.5699L81.9732 11.5814C81.8087 12.1705 81.4816 12.6277 80.9919 12.9528C80.5022 13.278 79.9265 13.4406 79.2646 13.4406ZM79.2417 12.9586C79.6893 12.9586 80.0833 12.8782 80.4238 12.7176C80.7681 12.5569 81.0455 12.3254 81.2559 12.0232C81.4701 11.7172 81.6059 11.3518 81.6633 10.9272C81.6939 10.7129 81.7092 10.4834 81.7092 10.2385C81.7092 9.99371 81.7092 9.81773 81.7092 9.71061L81.9617 9.90572C81.759 9.92485 81.4778 9.95163 81.1182 9.98606C80.7624 10.0167 80.3856 10.0587 79.9877 10.1123C79.5898 10.162 79.2302 10.2271 78.9089 10.3074C78.7214 10.3533 78.5282 10.426 78.3293 10.5255C78.1303 10.6249 77.962 10.7646 77.8243 10.9444C77.6904 11.1242 77.6234 11.3556 77.6234 11.6387C77.6234 11.8377 77.6732 12.0385 77.7726 12.2413C77.8721 12.444 78.0385 12.6143 78.2719 12.752C78.5091 12.8897 78.8323 12.9586 79.2417 12.9586ZM82.9946 13.2685L85.5195 10.1353L83.0519 7.07091H83.6487L85.8064 9.77947L87.9526 7.07091H88.5494L86.0819 10.1353L88.6068 13.2685H87.9985L85.8064 10.491L83.6028 13.2685H82.9946Z" fill="white"/>
<path d="M19.729 27.7316V3.09555H21.1333L31.5043 23.4909L41.7831 3.13466H43.2104V27.7316H41.7831V6.59054L32.0913 25.9142H30.5259L21.1562 6.59054L21.1333 27.7316H19.729Z" fill="#111827"/>
<path d="M0 27.7316V3.09555H1.70691V14.695H19.4263V3.09555H21.1332V27.7316H19.4263V16.1321H1.70691V27.7316H0Z" fill="#111827"/>
</svg>
