<svg width="95" height="20" viewBox="0 0 95 20" fill="none" xmlns="http://www.w3.org/2000/svg">
<g clip-path="url(#clip0_6263_551058)">
<path d="M68.886 0.632159C68.8255 0.335544 68.6264 0.140403 68.2635 0.144306C67.2565 0.156015 66.2477 0.148209 65.2407 0.132598C64.8856 0.126743 64.6631 0.325787 64.6182 0.616547C64.5773 0.885842 64.7919 1.04976 65.0827 1.14343C65.754 1.35808 66.0408 1.88496 66.0584 2.5582C66.1091 4.47253 66.152 6.38687 66.1872 8.29925C66.1911 8.50805 66.2555 8.7832 65.9511 8.86516C65.6369 8.94907 65.5959 8.63489 65.4808 8.47683C63.8025 6.16441 62.1282 3.85199 60.4734 1.52395C59.5348 0.202848 58.4947 -0.212802 56.8946 0.148209C56.6214 0.210654 56.3579 0.345301 56.3072 0.589227C56.2506 0.874133 56.5004 1.0322 56.7755 1.11611C57.7102 1.39906 57.9522 2.10352 57.9483 2.99141C57.9366 5.29603 57.9366 7.60064 57.96 9.90721C57.9698 10.8263 57.7415 11.5405 56.7638 11.8391C56.5277 11.9113 56.2623 12.0635 56.3443 12.3933C56.4204 12.6958 56.6662 12.7621 56.9531 12.7524C57.96 12.7211 58.967 12.7016 59.9719 12.6724C60.1944 12.6665 60.4617 12.6841 60.4871 12.366C60.5086 12.0908 60.4461 11.8508 60.0968 11.8118C59.408 11.7318 59.2284 11.2303 59.1953 10.6507C59.1328 9.5501 59.0938 8.4456 59.0372 7.13621C59.0372 6.56445 59.004 5.78388 59.0489 5.00722C59.0743 4.55449 58.7484 3.86369 59.2499 3.70368C59.6538 3.57488 59.9095 4.2813 60.1749 4.64035C62.0248 7.14792 63.8435 9.6789 65.6603 12.2079C65.9803 12.6528 66.3238 13.0295 66.9268 12.848C67.5746 12.6548 67.2917 12.0928 67.2936 11.6927C67.3209 8.64075 67.3287 5.59069 67.317 2.53869C67.3151 1.7913 67.5746 1.28198 68.3357 1.12782C68.6381 1.06732 68.9621 1.04391 68.8782 0.632159H68.886Z" fill="currentColor"/>
<path d="M94.8221 1.10051C94.8319 0.364827 94.5372 0.0721159 93.7664 0.0955328C92.1429 0.14627 90.5173 0.111144 88.8918 0.111144C87.2019 0.111144 85.512 0.124804 83.822 0.103338C83.3576 0.0974843 83.0649 0.21652 83.0473 0.712178C83.02 1.45762 83.0025 2.2011 82.9985 2.94654C82.9966 3.25487 83.2054 3.42464 83.4903 3.42854C83.744 3.43244 83.8435 3.25877 83.9177 2.99923C84.4348 1.21564 84.8036 1.02245 86.6828 1.04977C87.6624 1.06343 87.8946 1.48884 87.8829 2.36307C87.8498 4.896 87.8459 7.42893 87.8849 9.95991C87.9005 10.9512 87.5434 11.5835 86.5618 11.7903C86.3003 11.845 86.1189 11.9445 86.1032 12.1962C86.0798 12.5631 86.3803 12.567 86.6399 12.6021C88.162 12.8012 89.6919 12.6802 91.2159 12.7173C91.5711 12.7251 91.8111 12.5182 91.8716 12.2528C91.9536 11.8879 91.6374 11.7962 91.3213 11.7357C90.5134 11.5796 90.1173 11.0468 90.1017 10.2487C90.0509 7.4582 90.0197 4.66574 89.9748 1.87522C89.969 1.56104 90.0334 1.32297 90.3573 1.17271C91.7799 0.513135 93.5576 1.33468 93.9147 2.85678C93.9928 3.19242 94.1333 3.42074 94.4631 3.40708C94.8495 3.39146 94.8865 3.05777 94.8807 2.7553C94.869 2.20306 94.8124 1.65276 94.8202 1.10246L94.8221 1.10051Z" fill="currentColor"/>
<path d="M31.0169 11.88C29.9007 11.7356 29.8636 10.9102 29.8519 10.0828C29.8226 7.77817 29.8285 5.47551 29.7914 3.1709C29.7739 2.11713 30.0978 1.33852 31.2042 1.05752C31.8599 0.706265 31.5204 0.25744 31.1301 0.191092C30.0763 0.0115627 28.9874 -0.183578 27.9512 0.335497C27.0926 0.981413 26.9697 2.02151 26.597 2.91721C25.9452 4.48224 25.4281 6.11167 24.5538 7.56742C24.265 8.04747 24.4289 9.06025 23.8416 8.95683C23.2269 8.84755 23.1566 7.84257 22.8893 7.23373C21.9877 5.1828 21.1896 3.08698 20.3681 0.998976C20.1612 0.474047 19.7865 0.230121 19.2597 0.239878C18.4166 0.255489 17.5756 0.308177 16.7326 0.358914C16.475 0.374525 16.1901 0.413553 16.1101 0.719925C16.0184 1.06532 16.3794 1.22924 16.5452 1.26632C17.6478 1.51805 17.7044 2.36301 17.718 3.22358C17.7493 5.39355 17.7688 7.56352 17.7766 9.73154C17.7824 11.4449 17.7532 11.4702 16.1062 12.0225C15.5247 12.0401 15.5481 12.6216 15.1734 12.8792C15.5715 13.0567 15.8135 12.8694 16.071 12.764C17.2946 13.0138 18.5298 12.8714 19.7612 12.8538C20.0773 12.8499 20.4344 12.7679 20.5027 12.3581C20.5534 12.0537 20.2978 11.9503 20.0812 11.9308C18.885 11.8332 18.8284 10.9043 18.8713 10.0945C18.9728 8.21334 18.8752 6.33608 18.9377 4.45687C18.9455 4.22856 18.8245 3.93585 19.1738 3.76803C19.806 5.13792 20.3056 6.54683 20.9769 7.88745C21.6462 9.22807 22.0736 10.6877 22.6454 12.081C22.7663 12.3776 22.8385 12.8187 23.2698 12.8499C23.7167 12.8811 23.7752 12.4674 23.9138 12.161C24.0855 11.7825 24.2865 11.4176 24.4367 11.0331C25.4027 8.55093 26.7062 6.21705 27.6663 3.70558C27.7815 5.69017 27.7132 7.65524 27.8068 9.61445C27.8654 10.8595 27.7171 11.8469 26.3374 12.2196C26.312 12.2274 26.3101 12.3211 26.2925 12.3991C26.3843 12.4772 26.4701 12.6099 26.5794 12.6333C28.0586 12.9338 29.5553 12.7621 31.0462 12.7679C31.2647 12.7679 31.4208 12.6255 31.456 12.4186C31.5126 12.0966 31.2706 11.9093 31.0228 11.8781L31.0169 11.88Z" fill="currentColor"/>
<path d="M81.0101 9.45446L80.9847 9.47007C81.0042 9.23395 80.9008 9.10516 80.6588 9.0954C80.3993 9.08565 80.21 9.15785 80.2061 9.46227C79.8978 10.1745 79.8646 11.119 78.9786 11.3942C77.921 11.722 76.8243 11.7903 75.7178 11.4898C75.0992 11.322 74.7616 10.9531 74.7343 10.3599C74.6855 9.2925 74.6992 8.22117 74.6894 7.1518C74.6855 6.69712 74.9002 6.47466 75.3529 6.6054C76.1023 6.82396 76.9804 6.84543 77.2634 7.82894C77.3238 8.03969 77.3609 8.42022 77.718 8.35192C78.0673 8.28362 78.0927 7.94407 78.0947 7.64746C78.1005 6.83762 78.12 6.02584 78.0869 5.216C78.0693 4.79255 78.3054 4.17005 77.7805 4.01003C77.2341 3.84416 77.2712 4.53106 77.0448 4.83938C76.5394 5.53018 75.7666 5.67068 75.0426 5.52823C74.4162 5.40334 74.748 4.72425 74.6933 4.28908C74.6446 3.90661 74.6836 3.51242 74.6836 3.12214C74.6836 0.77069 74.508 1.14536 76.6291 1.14731C77.962 1.14731 79.3592 1.11414 79.7299 2.89773C79.7846 3.16507 80.0441 3.41875 80.3934 3.10458C80.7642 2.77089 80.4422 0.306255 79.9953 0.128677C79.9387 0.10526 79.8665 0.113065 79.8021 0.113065C77.2048 0.120871 74.6075 0.116968 72.0121 0.144288C71.4403 0.150142 71.214 0.477979 71.4521 1.04194C72.3868 1.23513 72.7224 1.87909 72.7419 2.75918C72.7419 2.7865 72.7712 2.81382 72.7868 2.84114C72.7868 5.37407 72.7829 7.90504 72.781 10.438C72.6463 10.7541 72.5917 11.0995 72.4024 11.3942C72.2073 11.4859 72.178 11.7669 71.8892 11.7805C71.616 11.7923 71.2335 11.7962 71.2569 12.2079C71.2784 12.5982 71.6082 12.7328 71.9516 12.727C74.7929 12.6743 77.6322 12.6079 80.4715 12.5416C80.5222 12.5416 80.571 12.4674 80.6198 12.4284C80.8891 12.1396 80.8442 11.7454 80.9593 11.4059L81.0101 11.4254C81.1837 10.7697 81.4979 10.1121 81.0101 9.45642V9.45446Z" fill="currentColor"/>
<path d="M53.2805 11.7767C52.738 11.7845 52.3712 11.4879 52.3634 10.9805C52.3204 8.03585 52.0316 5.08922 52.3419 2.14454C52.3907 1.68596 52.5975 1.28787 53.1381 1.17079C53.4093 1.11225 53.7684 1.02834 53.6415 0.618541C53.5518 0.325829 53.3078 0.150203 52.9781 0.150203C51.8092 0.148251 50.6422 0.1463 49.4733 0.150203C49.1494 0.150203 48.9191 0.286801 48.843 0.630249C48.7552 1.02639 49.0499 1.19811 49.3094 1.24299C50.2285 1.3991 50.2597 2.04307 50.2558 2.76119C50.2441 5.32144 50.2344 7.88364 50.2539 10.4439C50.2578 11.0352 50.1017 11.4918 49.5885 11.804C49.2528 11.7806 48.8957 11.7162 48.8137 12.1963C48.7611 12.6431 49.0323 12.7583 49.4011 12.7505C50.6656 12.7251 51.9301 12.6978 53.1947 12.6665C53.4854 12.6587 53.8445 12.6665 53.862 12.2802C53.8777 11.9484 53.6259 11.7728 53.2805 11.7767Z" fill="currentColor"/>
<path d="M46.4603 0.60296C46.4116 0.429284 46.3042 0.185358 46.0954 0.197066C44.9675 0.25756 43.8279 0.085836 42.7117 0.331714C42.4912 0.380499 42.1575 0.458555 42.1809 0.800052C42.2004 1.06935 42.456 1.15911 42.6805 1.18253C43.4493 1.26644 43.5781 1.82454 43.5957 2.42558C43.6503 4.39845 43.6835 6.37328 43.7147 8.34616C43.7186 8.54715 43.8376 8.83791 43.4942 8.8906C43.2659 8.92572 43.141 8.73253 43.0493 8.57057C41.613 6.02983 39.5699 3.9145 38.0439 1.43426C37.318 0.255609 35.4973 -0.187361 34.2465 0.45075C33.9869 0.583446 33.8464 0.68687 34.1684 0.897623C34.3479 1.17667 34.5938 1.33864 34.9373 1.31913C35.2827 1.79917 35.5578 2.31239 35.5559 2.92123C35.5422 5.54978 35.5207 8.17833 35.5012 10.8069C35.1129 10.842 35.1266 11.1191 35.1441 11.3982C34.9802 11.6987 34.6777 11.8372 34.3967 11.9836C34.1743 12.1007 33.823 12.126 33.9206 12.4617C34.0006 12.7349 34.3401 12.7427 34.5919 12.7485C35.5656 12.7759 36.5394 12.7876 37.5131 12.7856C37.7492 12.7856 38.0654 12.8598 38.122 12.4792C38.1766 12.1202 37.9717 11.9036 37.6575 11.8489C36.9023 11.7143 36.7677 11.1074 36.7482 10.5473C36.676 8.44177 36.6721 6.33425 36.6467 4.22673C36.6447 4.03744 36.6155 3.81303 36.8633 3.74668C37.1072 3.68033 37.197 3.89304 37.3063 4.0433C38.6196 5.85811 39.9153 7.68463 41.2481 9.48383C42.1458 10.6957 42.9771 11.966 44.1206 12.9788C44.466 13.213 44.7821 13.3437 44.8875 12.7563C45.2583 12.4968 45.0944 12.1085 45.0963 11.7787C45.108 8.83206 45.1041 5.88543 45.0963 2.9388C45.0963 2.48217 45.1217 2.03529 45.2544 1.59818C45.4163 1.16692 45.8769 1.34059 46.1618 1.15131C46.3686 1.01276 46.5267 0.844934 46.4584 0.599057L46.4603 0.60296Z" fill="currentColor"/>
<path d="M8.66348 0.345467C5.61537 -0.587307 1.72426 1.98075 1.20128 4.57222C0.664646 5.29815 0.773925 6.11969 0.842224 6.93538C0.674403 8.02036 1.1525 8.94533 1.61303 9.85664C2.35457 11.3261 3.82203 11.9544 5.11776 12.7759C6.48375 13.1038 7.84974 13.2814 9.21768 12.7896C9.47331 12.6686 9.71724 12.5008 9.98848 12.4364C11.9633 11.9642 13.7976 8.6936 13.8015 6.7578C13.8074 3.7819 11.6882 1.26653 8.66543 0.343516L8.66348 0.345467ZM10.8998 9.48197C10.1524 11.006 8.52688 12.0422 6.9033 11.8178C4.99482 11.5544 3.96448 10.7777 3.35174 8.68775C3.13513 7.32176 2.97512 5.95772 3.35564 4.59369C3.62493 3.97704 3.76739 3.25112 4.18694 2.76522C5.81832 0.876251 9.01278 0.782583 10.4646 3.13598C11.6569 5.06788 11.9809 7.27492 10.8998 9.48197Z" fill="currentColor"/>
<path d="M93.0776 18.8235C92.6853 18.8235 92.2951 18.8235 91.9028 18.8255C91.1906 18.8235 90.4763 18.8216 89.7641 18.8177C89.1162 18.8157 88.4664 18.8137 87.8185 18.8118C87.0106 18.7572 86.2047 18.6732 85.3968 18.6537C80.9203 18.5523 76.4438 18.482 71.9692 18.3708C64.7685 18.1912 57.5678 18.2244 50.3651 18.2595C50.3632 18.3278 50.3788 18.3844 50.41 18.4274H50.3671C50.3671 18.3708 50.3671 18.3161 50.3632 18.2595C48.7103 18.2498 47.0555 18.2283 45.4027 18.2303C39.0782 18.2361 32.7556 18.2478 26.4311 18.2576C26.2047 18.2439 25.9783 18.2205 25.752 18.2166C19.0372 18.0878 12.3263 18.4762 5.61147 18.4723C4.68846 18.4723 3.68153 18.4332 2.76827 18.8079C2.64143 18.8118 2.51459 18.8157 2.38774 18.8196C2.21407 18.8333 1.97405 18.7533 1.90575 18.966C1.83354 19.1884 2.05991 19.167 2.20041 19.1962C2.3975 19.1943 2.59264 19.1904 2.78973 19.1884C2.98683 19.1845 3.18197 19.1826 3.37906 19.1787C3.83179 19.1767 4.28256 19.1748 4.73529 19.1728C4.93238 19.1728 5.13143 19.1728 5.32852 19.1728C5.3656 19.1435 5.40658 19.1279 5.45146 19.1182L5.32852 19.1728C5.78125 19.1767 6.23397 19.1806 6.68475 19.1845C6.81159 19.1845 6.93648 19.1845 7.06332 19.1845C7.4536 19.1884 7.84389 19.1923 8.23222 19.1962C9.12596 19.2099 10.0217 19.2216 10.9154 19.2353C10.9154 19.2353 10.9154 19.2353 10.9174 19.2353C12.3536 19.4831 13.8035 19.4811 15.2534 19.4753C15.2534 19.4753 15.2534 19.4753 15.2553 19.4753C15.5071 19.5924 17.1931 19.7387 18.1668 19.7816C17.9737 19.7953 17.7805 19.8207 17.5951 19.7895C18.0068 20.1622 18.5064 19.9085 18.9611 19.9826C18.842 19.8734 18.7132 19.8187 18.5825 19.7934C21.857 19.8285 25.1314 19.8441 28.4059 19.8558C44.8387 19.9104 61.2715 19.9222 77.7044 19.7797C78.3444 19.7738 78.9942 19.7524 79.6226 19.5846C80.0558 19.5807 80.489 19.5768 80.9222 19.5709C84.1128 19.5787 87.3034 19.5846 90.4939 19.5963C90.8315 19.5963 91.1398 19.567 91.3252 19.2314C91.452 19.2138 91.5789 19.1982 91.7057 19.1806C92.2248 19.1845 92.7439 19.1884 93.261 19.1923C93.5322 19.1377 93.8757 19.3816 94.0826 19.0011C93.7801 18.7064 93.4132 18.8411 93.0737 18.8196L93.0776 18.8235ZM84.2806 19.2548C84.2806 19.2548 84.2806 19.2431 84.2806 19.2372H84.3392C84.3196 19.2431 84.3001 19.2489 84.2806 19.2548Z" fill="currentColor"/>
</g>
<defs>
<clipPath id="clip0_6263_551058">
<rect width="94.1009" height="20" fill="currentColor" transform="translate(0.783691)"/>
</clipPath>
</defs>
</svg>
