<svg width="38" height="16" viewBox="0 0 38 16" fill="none" xmlns="http://www.w3.org/2000/svg">
<path d="M24.4478 5.36496V0.149027C24.4478 0.0259177 24.4797 0 24.5947 0C25.4445 0.00647942 26.2942 0.00647942 27.1439 0.00647942C27.3292 0.00647942 27.5081 0.0323971 27.687 0.0777531C28.1087 0.174944 28.3579 0.44708 28.4537 0.868242C28.524 1.17925 28.5559 1.50323 28.5559 1.8272C28.5623 2.51402 28.5879 3.20731 28.5367 3.89413C28.5304 3.99132 28.5176 4.09499 28.4984 4.19218C28.4026 4.7235 28.1534 4.95676 27.6167 5.01507C27.5784 5.02155 27.5145 4.98915 27.5081 5.05395C27.5017 5.13818 27.5784 5.10578 27.6167 5.11226C27.7062 5.1317 27.802 5.13818 27.8915 5.1641C28.2684 5.27425 28.5112 5.56582 28.5304 5.99346C28.5815 7.08849 28.5815 8.18999 28.524 9.28501C28.5112 9.43404 28.492 9.58306 28.4537 9.72561C28.3195 10.3152 28.032 10.5809 27.4506 10.6846C27.2206 10.7234 26.9906 10.7429 26.7542 10.7429H24.5947C24.4734 10.7429 24.4414 10.717 24.4414 10.5874C24.4478 8.84441 24.4542 7.10792 24.4478 5.36496ZM25.7895 7.54205V9.32389C25.7895 9.37572 25.7703 9.43404 25.8598 9.43404C26.192 9.42108 26.5178 9.45995 26.8501 9.40812C27.0417 9.3822 27.1248 9.29797 27.1567 9.11007C27.1695 9.02583 27.1823 8.93512 27.1887 8.85089C27.2334 8.14463 27.227 7.43837 27.2078 6.73212C27.2014 6.47942 27.1951 6.22672 27.112 5.98051C27.0737 5.825 26.9395 5.70837 26.7798 5.68893C26.4923 5.65005 26.1984 5.68245 25.9109 5.66949C25.8023 5.66301 25.7895 5.70189 25.7895 5.79908C25.7895 6.38223 25.7895 6.9589 25.7895 7.54205ZM25.7895 2.8963V4.39305C25.7895 4.4384 25.7575 4.50968 25.8534 4.50968C26.1409 4.5032 26.4348 4.52911 26.7223 4.48376C26.9651 4.44488 27.0545 4.36065 27.112 4.12091C27.1823 3.80342 27.1823 3.48593 27.1887 3.16196C27.2078 2.63712 27.1823 2.11229 27.112 1.58746C27.0801 1.36716 26.9906 1.2894 26.767 1.28293C26.4795 1.27645 26.192 1.27645 25.9109 1.26997C25.8086 1.26349 25.7831 1.29588 25.7831 1.39955C25.7959 1.89847 25.7895 2.39739 25.7895 2.8963Z" fill="#00003D"/>
<path d="M2.30956 0.0067749H3.06346C3.13374 0.0067749 3.15929 0.0262132 3.17207 0.103966C3.42763 1.82101 3.68958 3.53158 3.95153 5.24863C4.18792 6.80369 4.42431 8.35875 4.66709 9.90733C4.70543 10.1471 4.73737 10.3933 4.7757 10.633C4.78848 10.7237 4.76932 10.7497 4.67348 10.7497C4.29653 10.7432 3.91958 10.7432 3.54902 10.7497C3.42763 10.7497 3.42124 10.6913 3.40846 10.6071C3.3318 10.0304 3.24874 9.44729 3.17207 8.87062C3.15929 8.79287 3.13374 8.76695 3.05707 8.76695C2.59706 8.77343 2.13706 8.77343 1.67705 8.76695C1.58122 8.76695 1.55566 8.79935 1.54927 8.89006C1.48538 9.46673 1.40871 10.0434 1.34482 10.6201C1.33205 10.7173 1.31288 10.7626 1.20427 10.7561C0.833705 10.7497 0.463144 10.7497 0.0925834 10.7561C0.0159156 10.7561 -0.00964029 10.7432 0.00313767 10.6525C0.150084 9.63519 0.284253 8.61792 0.42481 7.60066C0.55259 6.65466 0.686758 5.70866 0.814538 4.76267C0.942318 3.83611 1.0701 2.91603 1.19788 1.98948C1.28093 1.36745 1.37038 0.751908 1.45344 0.129884C1.46621 0.0456514 1.49177 0.0197337 1.58122 0.0197337C1.81761 0.0132543 2.06678 0.0067749 2.30956 0.0067749ZM2.3415 7.46459H2.89096C2.96124 7.46459 2.9804 7.44515 2.96762 7.3674C2.84623 6.51859 2.73123 5.66979 2.60345 4.82746C2.47567 3.9333 2.34789 3.04562 2.36067 2.1385C2.36067 2.09315 2.399 2.02187 2.30317 2.02187C2.20734 2.02187 2.2265 2.09315 2.23289 2.14498C2.24567 3.29832 2.08595 4.43222 1.939 5.56612C1.86233 6.16222 1.79205 6.76481 1.71538 7.36092C1.70261 7.44515 1.72816 7.47107 1.81122 7.47107C1.99011 7.45811 2.169 7.46459 2.3415 7.46459Z" fill="#00003D"/>
<path d="M31.5771 10.0954C31.4685 10.2509 31.3471 10.3999 31.2193 10.5424C30.721 11.0154 29.769 10.9182 29.4496 10.3545C29.3282 10.1278 29.2707 9.87506 29.2835 9.62236C29.2835 9.02625 29.2963 8.43663 29.2835 7.84052C29.2707 7.24441 29.5135 6.82325 29.9991 6.51872C30.3824 6.27898 30.7657 6.03276 31.1491 5.79302C31.181 5.77359 31.2066 5.75415 31.2385 5.73471C31.5452 5.55329 31.7049 5.30707 31.6602 4.92478C31.6282 4.63321 31.6538 4.32868 31.6538 4.03062C31.6474 3.55762 31.2832 3.31789 30.8552 3.51227C30.6699 3.5965 30.606 3.76497 30.606 3.95935V5.09973C30.606 5.17748 30.5996 5.22284 30.4974 5.21636C30.1588 5.20988 29.8202 5.21636 29.4752 5.21636C29.4304 5.21636 29.3665 5.24227 29.3665 5.15156C29.3793 4.67856 29.3218 4.19909 29.4049 3.72609C29.5263 3.01983 29.8904 2.65698 30.5804 2.51444C30.9957 2.4302 31.4238 2.44316 31.8263 2.55331C32.4013 2.7153 32.7591 3.14942 32.8166 3.75201C32.8358 3.92047 32.8421 4.08894 32.8421 4.2574V9.53813C32.8421 9.92689 32.8677 10.3092 33.021 10.672C33.053 10.7368 33.0338 10.7563 32.9635 10.7563H31.8519C31.7816 10.7563 31.7624 10.7239 31.7432 10.6655C31.6794 10.4712 31.6219 10.2833 31.5771 10.0954ZM31.6474 6.69366C31.3855 6.90101 31.1363 7.06947 30.8807 7.24441C30.6124 7.41936 30.4527 7.72389 30.4718 8.04786C30.4782 8.35887 30.4718 8.66341 30.4718 8.97442C30.4654 9.1364 30.4782 9.29839 30.5102 9.46038C30.5549 9.64828 30.6316 9.81026 30.8296 9.84914C31.0341 9.90746 31.2513 9.8297 31.3855 9.66124C31.5132 9.49277 31.5899 9.29191 31.6155 9.07809C31.673 8.68933 31.641 8.30056 31.6474 7.91179C31.6538 7.52303 31.6474 7.12131 31.6474 6.69366Z" fill="#00003D"/>
<path d="M12.647 10.7365H11.4267C11.3628 10.7365 11.3565 10.6976 11.3373 10.6588C11.2606 10.4773 11.2031 10.283 11.1584 10.0886C11.0178 10.2765 10.8965 10.4644 10.7176 10.6004C10.2576 10.9568 9.45893 10.892 9.11392 10.4709C8.92225 10.2311 8.86475 9.94603 8.85836 9.65445C8.85198 8.96763 8.83281 8.27434 8.87114 7.58752C8.89031 7.20523 9.08837 6.85534 9.40143 6.64152C9.80393 6.34995 10.2384 6.10373 10.6537 5.8316C10.8326 5.72145 10.9987 5.58538 11.1456 5.43635C11.2031 5.37804 11.2351 5.30028 11.2287 5.21605C11.2223 4.82081 11.2223 4.42556 11.2287 4.03032C11.2351 3.499 10.8964 3.38238 10.4876 3.47309C10.2703 3.51844 10.1681 3.69339 10.1681 3.97848V5.07998C10.1681 5.15774 10.1617 5.20309 10.0595 5.19661C9.72088 5.19013 9.38226 5.19661 9.03726 5.19661C8.98614 5.19661 8.93503 5.20957 8.93503 5.12534C8.94142 4.6653 8.8967 4.19878 8.97337 3.73874C9.09476 3.00009 9.47171 2.61132 10.1809 2.48174C10.6601 2.39102 11.1456 2.41046 11.6056 2.59837C12.0848 2.79275 12.3212 3.17503 12.3915 3.68043C12.4106 3.82946 12.4234 3.97848 12.417 4.12751V9.34344C12.4234 9.82292 12.4426 10.2894 12.647 10.7365ZM11.2351 6.69336C10.9667 6.90718 10.7048 7.08212 10.4492 7.25707C10.1937 7.42553 10.0467 7.72359 10.0595 8.0346C10.0659 8.38449 10.0595 8.73438 10.0595 9.08426C10.0531 9.22681 10.0723 9.36288 10.1042 9.49895C10.2192 9.89419 10.6281 10.0043 10.922 9.71925C11.1392 9.50543 11.1903 9.22681 11.2159 8.94172C11.2542 8.52055 11.2287 8.09939 11.2287 7.67823C11.2351 7.36074 11.2351 7.04325 11.2351 6.69336Z" fill="#00003D"/>
<path d="M21.0927 3.12906C21.2396 2.94763 21.3674 2.7986 21.5271 2.69493C21.9169 2.41632 22.4216 2.37744 22.856 2.5783C23.2586 2.75973 23.3927 3.12906 23.463 3.54374C23.4886 3.72516 23.5013 3.91307 23.4949 4.10097V10.6063C23.4949 10.7165 23.4694 10.7489 23.3544 10.7489C23.0413 10.7424 22.7283 10.7359 22.4152 10.7489C22.2874 10.7553 22.2619 10.71 22.2619 10.5869V4.28239C22.2619 4.1852 22.2555 4.09449 22.2427 3.9973C22.1916 3.67333 21.9552 3.51782 21.6102 3.58261C21.3227 3.63445 21.1566 3.82235 21.1182 4.15928C21.1055 4.28239 21.0991 4.41198 21.0991 4.54157V10.5869C21.0991 10.7229 21.0607 10.7489 20.933 10.7489C20.6391 10.7359 20.3452 10.7424 20.0449 10.7489C19.9299 10.7489 19.8979 10.7229 19.8979 10.5998C19.9043 8.49402 19.9043 6.3882 19.8979 4.28239V2.74677C19.8979 2.64958 19.9107 2.6107 20.0193 2.61718C20.3324 2.62366 20.6455 2.62366 20.9585 2.61718C21.0607 2.61718 21.0927 2.64958 21.0799 2.74677C21.0863 2.85692 21.0927 2.97355 21.0927 3.12906Z" fill="#00003D"/>
<path d="M19.0816 6.62184V9.04514C19.0816 9.29136 19.0496 9.54406 18.9794 9.7838C18.826 10.2892 18.5066 10.6261 18.0082 10.7816C17.5482 10.9242 17.0627 10.9307 16.6027 10.8075C15.9638 10.6456 15.6507 10.1855 15.5421 9.55054C15.4974 9.28488 15.4782 9.01275 15.4846 8.74061C15.4846 7.30866 15.4846 5.88319 15.491 4.45772C15.491 4.16614 15.5357 3.88105 15.6188 3.60243C15.7977 3.03224 16.1682 2.6694 16.7496 2.54629C17.216 2.43614 17.708 2.46205 18.1616 2.61756C18.743 2.83138 18.9985 3.29142 19.0624 3.88105C19.1135 4.38644 19.0816 4.89832 19.088 5.40371C19.0816 5.80543 19.0816 6.21364 19.0816 6.62184ZM17.8996 6.64776V4.15966C17.8996 4.06247 17.8932 3.97176 17.8741 3.87457C17.8485 3.68018 17.7016 3.52468 17.5099 3.49228C17.3885 3.46636 17.2607 3.46636 17.1393 3.4858C16.9349 3.51172 16.7688 3.66723 16.7241 3.87457C16.6921 4.01711 16.6729 4.15966 16.6793 4.30869V9.18769C16.6793 9.28488 16.6857 9.38855 16.7049 9.48574C16.7177 9.61533 16.7879 9.72548 16.8966 9.79676C17.1905 9.99762 17.5866 9.91986 17.7846 9.62181C17.8357 9.53758 17.8741 9.44687 17.8869 9.34968C17.8996 9.2784 17.906 9.20713 17.906 9.13586C17.8996 8.30649 17.8996 7.47712 17.8996 6.64776Z" fill="#00003D"/>
<path d="M37.3343 2.62403C37.1682 3.61538 37.0021 4.59378 36.836 5.57217C36.6187 6.87453 36.3951 8.17689 36.1779 9.47926C36.0437 10.2633 35.916 11.0408 35.7754 11.8183C35.6476 12.5116 35.2068 12.8874 34.5104 12.9134C34.2676 12.9198 34.0248 12.9198 33.7884 12.8939C33.7118 12.8874 33.6926 12.8615 33.6926 12.7838V11.8054C33.6926 11.7276 33.7181 11.7082 33.7948 11.7082C33.9034 11.7147 34.012 11.7082 34.1143 11.6887C34.4465 11.6304 34.6254 11.4296 34.6509 11.0926C34.6765 10.6974 34.587 10.3151 34.5295 9.93282C34.357 8.76652 34.1845 7.60671 34.0056 6.44041C33.8587 5.46202 33.7054 4.47715 33.5584 3.49875C33.5201 3.24606 33.4818 2.98688 33.4434 2.73418C33.4306 2.63699 33.437 2.59811 33.552 2.59811C33.8843 2.60459 34.2165 2.60459 34.5423 2.59811C34.619 2.59811 34.6509 2.61755 34.6573 2.70178C34.7212 3.32381 34.7915 3.94583 34.8618 4.56786C34.9576 5.45554 35.0598 6.34322 35.1493 7.2309C35.2068 7.80757 35.2579 8.38424 35.3154 8.9609C35.3218 9.00626 35.2962 9.07753 35.3921 9.07105C35.4879 9.06457 35.4559 8.99978 35.4559 8.95442C35.4559 7.87884 35.5709 6.80974 35.7115 5.74711C35.8393 4.76224 35.9543 3.77737 36.0693 2.7925C36.0885 2.64995 36.1268 2.61107 36.2673 2.61107C36.6251 2.63051 36.9765 2.62403 37.3343 2.62403Z" fill="#00003D"/>
<path d="M6.46295 10.7427C6.2649 10.7427 6.06045 10.7363 5.856 10.7427C5.76017 10.7492 5.73461 10.7103 5.72183 10.6261C5.63878 10.0365 5.55572 9.45334 5.46627 8.86371C5.33849 7.96955 5.20432 7.07539 5.07016 6.17475C4.94877 5.34539 4.82737 4.51602 4.71237 3.68666C4.66765 3.36269 4.62293 3.03871 4.57182 2.72122C4.55904 2.63699 4.56543 2.60459 4.66126 2.60459C4.99349 2.61107 5.3321 2.61107 5.67072 2.60459C5.74739 2.60459 5.78572 2.61755 5.7985 2.71474C5.92628 3.80977 6.06045 4.91127 6.19462 6.00629C6.3224 7.0106 6.39906 8.01491 6.43101 9.0257C6.43101 9.07753 6.39906 9.15529 6.50129 9.14881C6.59073 9.14881 6.55879 9.07105 6.55879 9.0257C6.56518 7.91124 6.69296 6.80326 6.83351 5.69528C6.96129 4.70393 7.0763 3.70609 7.18491 2.71474C7.19769 2.62403 7.22324 2.59811 7.3063 2.59811C7.63853 2.60459 7.97714 2.60459 8.31576 2.59811C8.41159 2.59811 8.42437 2.62403 8.4052 2.71474C8.2327 3.81624 8.06659 4.91775 7.90047 6.01925C7.72797 7.15963 7.55547 8.3 7.37658 9.44038C7.31269 9.8421 7.2488 10.2438 7.1913 10.6456C7.17852 10.7233 7.15296 10.7298 7.08907 10.7298C6.88463 10.7363 6.67379 10.7427 6.46295 10.7427Z" fill="#00003D"/>
<path d="M14.571 10.7366C14.2005 10.7366 13.8299 10.7366 13.4594 10.7431C13.3635 10.7431 13.3635 10.6912 13.3635 10.6264V0.162168C13.3635 0.0390592 13.3955 0.000182693 13.5169 0.00666211C13.8363 0.0131415 14.1494 0.0131415 14.4688 0.00666211C14.5327 0.00666211 14.5838 0.00666211 14.5774 0.097374C14.5774 0.162168 14.571 0.226962 14.571 0.285277C14.5774 3.76473 14.571 7.25066 14.571 10.7366Z" fill="#00003D"/>
<path d="M10.0281 13.7233C9.95139 13.9372 9.86834 14.151 9.78528 14.3648C9.60639 14.8378 9.4275 15.3108 9.26138 15.7903C9.24861 15.8745 9.16555 15.9328 9.08249 15.9199C8.80777 15.9134 8.80777 15.9199 8.71193 15.6607C8.49471 15.0711 8.27109 14.475 8.05387 13.8853C8.04109 13.8465 8.02192 13.8076 7.98998 13.7817V14.4814C7.99637 14.922 8.00276 15.3626 8.01553 15.8032C8.01553 15.9004 7.98998 15.9328 7.89414 15.9263C7.75997 15.9134 7.58747 15.9717 7.50441 15.9004C7.42136 15.8292 7.47886 15.6477 7.47886 15.5117C7.47886 14.6175 7.47886 13.7233 7.47247 12.8292C7.47247 12.7255 7.49803 12.6931 7.60025 12.6996C7.73442 12.7061 7.86859 12.7061 8.00276 12.6996C8.08581 12.6931 8.12415 12.7255 8.15609 12.8097C8.41804 13.5419 8.69277 14.2676 8.9611 14.9933C8.97388 15.0192 8.98666 15.0516 8.99944 15.0905C9.05055 15.0127 9.08888 14.922 9.11444 14.8248C9.36361 14.151 9.61917 13.4771 9.86195 12.8033C9.89389 12.719 9.92584 12.6931 10.0153 12.6931C10.1558 12.6996 10.3028 12.6996 10.4433 12.6931C10.5072 12.6931 10.5392 12.7061 10.5392 12.7838V15.8162C10.5392 15.9004 10.5072 15.9134 10.437 15.9134C10.3475 15.9069 10.2581 15.9134 10.1686 15.9134C9.99612 15.9134 10.0025 15.9134 10.0025 15.732C10.0217 15.0646 10.0345 14.3907 10.0536 13.7233H10.0281Z" fill="#00003D"/>
<path d="M12.7816 15.1032C12.935 14.695 13.0755 14.3192 13.2097 13.9499C13.3503 13.5741 13.4972 13.1788 13.6378 12.7965C13.6505 12.7317 13.7144 12.6864 13.7847 12.6993C13.9189 12.7058 14.0531 12.7058 14.1872 12.6993C14.2831 12.6929 14.315 12.7188 14.315 12.8224C14.3086 13.6777 14.315 14.5395 14.315 15.3948V15.8289C14.315 15.8937 14.3022 15.9196 14.2319 15.9131C14.1042 15.9066 13.9828 15.9066 13.855 15.9131C13.7847 15.9131 13.7783 15.8807 13.7783 15.8224C13.7911 15.3235 13.8039 14.8246 13.8103 14.3257V13.6842C13.7144 13.9369 13.625 14.1831 13.5355 14.4229C13.363 14.8894 13.1905 15.3559 13.018 15.8224C13.0053 15.8807 12.9541 15.9196 12.8903 15.9131C12.6816 15.9174 12.5389 15.8203 12.4622 15.6216C12.245 15.0319 12.0277 14.4423 11.8105 13.8592C11.7977 13.8268 11.7977 13.7879 11.753 13.762V14.2609C11.7594 14.7728 11.7658 15.2846 11.7786 15.7965C11.7786 15.8807 11.7658 15.9196 11.67 15.9131C11.5614 15.9066 11.4463 15.9066 11.3377 15.9131C11.2675 15.9131 11.2483 15.8872 11.2483 15.8159V12.7836C11.2483 12.7058 11.2738 12.6929 11.3441 12.6929C11.4719 12.6993 11.6061 12.6993 11.7339 12.6929C11.8489 12.6799 11.9 12.7253 11.9447 12.8354C12.2002 13.5546 12.4686 14.2674 12.7305 14.9801C12.7369 15.0125 12.7497 15.0384 12.7816 15.1032Z" fill="#00003D"/>
<path d="M3.69678 14.2479C3.71594 13.6389 3.93956 13.1011 4.54012 12.7901C5.28763 12.4078 6.2332 12.6475 6.64849 13.3149C7.0446 13.9564 6.97432 14.9801 6.47598 15.4985C5.99681 16.0039 5.40263 16.0946 4.77013 15.9067C4.1504 15.7252 3.83733 15.2652 3.72872 14.6367C3.70956 14.5136 3.69678 14.384 3.69678 14.2479ZM4.2654 14.2933C4.25901 14.5006 4.29734 14.708 4.36762 14.9023C4.52096 15.3106 4.8404 15.5309 5.28763 15.5373C5.73486 15.5438 6.0607 15.33 6.21404 14.9218C6.36098 14.5395 6.36737 14.1248 6.23959 13.7361C6.11181 13.3538 5.84347 13.1335 5.44736 13.0816C5.07041 13.0363 4.73818 13.127 4.4954 13.451C4.31651 13.7101 4.27179 13.9952 4.2654 14.2933Z" fill="#00003D"/>
<path d="M18.7108 13.6072C18.7108 14.3393 18.7108 15.0715 18.7172 15.7972C18.7172 15.8944 18.698 15.9138 18.6086 15.9074C18.5063 15.9009 18.4041 15.9009 18.3019 15.9074C18.2316 15.9138 18.2061 15.8879 18.2061 15.8166C18.2124 15.7 18.2061 15.5834 18.2061 15.4603V12.8361C18.2061 12.713 18.2444 12.7 18.353 12.6871C18.5958 12.6612 18.7363 12.7454 18.8705 12.9592C19.2858 13.6201 19.7266 14.2616 20.1611 14.9095C20.1739 14.9354 20.1994 14.9549 20.2377 15.0067V14.2745C20.2377 13.7886 20.2314 13.3026 20.225 12.8167C20.225 12.713 20.2569 12.6806 20.3528 12.6936C20.4741 12.7065 20.6275 12.6417 20.7041 12.7195C20.7808 12.7972 20.7233 12.9527 20.7233 13.0758V15.7842C20.7233 15.8879 20.6978 15.9074 20.5955 15.9203C20.34 15.9527 20.1994 15.8555 20.0589 15.6352C19.65 14.9808 19.2091 14.3458 18.7811 13.7043C18.7619 13.672 18.7491 13.6201 18.7108 13.6072Z" fill="#00003D"/>
<path d="M30.4783 15.9975C30.1013 15.9975 29.8011 15.9392 29.5391 15.7642C29.2324 15.5634 29.0983 15.2653 29.0663 14.9089C29.0599 14.8312 29.0791 14.8053 29.1558 14.7923C29.2836 14.7794 29.4113 14.7599 29.5391 14.7405C29.603 14.7275 29.6222 14.747 29.6286 14.8182C29.6733 15.2718 30.0694 15.6087 30.5166 15.5698C30.6636 15.5569 30.8041 15.5051 30.9255 15.4143C31.0789 15.3107 31.1555 15.1228 31.1236 14.9413C31.1044 14.7534 30.983 14.6562 30.8169 14.6044C30.5869 14.5267 30.3441 14.5007 30.1141 14.4424C29.9608 14.4036 29.8138 14.3517 29.6733 14.2804C29.1047 13.9889 29.0344 13.2826 29.5327 12.8809C29.9161 12.5764 30.3505 12.5764 30.7977 12.6671C31.1044 12.7254 31.3727 12.9262 31.5133 13.2049C31.5708 13.3344 31.6155 13.464 31.6347 13.6066C31.6475 13.6714 31.6411 13.7038 31.558 13.7038C31.4303 13.7038 31.3089 13.7167 31.1875 13.7297C31.1236 13.7362 31.1108 13.7167 31.1044 13.6519C31.0725 13.2956 30.8744 13.1012 30.523 13.0817C30.3313 13.0688 30.1397 13.0688 29.9608 13.1595C29.8266 13.2243 29.7436 13.3604 29.7563 13.5094C29.7563 13.6455 29.8458 13.7621 29.9736 13.8074C30.2355 13.9176 30.5166 13.9565 30.785 14.0342C30.9383 14.0666 31.0852 14.1185 31.2258 14.1833C31.5133 14.3258 31.6922 14.6174 31.6922 14.9413C31.7114 15.2912 31.5389 15.6217 31.2386 15.7966C31.015 15.9327 30.7466 16.004 30.4783 15.9975Z" fill="#00003D"/>
<path d="M26.4659 14.2935V12.8227C26.4659 12.7255 26.4786 12.6931 26.5873 12.6931C27.2517 12.6996 27.9098 12.6996 28.5742 12.6931C28.6701 12.6931 28.7148 12.7126 28.702 12.8162C28.6892 12.9329 28.7531 13.0948 28.6765 13.1661C28.6126 13.2244 28.4528 13.1856 28.3378 13.1856H27.1175C27.0281 13.1856 26.9898 13.2115 26.9961 13.3087C27.0025 13.4966 27.0025 13.6909 26.9961 13.8788C26.9898 13.9825 27.0217 14.0214 27.1303 14.0149C27.5392 14.0084 27.9545 14.0149 28.3634 14.0084C28.4528 14.0084 28.4976 14.0279 28.4848 14.1251C28.472 14.2417 28.5359 14.3972 28.4592 14.475C28.3826 14.5527 28.2356 14.4944 28.1206 14.4944C27.7884 14.4944 27.4498 14.5009 27.1111 14.4944C27.0153 14.4944 26.9898 14.5268 26.9898 14.6175C26.9961 14.8443 26.9961 15.0711 26.9898 15.2978C26.9898 15.4015 27.0217 15.4145 27.1111 15.4145C27.6159 15.408 28.1206 15.4145 28.6253 15.408C28.7148 15.408 28.7595 15.421 28.7467 15.5246C28.7403 15.6153 28.7403 15.706 28.7467 15.7968C28.7531 15.881 28.7212 15.9004 28.6381 15.9004H26.5553C26.4659 15.9004 26.4595 15.868 26.4595 15.7903C26.4659 15.2978 26.4659 14.7989 26.4659 14.2935Z" fill="#00003D"/>
<path d="M0.208008 14.3061C0.208008 13.7359 0.38051 13.2435 0.853295 12.9001C1.41553 12.4984 2.31637 12.5243 2.83388 12.9519C3.03194 13.1269 3.17888 13.3472 3.25555 13.5999C3.27472 13.6517 3.26194 13.6776 3.21083 13.6841C3.16611 13.6971 3.12138 13.7035 3.08305 13.7165C2.98083 13.7359 2.8786 13.7878 2.78277 13.7683C2.67415 13.7489 2.69332 13.5999 2.64221 13.5156C2.42498 13.1852 2.11831 13.0491 1.73497 13.0686C1.35164 13.088 1.04496 13.2694 0.904407 13.6323C0.706348 14.1377 0.706348 14.6495 1.01302 15.1161C1.2558 15.4919 1.62636 15.5761 2.04165 15.4919C2.43137 15.4076 2.66138 15.142 2.73165 14.7532C2.75721 14.6236 2.79554 14.5912 2.91694 14.6171C3.02555 14.6366 3.12777 14.6495 3.23638 14.656C3.30666 14.6625 3.33861 14.6819 3.31944 14.7662C3.15972 15.3493 2.81471 15.7705 2.22693 15.926C1.62636 16.088 1.07052 15.9973 0.629681 15.5178C0.31662 15.1809 0.208008 14.7597 0.208008 14.3061Z" fill="#00003D"/>
<path d="M15.0234 13.9108C15.0234 13.5479 15.0298 13.1851 15.0234 12.8222C15.0234 12.7121 15.0554 12.6797 15.1576 12.6927C15.2854 12.7056 15.4579 12.6538 15.5346 12.7186C15.6176 12.7963 15.5601 12.9713 15.5601 13.1073V14.805C15.5601 15.3816 16.0073 15.6797 16.5376 15.4529C16.7804 15.3492 16.889 15.1548 16.9082 14.9021C16.9337 14.4291 16.9146 13.9626 16.921 13.4896C16.921 13.2564 16.9274 13.0296 16.921 12.7963C16.921 12.7121 16.9465 12.6862 17.0296 12.6927C17.1701 12.6991 17.349 12.6473 17.4321 12.7186C17.5151 12.7899 17.4576 12.9842 17.4576 13.1203C17.4576 13.684 17.464 14.2542 17.4576 14.8179C17.4513 15.4853 17.036 15.9388 16.3779 15.9842C15.9435 16.0166 15.5473 15.9389 15.2534 15.5825C15.1129 15.4205 15.0362 15.2132 15.0298 14.9993C15.0234 14.6365 15.0298 14.2736 15.0298 13.9108H15.0234Z" fill="#00003D"/>
<path d="M23.3234 14.5461V13.2956C23.3234 13.2049 23.2978 13.179 23.2148 13.1854C22.9784 13.1919 22.742 13.1854 22.5056 13.1919C22.4353 13.1919 22.4034 13.1725 22.4098 13.0947C22.4161 12.9651 22.3714 12.8032 22.4289 12.7254C22.4864 12.6476 22.6653 12.6995 22.7867 12.6995C23.4064 12.6995 24.0326 12.6995 24.6523 12.693C24.7481 12.693 24.7928 12.7124 24.7801 12.8161C24.7673 12.9327 24.8312 13.0947 24.7545 13.166C24.6906 13.2243 24.5309 13.1854 24.4159 13.1854C24.2753 13.1854 24.1284 13.1919 23.9878 13.1854C23.8856 13.179 23.86 13.2114 23.8664 13.315C23.8728 14.1314 23.8664 14.9478 23.8728 15.7642C23.8728 15.8809 23.8473 15.9327 23.7259 15.9198C23.5981 15.9068 23.4384 15.9586 23.3617 15.8938C23.285 15.829 23.3362 15.6541 23.3362 15.531C23.3234 15.2005 23.3234 14.8766 23.3234 14.5461Z" fill="#00003D"/>
<path d="M21.9874 14.3194V15.7903C21.9874 15.8875 21.9746 15.9328 21.866 15.9198C21.7574 15.9134 21.6424 15.9134 21.5338 15.9198C21.4571 15.9263 21.4443 15.8939 21.4443 15.8291V12.7968C21.4443 12.719 21.4699 12.6996 21.5466 12.6996C21.6552 12.7061 21.7702 12.7061 21.8788 12.6996C21.9682 12.6931 21.9874 12.732 21.9874 12.8162C21.9874 13.3086 21.9874 13.814 21.9874 14.3194Z" fill="#00003D"/>
<path d="M25.7387 14.3065V15.8032C25.7387 15.8875 25.7195 15.9263 25.6301 15.9199C25.4895 15.9069 25.3106 15.9652 25.2276 15.8939C25.1445 15.8227 25.202 15.6283 25.202 15.4922V12.8292C25.202 12.732 25.2212 12.6931 25.3234 12.6996C25.4576 12.7126 25.6365 12.6542 25.7131 12.7255C25.8026 12.8033 25.7387 12.9912 25.7387 13.1272C25.7451 13.516 25.7387 13.9112 25.7387 14.3065Z" fill="#00003D"/>
</svg>
