<svg width="112" height="24" viewBox="0 0 112 24" fill="none" xmlns="http://www.w3.org/2000/svg">
<path fill-rule="evenodd" clip-rule="evenodd" d="M67.8952 5.52466C67.895 5.60341 67.8948 5.68108 67.8948 5.75709L67.8957 5.759C67.7453 5.73705 67.5973 5.71299 67.4508 5.68918L67.4507 5.68915L67.4506 5.68914C67.1233 5.63594 66.8035 5.58395 66.4814 5.55943C65.4692 5.48267 64.4713 5.60165 63.5022 5.89909C61.8691 6.39995 60.6199 7.3748 59.8465 8.91959C59.409 9.79465 59.1893 10.7292 59.1154 11.6983C59.0031 13.1759 59.1 14.6286 59.6776 16.018C60.0422 16.894 60.592 17.6232 61.3894 18.149C62.4784 18.8677 63.6807 18.9761 64.9299 18.7477C65.9729 18.5568 66.8873 18.0828 67.7048 17.4159C67.7548 17.3749 67.8103 17.3404 67.8665 17.3053C67.8945 17.2879 67.9227 17.2704 67.9504 17.2519C67.9504 17.397 67.9508 17.5383 67.9511 17.6772C67.9517 17.948 67.9523 18.2095 67.9504 18.4714C67.9485 18.8226 68.0109 18.8801 68.3534 18.835C68.4601 18.8216 68.5672 18.8108 68.6741 18.8001C68.7576 18.7917 68.8411 18.7833 68.9243 18.7736L68.9256 18.7735C69.7733 18.6776 70.6211 18.5817 71.4679 18.4819C71.61 18.4647 71.7021 18.387 71.6982 18.2286C71.6963 18.1751 71.697 18.1221 71.6976 18.0692V18.0683C71.6979 18.0418 71.6982 18.0153 71.6982 17.9888C71.7083 15.0436 71.7181 12.0987 71.728 9.15372L71.7289 8.88512V8.88428V8.88332V8.88215V8.88099V8.87982C71.7384 6.02618 71.7479 3.17253 71.7577 0.318655C71.7587 0.0442386 71.6714 -0.0258048 71.3845 0.00777765L71.3837 0.00786469C70.3228 0.13257 69.2618 0.257275 68.1999 0.378144C67.9034 0.411726 67.8612 0.447227 67.8631 0.74851C67.8695 1.70038 67.8768 2.65269 67.884 3.60513L67.8948 5.03363C67.8961 5.19852 67.8956 5.36384 67.8952 5.52466ZM67.8632 11.267L67.8631 11.9737L67.8641 11.9756C67.8641 12.3243 67.8638 12.6729 67.8636 13.0216V13.0253C67.8629 14.0715 67.8622 15.1176 67.8679 16.1638C67.8689 16.3432 67.8123 16.4209 67.6463 16.4929C67.0015 16.7702 66.3442 16.9496 65.6313 16.916C64.5951 16.8661 63.9244 16.3336 63.5387 15.402C63.2326 14.6641 63.0934 13.8812 63.0781 13.0953C63.057 12.0216 63.0877 10.9432 63.1683 9.87237C63.2316 9.02705 63.4619 8.20956 63.9676 7.50049C64.8944 6.19845 66.8345 6.17159 67.7892 7.4506C67.8449 7.52352 67.8602 7.64154 67.8602 7.73845C67.8634 8.91434 67.8633 10.0909 67.8632 11.267ZM16.1214 13.7516C16.5839 12.5311 16.7508 11.254 16.8093 9.94715V9.94619C16.7824 9.70752 16.7589 9.46814 16.7355 9.22869C16.6821 8.68361 16.6286 8.13821 16.534 7.60022C16.3066 6.31065 15.8057 5.1228 14.9786 4.09613C13.5403 2.30859 11.5897 1.52948 9.36556 1.34813C8.20361 1.25314 7.05797 1.39515 5.944 1.76743C3.6009 2.55038 1.98799 4.09326 1.09374 6.38933C0.723371 7.3402 0.546823 8.33136 0.466225 9.34554C0.370276 10.5468 0.43744 11.7366 0.721452 12.9062C1.19736 14.8588 2.1962 16.4746 3.91754 17.5588C6.13398 18.9549 8.53752 19.1833 11.0245 18.4771C13.5116 17.7719 15.2079 16.1657 16.1214 13.7516ZM12.16 9.53865C12.1675 9.75438 12.1746 9.95838 12.1826 10.1458V10.1477L12.178 10.4057V10.4057C12.151 11.9332 12.127 13.2947 11.8353 14.6295C11.7077 15.2157 11.5216 15.8039 11.2606 16.3422C10.8403 17.2105 10.1082 17.7076 9.13049 17.7997C8.05585 17.9014 7.07141 17.7277 6.34603 16.8296C5.97566 16.37 5.73771 15.8385 5.56883 15.2781C5.26659 14.2802 5.13802 13.2507 5.09388 12.2164C5.04207 10.9815 5.0152 9.74278 5.04495 8.5079C5.07757 7.14638 5.19079 5.78677 5.65519 4.48473C5.83365 3.98387 6.07929 3.52427 6.45445 3.13952C7.0551 2.52352 7.81214 2.33834 8.63923 2.35657C10.0526 2.38823 10.9247 3.15007 11.417 4.42332C11.8382 5.51331 11.9936 6.65607 12.0771 7.80939C12.1207 8.40806 12.1416 9.00866 12.16 9.53855L12.16 9.53865ZM22.3141 7.27968C22.3693 7.23675 22.4193 7.1983 22.466 7.16244L22.4661 7.16237L22.4662 7.16233L22.4662 7.16228C22.5436 7.10282 22.6117 7.05047 22.6787 6.99662C23.4386 6.38255 24.2686 5.89896 25.2319 5.68787C26.8852 5.32614 28.3916 5.57849 29.6332 6.81624C30.4008 7.58096 30.8133 8.53566 31.0004 9.58151C31.3459 11.5072 31.2816 13.4099 30.4996 15.2368C29.7944 16.8862 28.5441 17.9483 26.842 18.4732C25.4123 18.9136 23.9597 18.9827 22.4964 18.6344C22.483 18.6309 22.4686 18.6316 22.4468 18.6328C22.4327 18.6335 22.4156 18.6344 22.3938 18.6344V18.8848C22.3966 20.3356 22.3985 21.7863 22.4005 23.2361L22.4005 23.2419C22.4005 23.57 22.3688 23.6103 22.0407 23.6468C21.0178 23.7629 19.996 23.8761 18.9722 23.9874C18.5989 24.0277 18.5596 23.9874 18.5596 23.6065V6.29619C18.5596 5.96037 18.6057 5.92199 18.9376 5.88649C19.4437 5.83202 19.9493 5.77465 20.4548 5.7173L20.455 5.71728C20.9557 5.66046 21.4563 5.60365 21.9572 5.5497C22.2748 5.51516 22.318 5.57081 22.3151 5.8884C22.3118 6.18657 22.3125 6.48429 22.3134 6.80707C22.3137 6.95794 22.3141 7.11429 22.3141 7.27872V7.27968ZM22.4005 12.5464C22.4005 12.8602 22.4003 13.1741 22.4001 13.4879C22.3994 14.5865 22.3988 15.685 22.4062 16.7835C22.4062 16.9025 22.4638 17.0502 22.5454 17.1356C23.1786 17.8006 23.9788 17.9502 24.852 17.8447C25.6819 17.744 26.2682 17.3026 26.6194 16.5513C26.9303 15.8864 27.0943 15.1754 27.1318 14.4519C27.1864 13.3792 27.1999 12.3017 27.1836 11.227C27.1721 10.4834 27.0099 9.75422 26.6904 9.07586C26.3651 8.38502 25.8547 7.89855 25.0784 7.73927C24.2206 7.56273 23.4012 7.69706 22.5981 8.01945C22.4475 8.0799 22.3957 8.1461 22.3966 8.31018C22.4018 9.39662 22.4013 10.4831 22.4008 11.5695C22.4006 11.8955 22.4005 12.2214 22.4005 12.5473V12.5464ZM49.6191 7.29645C49.6619 7.26957 49.7003 7.24578 49.7356 7.22386L49.7357 7.2238C49.8021 7.18263 49.8578 7.14804 49.9128 7.11182C50.8684 6.48143 51.8596 5.92204 52.9908 5.67449C53.7767 5.50274 54.5721 5.46436 55.3646 5.64475C56.7329 5.95563 57.2999 6.91704 57.4448 8.04829C57.489 8.39467 57.4947 8.74776 57.4957 9.09798C57.4986 11.367 57.4982 13.6359 57.4978 15.9049L57.4976 18.1739C57.4976 18.526 57.4563 18.5673 57.0975 18.5682H54.029C53.6759 18.5682 53.627 18.5193 53.627 18.1691L53.627 16.7822V16.7822V16.7821V16.7821V16.782C53.6272 14.4745 53.6273 12.1675 53.6241 9.85982C53.6241 9.5902 53.6145 9.31674 53.5713 9.05096C53.4399 8.24211 53.0244 7.86407 52.2117 7.81033C51.4067 7.7566 50.6247 7.92355 49.8466 8.09914C49.7986 8.1097 49.7506 8.1855 49.7305 8.24115C49.7164 8.28072 49.7197 8.32685 49.7229 8.37267C49.7243 8.3924 49.7257 8.41207 49.7257 8.43113V18.1528C49.7257 18.5231 49.6825 18.5682 49.3169 18.5682H46.2724C45.9184 18.5682 45.8867 18.5366 45.8867 18.1911V6.28953C45.8867 5.94507 45.9203 5.92492 46.2657 5.8875C46.7117 5.83909 47.1572 5.78662 47.6027 5.73413L47.6028 5.73412C48.0757 5.67842 48.5486 5.62271 49.0224 5.57183L49.0995 5.5634C49.3887 5.53169 49.5261 5.51662 49.5895 5.578C49.6468 5.63361 49.6434 5.75197 49.6368 5.97756C49.6357 6.01407 49.6346 6.05339 49.6336 6.09571C49.63 6.25108 49.6238 6.40617 49.6176 6.56128V6.56138V6.56148V6.56157V6.56167L49.6176 6.56239C49.612 6.70196 49.6065 6.84153 49.6029 6.98133C49.6016 7.04331 49.606 7.10573 49.6114 7.18127V7.1813V7.18134V7.1814C49.6139 7.2165 49.6167 7.25443 49.6191 7.29645ZM79.8809 18.8755C78.7026 18.8505 77.581 18.6183 76.5284 18.0829C75.3549 17.4861 74.4991 16.5842 73.9474 15.3915C73.3765 14.1566 73.2469 12.8469 73.3218 11.5132C73.4005 10.1114 73.8313 8.82376 74.7447 7.73185C75.591 6.71862 76.68 6.08247 77.9533 5.76776C79.83 5.30336 81.6502 5.47031 83.3639 6.38376C84.7388 7.11681 85.6341 8.27972 86.0745 9.76406C86.5657 11.4182 86.5676 13.0868 86.0092 14.7285C85.3721 16.6053 84.0739 17.8392 82.2048 18.4792C81.9122 18.5799 81.6099 18.6672 81.3048 18.7152C80.9742 18.7671 80.6403 18.8 80.3064 18.833C80.1645 18.847 80.0225 18.861 79.8809 18.8764V18.8755ZM82.366 11.9402C82.3565 11.8058 82.3459 11.6385 82.3337 11.4472L82.3336 11.4465C82.3002 10.9221 82.2553 10.2171 82.1914 9.51364C82.13 8.83815 81.9621 8.18569 81.6752 7.56298C81.1551 6.43461 79.7581 6.2571 78.8312 6.70231C78.196 7.00743 77.9312 7.60328 77.7374 8.23079C77.438 9.19988 77.3785 10.2054 77.3593 11.2091C77.3463 11.8815 77.3694 12.5554 77.3926 13.2289V13.229V13.2291V13.2292C77.3966 13.3455 77.4006 13.4618 77.4044 13.5781C77.4323 14.432 77.5109 15.2831 77.7451 16.1063C77.9849 16.9497 78.3668 17.6934 79.3561 17.8565C80.1131 17.9812 80.85 17.9351 81.3748 17.3009C81.631 16.992 81.821 16.5986 81.9429 16.2128C82.3334 14.9741 82.3487 13.6865 82.366 11.9402ZM99.5581 16.3824C100.492 15.1293 100.825 13.6901 100.847 12.152H100.846C100.832 12.0035 100.819 11.8547 100.807 11.7059L100.807 11.7056C100.776 11.3384 100.745 10.9711 100.694 10.6072C100.65 10.2944 100.561 9.98356 100.46 9.68324C99.7394 7.53492 98.2321 6.25207 96.0502 5.73203C94.8019 5.43458 93.5536 5.45281 92.3101 5.77904C91.1068 6.09472 90.0706 6.6896 89.2445 7.6232C88.3991 8.57886 87.9443 9.71298 87.787 10.9661C87.5864 12.5617 87.7333 14.1161 88.449 15.5813C88.9768 16.6607 89.7818 17.4897 90.8478 18.0376C92.5183 18.8954 94.2818 19.0508 96.1001 18.6219C97.5163 18.288 98.6859 17.553 99.5581 16.3824ZM96.7546 11.4607C96.7638 11.672 96.7731 11.8834 96.7842 12.0945H96.7851C96.7986 13.2631 96.7496 14.427 96.5203 15.5726C96.4282 16.0351 96.268 16.4976 96.0588 16.9207C95.6673 17.7114 94.9525 17.956 94.1177 17.9033C93.0412 17.8351 92.5087 17.3189 92.1709 16.1483C91.8092 14.8943 91.7794 13.5961 91.7814 12.3055C91.7823 11.2866 91.8389 10.2647 91.9387 9.25146C91.9886 8.74485 92.1517 8.23919 92.3321 7.75944C92.7725 6.58886 93.8548 6.30005 94.9247 6.57542C95.5752 6.74238 95.9533 7.20581 96.197 7.80454C96.4848 8.51361 96.6009 9.26202 96.6691 10.0152C96.7124 10.4953 96.7335 10.9778 96.7546 11.4599L96.7546 11.4607ZM40.4159 11.6416H36.7985C36.4627 11.6416 36.4282 11.6819 36.4455 12.0158C36.4877 12.8218 36.5721 13.6201 36.8302 14.3906C37.2409 15.613 38.0382 16.4218 39.3374 16.6492C40.2988 16.8171 41.2631 16.8047 42.2092 16.5398C42.5987 16.4305 42.9825 16.2933 43.3596 16.1474C43.5035 16.0918 43.5899 16.1042 43.6935 16.2136C44.0715 16.6137 44.0821 16.654 43.657 17.0206C42.2447 18.2391 40.626 18.8925 38.7339 18.8398C37.7494 18.8119 36.7986 18.6766 35.8909 18.2804C34.585 17.7104 33.6965 16.7385 33.186 15.4268C32.5979 13.9147 32.4511 12.3382 32.7207 10.7493C33.0085 9.05481 33.8414 7.66354 35.2758 6.66566C36.4694 5.83569 37.7888 5.46725 39.2443 5.53537C40.1155 5.57567 40.9551 5.72055 41.7438 6.0986C42.6937 6.5534 43.3299 7.30756 43.7559 8.25459C44.202 9.24671 44.321 10.305 44.3997 11.373C44.416 11.5908 44.3028 11.6445 44.108 11.6435C43.1854 11.6407 42.2623 11.641 41.339 11.6414H41.3389L40.4159 11.6416ZM40.5396 10.4864C40.6174 9.73893 40.4706 8.24115 40.2719 7.59637C39.9898 6.68101 39.2721 6.34711 38.3683 6.5131C37.7379 6.62824 37.3522 7.0533 37.0749 7.58582C36.6086 8.48199 36.4944 9.46163 36.4359 10.4528C36.4243 10.6485 36.4886 10.6975 36.6796 10.6869C37.1729 10.661 37.6662 10.6406 38.1595 10.6201C38.5431 10.6042 38.9268 10.5883 39.3105 10.5699C39.5876 10.5568 39.8648 10.536 40.1456 10.5151C40.276 10.5053 40.4072 10.4955 40.5396 10.4864ZM106.479 7.20814C106.391 7.28948 106.298 7.37475 106.198 7.46497L106.199 7.46401C106.199 7.39703 106.198 7.33889 106.198 7.28636C106.197 7.19517 106.197 7.1209 106.199 7.04663C106.2 6.97914 106.201 6.91169 106.202 6.84424C106.209 6.50512 106.215 6.16645 106.227 5.82711C106.235 5.6189 106.139 5.53446 105.94 5.54789C105.918 5.54904 105.897 5.54993 105.875 5.55082C105.825 5.5529 105.774 5.55498 105.725 5.56037C105.237 5.61554 104.75 5.67095 104.262 5.72636C103.775 5.78177 103.288 5.83718 102.8 5.89235C102.524 5.92306 102.475 5.97391 102.475 6.25312V18.1787C102.475 18.5203 102.51 18.5568 102.863 18.5568C103.54 18.5574 104.217 18.5572 104.893 18.557C105.231 18.5569 105.57 18.5568 105.908 18.5568C106.261 18.5568 106.309 18.5088 106.309 18.1567V13.8226C106.309 13.5735 106.309 13.3244 106.309 13.0753C106.309 11.5923 106.309 10.1088 106.313 8.62596C106.313 8.53289 106.337 8.40911 106.398 8.3525C106.714 8.06082 107.081 7.85644 107.513 7.79312C107.767 7.7557 107.985 7.80655 108.119 8.06274C108.166 8.15374 108.227 8.23818 108.287 8.32276C108.319 8.36749 108.351 8.41225 108.382 8.45805C108.839 9.14793 109.615 9.44441 110.424 9.23524C111.19 9.03759 111.724 8.37169 111.777 7.54941C111.836 6.6494 111.499 6.03628 110.726 5.70141C110.253 5.49704 109.749 5.49128 109.248 5.59107C108.382 5.76378 107.649 6.20515 106.981 6.76166C106.815 6.9002 106.655 7.04639 106.479 7.20814Z" fill="currentColor"/>
</svg>
