<svg width="57" height="12" viewBox="0 0 57 12" fill="none" xmlns="http://www.w3.org/2000/svg">
<path d="M40.683 0.378282C40.6468 0.200296 40.5279 0.0831992 40.3111 0.0855411C39.7096 0.0925669 39.1069 0.0878831 38.5054 0.0785153C38.2932 0.0750025 38.1603 0.194441 38.1335 0.368915C38.109 0.530508 38.2373 0.628869 38.411 0.685075C38.812 0.813881 38.9833 1.13004 38.9938 1.53402C39.0241 2.68274 39.0498 3.83146 39.0708 4.979C39.0731 5.10429 39.1116 5.2694 38.9297 5.31858C38.742 5.36893 38.7176 5.18041 38.6488 5.08556C37.6462 3.69797 36.646 2.31037 35.6575 0.913413C35.0968 0.12067 34.4754 -0.128745 33.5195 0.0878831C33.3563 0.125354 33.199 0.20615 33.1686 0.352521C33.1348 0.523482 33.2841 0.61833 33.4484 0.668681C34.0068 0.838471 34.1514 1.26119 34.149 1.79398C34.142 3.17689 34.142 4.5598 34.156 5.94388C34.1619 6.4954 34.0255 6.92397 33.4414 7.10313C33.3004 7.14646 33.1418 7.23779 33.1908 7.43568C33.2363 7.61718 33.3831 7.657 33.5545 7.65114C34.156 7.63241 34.7575 7.6207 35.3579 7.60313C35.4908 7.59962 35.6505 7.61016 35.6657 7.41929C35.6785 7.25419 35.6412 7.11016 35.4325 7.08674C35.021 7.03873 34.9137 6.73779 34.8939 6.39001C34.8566 5.72959 34.8333 5.06682 34.7995 4.28111C34.7995 3.93801 34.7797 3.46963 34.8065 3.00358C34.8217 2.73192 34.627 2.3174 34.9266 2.22138C35.1679 2.1441 35.3206 2.56799 35.4791 2.78344C36.5843 4.28813 37.6707 5.80687 38.756 7.32444C38.9472 7.59142 39.1524 7.81742 39.5126 7.70852C39.8996 7.59259 39.7306 7.25536 39.7317 7.01531C39.7481 5.18392 39.7527 3.3537 39.7457 1.52231C39.7446 1.07384 39.8996 0.768213 40.3542 0.675707C40.5349 0.639407 40.7284 0.625356 40.6783 0.378282H40.683Z" fill="#00003D"/>
<path d="M56.1767 0.659609C56.1826 0.218156 56.0065 0.0425114 55.5461 0.056563C54.5762 0.087008 53.6051 0.0659307 52.6341 0.0659307C51.6245 0.0659307 50.615 0.0741274 49.6055 0.0612468C49.328 0.0577339 49.1532 0.129163 49.1427 0.426588C49.1264 0.873896 49.1159 1.32003 49.1135 1.76734C49.1124 1.95235 49.2371 2.05423 49.4073 2.05657C49.5588 2.05891 49.6183 1.9547 49.6626 1.79896C49.9715 0.728696 50.1918 0.612771 51.3144 0.629164C51.8996 0.637361 52.0384 0.892631 52.0314 1.41722C52.0116 2.93713 52.0092 4.45705 52.0325 5.97579C52.0419 6.57064 51.8285 6.95003 51.2422 7.07415C51.086 7.10694 50.9775 7.16666 50.9682 7.31771C50.9542 7.53785 51.1338 7.5402 51.2888 7.56127C52.1981 7.68071 53.112 7.60811 54.0225 7.63036C54.2346 7.63504 54.378 7.51092 54.4141 7.35167C54.4631 7.1327 54.2743 7.07766 54.0854 7.04136C53.6028 6.94769 53.3661 6.62801 53.3568 6.14909C53.3265 4.47461 53.3079 2.79896 53.281 1.12448C53.2775 0.935957 53.316 0.793099 53.5095 0.702935C54.3593 0.307149 55.4213 0.800125 55.6347 1.71348C55.6813 1.91488 55.7652 2.05189 55.9622 2.04369C56.1931 2.03432 56.2152 1.83409 56.2117 1.65259C56.2047 1.3212 56.1709 0.990992 56.1756 0.66078L56.1767 0.659609Z" fill="#00003D"/>
<path d="M18.0601 7.12816C17.3933 7.04151 17.3711 6.54619 17.3641 6.0497C17.3466 4.66679 17.3501 3.28505 17.328 1.90214C17.3175 1.26982 17.511 0.802608 18.172 0.633989C18.5637 0.423216 18.3608 0.153894 18.1277 0.114081C17.4982 0.00635231 16.8477 -0.110744 16.2287 0.200732C15.7158 0.588322 15.6423 1.21245 15.4197 1.74992C15.0303 2.68903 14.7214 3.66679 14.1992 4.54033C14.0266 4.82838 14.1246 5.43611 13.7737 5.37405C13.4065 5.30848 13.3645 4.70543 13.2048 4.34009C12.6662 3.10941 12.1894 1.85179 11.6987 0.59886C11.5751 0.283871 11.3513 0.1375 11.0365 0.143355C10.5329 0.152723 10.0305 0.184339 9.52688 0.214784C9.37301 0.224152 9.20281 0.247571 9.15501 0.431412C9.10022 0.638673 9.31588 0.737034 9.41497 0.759282C10.0736 0.910337 10.1074 1.41736 10.1156 1.93376C10.1342 3.23587 10.1459 4.53798 10.1506 5.83893C10.154 6.86703 10.1366 6.88226 9.15268 7.21364C8.80529 7.22418 8.81928 7.57312 8.59546 7.72769C8.83327 7.83425 8.97782 7.72184 9.1317 7.65861C9.86261 7.80849 10.6005 7.72301 11.3361 7.71247C11.525 7.71013 11.7383 7.66095 11.7791 7.41504C11.8094 7.23237 11.6567 7.17031 11.5273 7.1586C10.8127 7.10005 10.7789 6.54268 10.8045 6.05673C10.8651 4.92792 10.8069 3.80145 10.8442 2.67381C10.8488 2.53681 10.7766 2.36116 10.9852 2.26046C11.3629 3.08248 11.6613 3.92791 12.0624 4.73236C12.4622 5.53682 12.7175 6.4127 13.0591 7.24877C13.1313 7.42675 13.1745 7.69139 13.4321 7.71013C13.6991 7.72886 13.734 7.48062 13.8168 7.29678C13.9194 7.06961 14.0395 6.85064 14.1292 6.61996C14.7063 5.13049 15.485 3.73002 16.0585 2.22299C16.1273 3.41386 16.0865 4.59302 16.1424 5.76867C16.1774 6.51574 16.0888 7.10825 15.2646 7.33191C15.2495 7.33659 15.2483 7.3928 15.2378 7.43963C15.2926 7.48647 15.3439 7.5661 15.4092 7.58015C16.2928 7.76048 17.1869 7.65743 18.0776 7.66095C18.2081 7.66095 18.3014 7.57547 18.3224 7.45134C18.3562 7.25813 18.2116 7.14572 18.0636 7.12699L18.0601 7.12816Z" fill="#00003D"/>
<path d="M47.9254 5.67247L47.9102 5.68184C47.9219 5.54015 47.8601 5.46287 47.7155 5.45701C47.5605 5.45116 47.4474 5.49448 47.4451 5.67715C47.2609 6.10455 47.2411 6.6713 46.7118 6.83641C46.08 7.03313 45.4248 7.07411 44.7639 6.89378C44.3943 6.79308 44.1927 6.57177 44.1763 6.2158C44.1472 5.57528 44.1554 4.93242 44.1495 4.29073C44.1472 4.0179 44.2754 3.88441 44.5459 3.96286C44.9935 4.09401 45.5181 4.10689 45.6871 4.69705C45.7233 4.82352 45.7454 5.05186 45.9588 5.01087C46.1674 4.96989 46.1826 4.76614 46.1837 4.58816C46.1872 4.10221 46.1989 3.61508 46.1791 3.12913C46.1686 2.87504 46.3096 2.5015 45.9961 2.40548C45.6697 2.30595 45.6918 2.71813 45.5566 2.90314C45.2546 3.31766 44.793 3.40197 44.3605 3.31649C43.9863 3.24155 44.1845 2.83405 44.1519 2.57293C44.1227 2.34342 44.146 2.10688 44.146 1.87269C44.146 0.461679 44.0411 0.686504 45.3083 0.687675C46.1045 0.687675 46.9391 0.667769 47.1606 1.73803C47.1933 1.89845 47.3483 2.05068 47.557 1.86215C47.7785 1.66192 47.5861 0.18299 47.3192 0.0764318C47.2854 0.0623803 47.2422 0.0670641 47.2038 0.0670641C45.6522 0.071748 44.1006 0.069406 42.5501 0.0857995C42.2086 0.0893124 42.0734 0.286034 42.2156 0.624443C42.774 0.740368 42.9745 1.12679 42.9861 1.65489C42.9861 1.67128 43.0036 1.68768 43.0129 1.70407C43.0129 3.22398 43.0106 4.74272 43.0094 6.26263C42.929 6.45233 42.8964 6.65959 42.7833 6.83641C42.6667 6.89144 42.6492 7.06006 42.4767 7.06826C42.3135 7.07528 42.085 7.07762 42.099 7.3247C42.1118 7.55889 42.3088 7.63969 42.514 7.63617C44.2113 7.60456 45.9075 7.56475 47.6036 7.52493C47.6339 7.52493 47.6631 7.48044 47.6922 7.45702C47.8531 7.28371 47.8263 7.04718 47.895 6.84343L47.9254 6.85514C48.0291 6.4617 48.2168 6.06708 47.9254 5.67364V5.67247Z" fill="#00003D"/>
<path d="M31.36 7.06612C31.036 7.0708 30.8168 6.89282 30.8121 6.58837C30.7865 4.82138 30.614 3.05323 30.7993 1.28624C30.8285 1.01107 30.952 0.772189 31.2749 0.701932C31.437 0.666803 31.6515 0.616451 31.5757 0.370549C31.5221 0.194904 31.3764 0.0895174 31.1793 0.0895174C30.4811 0.0883464 29.784 0.0871755 29.0857 0.0895174C28.8922 0.0895174 28.7546 0.171485 28.7091 0.377575C28.6567 0.61528 28.8327 0.718325 28.9878 0.745257C29.5368 0.838934 29.5555 1.22535 29.5531 1.65627C29.5461 3.19257 29.5403 4.73005 29.552 6.26635C29.5543 6.62115 29.461 6.89516 29.1545 7.08251C28.954 7.06846 28.7406 7.02982 28.6917 7.31788C28.6602 7.58603 28.8222 7.65511 29.0425 7.65043C29.7979 7.63521 30.5533 7.61882 31.3087 7.60008C31.4824 7.5954 31.6969 7.60008 31.7074 7.36823C31.7167 7.16917 31.5664 7.06378 31.36 7.06612Z" fill="#00003D"/>
<path d="M27.2857 0.361284C27.2566 0.257068 27.1924 0.110698 27.0677 0.117723C26.3939 0.154023 25.7131 0.0509784 25.0463 0.19852C24.9146 0.227794 24.7152 0.274633 24.7292 0.479551C24.7409 0.641145 24.8936 0.695009 25.0277 0.70906C25.487 0.759412 25.5639 1.09431 25.5744 1.45496C25.607 2.63881 25.6269 3.82383 25.6455 5.00767C25.6478 5.12828 25.7189 5.30276 25.5138 5.33437C25.3774 5.35545 25.3028 5.23952 25.248 5.14233C24.39 3.61774 23.1695 2.34841 22.2579 0.860115C21.8242 0.152852 20.7366 -0.112957 19.9893 0.269949C19.8343 0.349574 19.7504 0.411635 19.9427 0.5381C20.05 0.705548 20.1968 0.802738 20.402 0.791028C20.6084 1.07909 20.7727 1.38705 20.7716 1.75239C20.7634 3.32968 20.7506 4.90697 20.7389 6.48426C20.5069 6.50534 20.5151 6.67161 20.5256 6.83906C20.4277 7.01939 20.247 7.10253 20.0791 7.19035C19.9462 7.26061 19.7364 7.27583 19.7947 7.47724C19.8425 7.64117 20.0453 7.64586 20.1957 7.64937C20.7774 7.66576 21.3591 7.67279 21.9408 7.67162C22.0818 7.67162 22.2707 7.71611 22.3045 7.48778C22.3371 7.27232 22.2147 7.14234 22.0271 7.10955C21.5759 7.02876 21.4955 6.66459 21.4838 6.32852C21.4407 5.06505 21.4384 3.80041 21.4232 2.53577C21.422 2.42218 21.4046 2.28752 21.5526 2.24771C21.6983 2.2079 21.7519 2.33553 21.8172 2.42569C22.6018 3.51469 23.3758 4.61071 24.172 5.69034C24.7083 6.41751 25.2049 7.17981 25.888 7.78754C26.0943 7.92806 26.2832 8.00651 26.3461 7.65405C26.5676 7.49831 26.4697 7.26529 26.4708 7.0674C26.4778 5.29924 26.4755 3.53109 26.4708 1.76293C26.4708 1.48892 26.486 1.22077 26.5653 0.958476C26.662 0.699693 26.9371 0.803909 27.1073 0.690325C27.2309 0.607187 27.3253 0.506484 27.2845 0.358942L27.2857 0.361284Z" fill="#00003D"/>
<path d="M4.70687 0.206584C2.88599 -0.353137 0.561515 1.18785 0.249097 2.74289C-0.0714802 3.17849 -0.00619896 3.67147 0.0346018 4.16093C-0.0656515 4.81199 0.219954 5.36702 0.495068 5.91386C0.938048 6.7956 1.81468 7.17265 2.58873 7.66563C3.40475 7.86235 4.22076 7.96891 5.03794 7.67382C5.19066 7.60122 5.33637 7.50052 5.49841 7.46188C6.67813 7.1785 7.77393 5.21597 7.77626 4.05437C7.77976 2.26865 6.51377 0.759279 4.70804 0.205413L4.70687 0.206584ZM6.04281 5.68904C5.59633 6.60356 4.62527 7.22534 3.65538 7.09068C2.51529 6.9326 1.89978 6.46656 1.53374 5.21246C1.40434 4.39278 1.30875 3.57428 1.53607 2.75577C1.69694 2.38575 1.78204 1.95015 2.03267 1.65858C3.00723 0.525086 4.91554 0.46888 5.78285 1.88106C6.49511 3.04032 6.68863 4.36468 6.04281 5.68904Z" fill="#00003D"/>
<path d="M55.1345 11.2943C54.9002 11.2943 54.6671 11.2943 54.4328 11.2955C54.0073 11.2943 53.5806 11.2931 53.1551 11.2908C52.7681 11.2896 52.3799 11.2885 51.9929 11.2873C51.5103 11.2545 51.0288 11.2041 50.5462 11.1924C47.872 11.1315 45.1978 11.0894 42.5248 11.0226C38.2232 10.9149 33.9216 10.9348 29.6189 10.9559C29.6177 10.9969 29.6271 11.0308 29.6457 11.0566H29.6201C29.6201 11.0226 29.6201 10.9899 29.6177 10.9559C28.6304 10.95 27.6418 10.9372 26.6544 10.9383C22.8763 10.9419 19.0993 10.9489 15.3211 10.9547C15.1859 10.9465 15.0507 10.9325 14.9155 10.9301C10.9042 10.8529 6.89519 11.0859 2.88389 11.0835C2.33249 11.0835 1.73097 11.0601 1.18541 11.2849C1.10963 11.2873 1.03386 11.2896 0.958088 11.292C0.854337 11.3002 0.710951 11.2522 0.670151 11.3798C0.627018 11.5133 0.762244 11.5004 0.846177 11.518C0.963916 11.5168 1.08049 11.5145 1.19823 11.5133C1.31597 11.5109 1.43254 11.5098 1.55028 11.5074C1.82073 11.5063 2.09002 11.5051 2.36047 11.5039C2.47821 11.5039 2.59711 11.5039 2.71485 11.5039C2.737 11.4864 2.76148 11.477 2.78829 11.4711L2.71485 11.5039C2.9853 11.5063 3.25576 11.5086 3.52504 11.5109C3.60081 11.5109 3.67542 11.5109 3.75119 11.5109C3.98434 11.5133 4.21749 11.5156 4.44947 11.518C4.98338 11.5262 5.51845 11.5332 6.05236 11.5414C6.05236 11.5414 6.05236 11.5414 6.05352 11.5414C6.91151 11.6901 7.77765 11.6889 8.64379 11.6854C8.64379 11.6854 8.64379 11.6854 8.64496 11.6854C8.79534 11.7557 9.80253 11.8435 10.3842 11.8693C10.2688 11.8775 10.1534 11.8927 10.0427 11.8739C10.2886 12.0976 10.5871 11.9454 10.8587 11.9899C10.7876 11.9243 10.7106 11.8915 10.6325 11.8763C12.5886 11.8974 14.5448 11.9067 16.5009 11.9138C26.3175 11.9465 36.1342 11.9536 45.9509 11.8681C46.3332 11.8646 46.7214 11.8517 47.0968 11.751C47.3556 11.7486 47.6144 11.7463 47.8732 11.7428C49.7792 11.7475 51.6851 11.751 53.5911 11.758C53.7928 11.758 53.977 11.7405 54.0877 11.539C54.1635 11.5285 54.2393 11.5191 54.315 11.5086C54.6251 11.5109 54.9352 11.5133 55.2441 11.5156C55.4062 11.4828 55.6113 11.6292 55.7349 11.4009C55.5542 11.2241 55.3351 11.3049 55.1322 11.292L55.1345 11.2943ZM49.8794 11.5531C49.8794 11.5531 49.8794 11.5461 49.8794 11.5426H49.9144C49.9027 11.5461 49.8911 11.5496 49.8794 11.5531Z" fill="#00003D"/>
</svg>
