<svg width="78" height="6" viewBox="0 0 78 6" fill="none" xmlns="http://www.w3.org/2000/svg">
<path d="M72.7981 0.965759V0.0801392H77.4512V0.965759H75.6486V5.91213H74.6007V0.965759H72.7981Z" fill="#00003D"/>
<path d="M68.6109 1.68296C68.5843 1.43427 68.4723 1.24063 68.2749 1.10204C68.0793 0.963455 67.8249 0.894163 67.5117 0.894163C67.2915 0.894163 67.1026 0.927385 66.945 0.99383C66.7874 1.06028 66.6669 1.15045 66.5834 1.26436C66.4998 1.37826 66.4571 1.50831 66.4552 1.65449C66.4552 1.77599 66.4827 1.88135 66.5378 1.97057C66.5947 2.0598 66.6716 2.13574 66.7685 2.19839C66.8653 2.25914 66.9725 2.31039 67.0902 2.35216C67.2079 2.39393 67.3266 2.42905 67.4462 2.45752L67.9929 2.59421C68.2132 2.64547 68.4248 2.71476 68.628 2.80209C68.833 2.88942 69.0162 2.99953 69.1776 3.13242C69.3408 3.26531 69.4699 3.42572 69.5649 3.61367C69.6598 3.80161 69.7072 4.02183 69.7072 4.27432C69.7072 4.61604 69.6199 4.91694 69.4453 5.17703C69.2706 5.43522 69.0181 5.6374 68.6878 5.78358C68.3594 5.92786 67.9616 6 67.4946 6C67.0409 6 66.647 5.92976 66.3128 5.78927C65.9806 5.64879 65.7205 5.44376 65.5326 5.17418C65.3465 4.9046 65.2459 4.57617 65.2307 4.18889H66.2701C66.2853 4.39203 66.3479 4.56099 66.4581 4.69578C66.5682 4.83056 66.7115 4.93118 66.8881 4.99763C67.0665 5.06407 67.2658 5.09729 67.4861 5.09729C67.7158 5.09729 67.917 5.06312 68.0898 4.99478C68.2644 4.92454 68.4011 4.82772 68.4998 4.70432C68.5986 4.57902 68.6489 4.43284 68.6508 4.26578C68.6489 4.11391 68.6043 3.98861 68.5169 3.88989C68.4296 3.78927 68.3071 3.70574 68.1496 3.6393C67.9939 3.57095 67.8116 3.5102 67.6028 3.45705L66.9393 3.28619C66.459 3.16279 66.0793 2.9758 65.8002 2.7252C65.5231 2.47271 65.3845 2.13764 65.3845 1.71998C65.3845 1.37636 65.4775 1.07546 65.6636 0.817276C65.8515 0.559089 66.1068 0.358804 66.4296 0.216422C66.7523 0.0721407 67.1178 0 67.5259 0C67.9398 0 68.3024 0.0721407 68.6137 0.216422C68.927 0.358804 69.1728 0.557191 69.3513 0.811581C69.5297 1.06407 69.6218 1.35453 69.6275 1.68296H68.6109Z" fill="#00003D"/>
<path d="M58.0769 5.91213H56.9492L59.0024 0.0801392H60.3066L62.3626 5.91213H61.235L59.6773 1.27615H59.6317L58.0769 5.91213ZM58.1139 3.62546H61.1894V4.47406H58.1139V3.62546Z" fill="#00003D"/>
<path d="M54.2348 2.99573C54.2348 3.62411 54.1171 4.16232 53.8817 4.61035C53.6482 5.05648 53.3292 5.3982 52.9249 5.6355C52.5224 5.87281 52.0658 5.99146 51.5551 5.99146C51.0445 5.99146 50.5869 5.87281 50.1826 5.6355C49.7801 5.3963 49.4612 5.05363 49.2257 4.6075C48.9922 4.15947 48.8755 3.62221 48.8755 2.99573C48.8755 2.36735 48.9922 1.83009 49.2257 1.38396C49.4612 0.935928 49.7801 0.593261 50.1826 0.355957C50.5869 0.118652 51.0445 0 51.5551 0C52.0658 0 52.5224 0.118652 52.9249 0.355957C53.3292 0.593261 53.6482 0.935928 53.8817 1.38396C54.1171 1.83009 54.2348 2.36735 54.2348 2.99573ZM53.1726 2.99573C53.1726 2.55339 53.1033 2.18035 52.9647 1.8766C52.8281 1.57095 52.6382 1.34029 52.3952 1.18462C52.1522 1.02705 51.8722 0.948268 51.5551 0.948268C51.2381 0.948268 50.9581 1.02705 50.7151 1.18462C50.4721 1.34029 50.2813 1.57095 50.1427 1.8766C50.006 2.18035 49.9377 2.55339 49.9377 2.99573C49.9377 3.43806 50.006 3.81206 50.1427 4.1177C50.2813 4.42145 50.4721 4.65211 50.7151 4.80968C50.9581 4.96535 51.2381 5.04319 51.5551 5.04319C51.8722 5.04319 52.1522 4.96535 52.3952 4.80968C52.6382 4.65211 52.8281 4.42145 52.9647 4.1177C53.1033 3.81206 53.1726 3.43806 53.1726 2.99573Z" fill="#00003D"/>
<path d="M45.6498 2.04746H44.5848C44.5544 1.87281 44.4984 1.71808 44.4168 1.58329C44.3351 1.44661 44.2336 1.3308 44.1121 1.23588C43.9906 1.14096 43.852 1.06977 43.6963 1.02231C43.5425 0.972948 43.3764 0.948268 43.198 0.948268C42.8809 0.948268 42.6 1.028 42.3551 1.18747C42.1102 1.34504 41.9184 1.57665 41.7798 1.8823C41.6412 2.18605 41.5719 2.55719 41.5719 2.99573C41.5719 3.44186 41.6412 3.81775 41.7798 4.1234C41.9203 4.42715 42.1121 4.65686 42.3551 4.81253C42.6 4.9663 42.88 5.04319 43.1951 5.04319C43.3698 5.04319 43.533 5.02041 43.6849 4.97485C43.8387 4.92739 43.9763 4.85809 44.0978 4.76697C44.2212 4.67584 44.3247 4.56384 44.4082 4.43094C44.4937 4.29805 44.5525 4.14618 44.5848 3.97532L45.6498 3.98102C45.6099 4.25819 45.5236 4.51827 45.3907 4.76127C45.2597 5.00427 45.0879 5.2188 44.8752 5.40484C44.6626 5.58899 44.4139 5.73327 44.1292 5.83768C43.8444 5.9402 43.5283 5.99146 43.1809 5.99146C42.6683 5.99146 42.2108 5.87281 41.8083 5.6355C41.4058 5.3982 41.0888 5.05553 40.8572 4.6075C40.6256 4.15947 40.5098 3.62221 40.5098 2.99573C40.5098 2.36735 40.6265 1.83009 40.86 1.38396C41.0935 0.935928 41.4115 0.593261 41.814 0.355957C42.2165 0.118652 42.6721 0 43.1809 0C43.5055 0 43.8074 0.0455627 44.0864 0.136687C44.3655 0.227812 44.6142 0.361652 44.8325 0.538206C45.0508 0.712862 45.2303 0.927385 45.3707 1.18178C45.5131 1.43427 45.6061 1.72283 45.6498 2.04746Z" fill="#00003D"/>
<path d="M32.2876 5.91213V0.0801392H33.3441V2.54905H36.0465V0.0801392H37.1059V5.91213H36.0465V3.43467H33.3441V5.91213H32.2876Z" fill="#00003D"/>
<path d="M24.3306 0.965759V0.0801392H28.9837V0.965759H27.1811V5.91213H26.1331V0.965759H24.3306Z" fill="#00003D"/>
<path d="M16.9646 5.91213V0.0801392H19.1516C19.5996 0.0801392 19.9755 0.157975 20.2793 0.313646C20.5849 0.469318 20.8156 0.687638 20.9713 0.968606C21.1288 1.24768 21.2076 1.57326 21.2076 1.94535C21.2076 2.31934 21.1279 2.64397 20.9684 2.91925C20.8109 3.19262 20.5783 3.4043 20.2707 3.55427C19.9632 3.70235 19.5854 3.77639 19.1374 3.77639H17.5797V2.89931H18.995C19.257 2.89931 19.4715 2.86324 19.6386 2.7911C19.8056 2.71706 19.929 2.6098 20.0088 2.46932C20.0904 2.32694 20.1312 2.15228 20.1312 1.94535C20.1312 1.73842 20.0904 1.56187 20.0088 1.41569C19.9271 1.26761 19.8028 1.1556 19.6357 1.07966C19.4687 1.00183 19.2532 0.962911 18.9893 0.962911H18.0211V5.91213H16.9646ZM19.9774 3.26951L21.4212 5.91213H20.2423L18.8241 3.26951H19.9774Z" fill="#00003D"/>
<path d="M13.5605 2.99573C13.5605 3.62411 13.4428 4.16232 13.2074 4.61035C12.9739 5.05648 12.6549 5.3982 12.2506 5.6355C11.8481 5.87281 11.3915 5.99146 10.8808 5.99146C10.3701 5.99146 9.91262 5.87281 9.50825 5.6355C9.10578 5.3963 8.78684 5.05363 8.55144 4.6075C8.31793 4.15947 8.20117 3.62221 8.20117 2.99573C8.20117 2.36735 8.31793 1.83009 8.55144 1.38396C8.78684 0.935928 9.10578 0.593261 9.50825 0.355957C9.91262 0.118652 10.3701 0 10.8808 0C11.3915 0 11.8481 0.118652 12.2506 0.355957C12.6549 0.593261 12.9739 0.935928 13.2074 1.38396C13.4428 1.83009 13.5605 2.36735 13.5605 2.99573ZM12.4983 2.99573C12.4983 2.55339 12.429 2.18035 12.2904 1.8766C12.1537 1.57095 11.9639 1.34029 11.7209 1.18462C11.4779 1.02705 11.1979 0.948268 10.8808 0.948268C10.5638 0.948268 10.2838 1.02705 10.0408 1.18462C9.79777 1.34029 9.60697 1.57095 9.46838 1.8766C9.3317 2.18035 9.26335 2.55339 9.26335 2.99573C9.26335 3.43806 9.3317 3.81206 9.46838 4.1177C9.60697 4.42145 9.79777 4.65211 10.0408 4.80968C10.2838 4.96535 10.5638 5.04319 10.8808 5.04319C11.1979 5.04319 11.4779 4.96535 11.7209 4.80968C11.9639 4.65211 12.1537 4.42145 12.2904 4.1177C12.429 3.81206 12.4983 3.43806 12.4983 2.99573Z" fill="#00003D"/>
<path d="M4.79262 0.0801392V5.91213H3.85289L1.10489 1.93966H1.05648V5.91213H0V0.0801392H0.945426L3.69058 4.05546H3.74184V0.0801392H4.79262Z" fill="#00003D"/>
</svg>
