<svg width="43" height="20" viewBox="0 0 43 20" fill="none" xmlns="http://www.w3.org/2000/svg">
<path fill-rule="evenodd" clip-rule="evenodd" d="M13.0265 0.106831L12.6824 0.223446L12.6638 0.511668C12.6258 1.09872 12.4235 1.54457 10.6106 5.03676C8.53979 9.02569 4.62325 16.5156 4.17765 17.3389C3.67806 18.262 3.15399 18.769 2.46126 18.9996C2.15467 19.1016 1.76953 19.1454 1.00705 19.1648C0.376468 19.1808 0.272113 19.19 0.196885 19.236C0.0092457 19.3507 -0.0559478 19.5919 0.0524214 19.7706C0.165492 19.957 0.193129 19.9632 0.851487 19.9498C2.18397 19.9229 7.02584 19.9414 7.75747 19.9763C8.48733 20.0111 8.51222 20.0105 8.62033 19.955C8.8342 19.8454 8.91057 19.6126 8.79845 19.412C8.68526 19.2096 8.6723 19.2065 7.60034 19.13C7.06844 19.092 6.58164 19.0463 6.51857 19.0285C6.31493 18.9709 6.17038 18.8675 6.10562 18.733C5.98403 18.4805 6.04432 18.1898 6.40277 17.3006C6.87621 16.126 7.78299 14.119 8.55588 12.5351C8.68457 12.2714 8.87118 12.0843 9.07539 12.0144C9.19729 11.9726 10.7277 11.9685 26.1047 11.9685H43V11.3488V10.7291L26.4651 10.729C15.5298 10.7289 9.89524 10.7191 9.82698 10.7C9.69307 10.6626 9.62761 10.5871 9.61047 10.4504C9.59797 10.3509 9.69077 10.1503 10.5547 8.40896C11.5232 6.457 11.9287 5.65963 12.8861 3.82375L13.4135 2.81249V1.41158C13.4135 0.64108 13.4038 0.00606876 13.392 0.000448426C13.3801 -0.00517191 13.2157 0.0427018 13.0265 0.106831ZM21.5967 5.01514C21.5872 5.05872 21.5371 5.24356 21.4852 5.42586C21.4334 5.60816 21.3965 5.76705 21.4032 5.77893C21.41 5.7908 21.4515 5.80055 21.4955 5.80055C21.5612 5.80055 21.5848 5.77977 21.6276 5.68425C21.7053 5.51111 21.8653 5.37986 22.0471 5.34017C22.1328 5.32146 22.3526 5.31071 22.5446 5.31581L22.8886 5.32498V6.80134V8.2777L22.8261 8.34056C22.7819 8.38492 22.7018 8.41273 22.5537 8.43501C22.3735 8.46213 22.3439 8.47473 22.3439 8.52425C22.3439 8.58045 22.3656 8.58209 23.2164 8.58953C24.1049 8.59731 24.1542 8.59189 24.1157 8.49084C24.1076 8.46957 24.066 8.45219 24.0232 8.45219C23.8606 8.45219 23.6596 8.36996 23.6189 8.28675C23.5882 8.22421 23.5776 7.92365 23.5692 6.88138C23.5633 6.15218 23.5696 5.50368 23.5832 5.44027L23.6078 5.32498L23.9875 5.31694C24.5672 5.30463 24.7043 5.36334 24.7861 5.659C24.8294 5.81576 24.8397 5.82937 24.9145 5.82937C24.9934 5.82937 24.9958 5.82481 24.9967 5.67805C24.9976 5.52751 25.0372 5.16637 25.0695 5.01514C25.0836 4.94908 25.0767 4.93588 25.0281 4.93588C24.996 4.93588 24.9375 4.9683 24.8981 5.00793L24.8264 5.07999H23.333H21.8396L21.7679 5.00793C21.6747 4.91426 21.6181 4.91665 21.5967 5.01514ZM41.6669 4.95392C41.3593 5.01482 41.2759 5.03852 41.157 5.09884C40.9703 5.19361 40.8016 5.37037 40.7117 5.5657C40.6045 5.79827 40.6067 6.10191 40.7172 6.32886C40.8355 6.57203 41.117 6.81693 41.5437 7.04797C42.0923 7.34504 42.2414 7.50492 42.275 7.83205C42.3021 8.09601 42.189 8.3088 41.9571 8.43014C41.7893 8.51796 41.4611 8.51865 41.2722 8.43158C41.0823 8.34399 40.8513 8.10119 40.7078 7.83833C40.6111 7.66111 40.5733 7.61635 40.5206 7.61635C40.4305 7.61635 40.421 7.65742 40.4504 7.92074C40.4803 8.18896 40.5516 8.43325 40.6168 8.49096C40.6425 8.51364 40.7602 8.56797 40.8785 8.61169C41.1615 8.71629 41.6784 8.7437 42.0015 8.67127C42.3931 8.58348 42.7138 8.3335 42.829 8.02623C42.9169 7.79167 42.8999 7.40661 42.7925 7.19664C42.6665 6.95047 42.4024 6.73159 41.9483 6.49698C41.523 6.27724 41.3082 6.10646 41.2348 5.92964C41.1146 5.64055 41.2886 5.28039 41.5889 5.19655C41.7271 5.15798 41.9812 5.1585 42.1214 5.19761C42.2834 5.24286 42.4788 5.43744 42.5749 5.64923C42.6418 5.79683 42.6689 5.82937 42.7249 5.82937C42.8181 5.82937 42.8268 5.7902 42.7961 5.50976C42.7622 5.20073 42.7233 5.08238 42.6459 5.05281C42.4465 4.97661 41.8544 4.9168 41.6669 4.95392ZM14.2166 5.10994C14.1616 5.15755 14.0767 5.21102 14.0279 5.22874C13.9544 5.25549 13.934 5.28368 13.9088 5.39386C13.8791 5.52348 12.9639 7.71232 12.7657 8.12771C12.6562 8.35737 12.5964 8.40472 12.3739 8.43827C12.2552 8.45617 12.2381 8.46747 12.2381 8.52808V8.59743L12.8616 8.58967C13.4635 8.58215 13.4852 8.57987 13.4852 8.52425C13.4852 8.47724 13.4554 8.46069 13.3241 8.43461C13.1288 8.39584 13.0981 8.37849 13.0981 8.30667C13.0981 8.25141 13.3781 7.47734 13.4403 7.36032C13.4716 7.30158 13.4925 7.2993 13.9987 7.2993C14.3847 7.2993 14.5324 7.3089 14.5538 7.33533C14.5812 7.36899 14.8759 8.12731 14.9184 8.27343C14.9463 8.36927 14.8895 8.41953 14.7293 8.44089C14.6059 8.45735 14.5889 8.4679 14.5889 8.52796V8.5963H15.3507H16.1124L16.1032 8.53263C16.0958 8.4813 16.0622 8.46121 15.9295 8.42873C15.8104 8.39962 15.7429 8.36322 15.6851 8.29698C15.6127 8.21418 15.0067 6.65244 14.554 5.38262C14.4142 4.99015 14.3835 4.96542 14.2166 5.10994ZM17.4128 5.09864C17.1207 5.11383 17.0777 5.12769 17.0884 5.20349C17.0952 5.25108 17.1193 5.26921 17.1835 5.27474C17.2308 5.27881 17.3175 5.29544 17.3761 5.31166C17.4648 5.33622 17.488 5.35916 17.5141 5.44837C17.5355 5.5214 17.5427 5.99017 17.5365 6.91991L17.5275 8.2843L17.4481 8.3529C17.3991 8.3953 17.3139 8.42884 17.2253 8.44066C17.0701 8.46136 17.0447 8.47963 17.0719 8.55091C17.0877 8.59215 17.1777 8.59636 17.8963 8.58953C18.6701 8.58221 18.7029 8.57964 18.7029 8.52652C18.7029 8.48214 18.6701 8.46456 18.5369 8.43784C18.4456 8.41951 18.3513 8.38489 18.3275 8.36094C18.3037 8.33696 18.2722 8.23421 18.2576 8.13258C18.2279 7.9259 18.2203 7.1562 18.2473 7.0855C18.274 7.01566 18.573 7.02258 18.6647 7.09512C18.7031 7.1255 18.85 7.33447 18.9911 7.55951C19.3952 8.20389 19.6872 8.48557 20.0495 8.58045C20.2231 8.6259 20.5868 8.63976 20.7492 8.60711C20.8763 8.58154 20.8601 8.5177 20.7169 8.47977C20.4031 8.39659 20.1649 8.15209 19.6791 7.41459C19.5173 7.16888 19.3761 6.95208 19.3654 6.9328C19.3526 6.90991 19.4062 6.86708 19.5197 6.80944C19.7529 6.69115 19.9039 6.5484 19.9959 6.35941C20.0636 6.22025 20.0705 6.17817 20.0588 5.98011C20.0324 5.53547 19.8142 5.30973 19.2668 5.16069C19.0757 5.10864 18.9534 5.09999 18.3302 5.09452C17.936 5.09103 17.5232 5.0929 17.4128 5.09864ZM26.1712 5.15107C26.1712 5.21476 26.1864 5.22413 26.3178 5.24165C26.4066 5.2535 26.4941 5.28693 26.54 5.32662L26.6156 5.39205V6.83815V8.28424L26.5362 8.3529C26.4873 8.39518 26.4021 8.42884 26.314 8.44057C26.1882 8.45735 26.1712 8.46775 26.1712 8.52796V8.5963H26.9883H27.8054V8.52825C27.8054 8.46787 27.7888 8.45824 27.6584 8.44271C27.4642 8.41959 27.3833 8.36258 27.3552 8.22905C27.3159 8.04286 27.3273 5.48146 27.3678 5.38948C27.408 5.29823 27.4767 5.26382 27.6692 5.23848C27.7896 5.22266 27.8054 5.2124 27.8054 5.15029V5.07999H26.9883H26.1712V5.15107ZM29.1344 5.1236C29.1076 5.19378 29.173 5.24448 29.3106 5.26004C29.6116 5.29417 29.6827 5.43188 29.6555 5.92889C29.5627 7.62874 29.5232 8.10874 29.4635 8.259C29.4262 8.35275 29.3223 8.41389 29.1543 8.44086C29.0541 8.457 29.0365 8.46971 29.0438 8.52096C29.0523 8.58062 29.0657 8.58206 29.6904 8.58964L30.3283 8.5974V8.52799C30.3283 8.47041 30.31 8.45536 30.2207 8.43954C30.004 8.40109 29.9338 8.36555 29.8966 8.27528C29.8684 8.20683 29.8645 7.94365 29.8792 7.08763C29.8896 6.48277 29.9059 5.95956 29.9154 5.92497C29.9284 5.87733 30.0738 6.14693 30.5136 7.03463C30.8332 7.67952 31.1319 8.30119 31.1773 8.41608C31.2565 8.6161 31.3324 8.6943 31.39 8.63518C31.4031 8.62172 31.532 8.37077 31.6765 8.0775C31.9123 7.59885 32.5598 6.36019 32.7689 5.98789L32.8499 5.84378L32.8505 7.07388C32.8512 8.4187 32.8567 8.37469 32.6843 8.41037C32.4666 8.45542 32.4354 8.4698 32.4354 8.52531C32.4354 8.57996 32.4621 8.58215 33.2167 8.58956L33.9979 8.59722V8.52572C33.9979 8.46141 33.9831 8.45219 33.8514 8.43464C33.633 8.4055 33.5697 8.33641 33.5375 8.09174C33.5229 7.98086 33.5023 7.35631 33.4918 6.70386C33.4706 5.38487 33.4728 5.36432 33.6436 5.29261C33.6955 5.27079 33.7811 5.25292 33.8338 5.25292C33.9536 5.25292 34.0424 5.19194 34.0176 5.12677C34.0012 5.08385 33.9397 5.07959 33.4389 5.08659L32.8786 5.0944L32.7554 5.39703C32.6877 5.56348 32.5736 5.80343 32.502 5.93025C32.4304 6.05706 32.2139 6.45772 32.0209 6.82056C31.5737 7.66125 31.5769 7.65603 31.5394 7.60992C31.401 7.43981 30.4234 5.48705 30.3811 5.29616C30.3635 5.2169 30.3448 5.13585 30.3396 5.11602C30.3324 5.08867 30.1879 5.07999 29.7405 5.07999C29.2408 5.07999 29.1485 5.08662 29.1344 5.1236ZM35.2989 5.12184C35.2729 5.18986 35.3102 5.21961 35.4474 5.24027C35.6445 5.26999 35.6891 5.32181 35.7191 5.55596C35.7332 5.6667 35.7455 6.15938 35.7462 6.6508C35.7472 7.33449 35.7575 7.58672 35.79 7.72498C35.9416 8.37157 36.3937 8.65934 37.2662 8.66444C37.6603 8.66674 37.8791 8.6236 38.1549 8.48917C38.3462 8.39596 38.58 8.16717 38.664 7.99103C38.8047 7.69592 38.8196 7.57202 38.841 6.5211C38.8645 5.36582 38.8699 5.33708 39.0773 5.28019C39.1455 5.26146 39.2336 5.23687 39.273 5.22551C39.3174 5.21275 39.3447 5.18387 39.3447 5.14965C39.3447 5.097 39.3132 5.09403 38.6781 5.08668L38.0116 5.07892V5.14573C38.0116 5.20419 38.033 5.21701 38.1822 5.24799C38.5038 5.31478 38.5276 5.40617 38.5276 6.57411C38.5276 7.25319 38.5184 7.46699 38.4834 7.60309C38.3589 8.08644 38.1309 8.31528 37.6944 8.39489C37.2757 8.47124 36.886 8.33782 36.6857 8.04951C36.4697 7.7387 36.4533 7.6392 36.4412 6.56433C36.4353 6.04121 36.4388 5.55714 36.449 5.48863C36.474 5.3212 36.538 5.2646 36.7296 5.24053C36.8824 5.22133 36.9469 5.17231 36.9062 5.10622C36.8972 5.09149 36.5445 5.07999 36.1025 5.07999C35.4404 5.07999 35.3123 5.08665 35.2989 5.12184ZM18.8752 5.35207C19.0565 5.42819 19.1667 5.53077 19.2489 5.69973C19.3132 5.83179 19.3262 5.89675 19.3254 6.08211C19.3242 6.35941 19.2649 6.51831 19.114 6.64806C18.9715 6.77073 18.7913 6.8229 18.5084 6.82336C18.3413 6.82365 18.2782 6.81287 18.2572 6.7805C18.2403 6.75453 18.2322 6.46317 18.2367 6.05038C18.2456 5.23531 18.2319 5.26733 18.5614 5.29085C18.6728 5.29881 18.814 5.32636 18.8752 5.35207ZM14.2559 6.4376C14.3602 6.71663 14.4456 6.96462 14.4456 6.98866C14.4456 7.04601 14.3068 7.068 13.9422 7.06841C13.5123 7.06887 13.5205 7.09662 13.7681 6.47787C13.8822 6.19253 13.9855 5.93313 13.9975 5.90142C14.0267 5.82461 14.0274 5.82608 14.2559 6.4376Z" fill="#00003D"/>
</svg>
