<svg width="86" height="16" viewBox="0 0 86 16" fill="none" xmlns="http://www.w3.org/2000/svg">
<path d="M58.9195 6.93554C58.9195 7.67313 59.3466 8.04192 60.4714 8.28306C61.4396 8.48164 61.6247 8.72277 61.6247 9.10575C61.6247 9.54547 61.226 9.84334 60.6565 9.84334C60.087 9.84334 59.6314 9.65894 59.133 9.21923L59.1046 9.19086L58.7344 9.61639L58.7629 9.64476C59.3181 10.1412 59.9161 10.3682 60.628 10.3682C61.5535 10.3682 62.2085 9.82915 62.2085 9.0632C62.2085 8.36816 61.7528 7.971 60.7135 7.74405C59.7026 7.53128 59.5175 7.29015 59.5175 6.90717C59.5175 6.48164 59.9019 6.19795 60.4429 6.19795C60.9128 6.19795 61.3257 6.35398 61.7244 6.68022L61.7529 6.70859L62.0946 6.25469L62.0661 6.2405C61.5678 5.84334 61.0979 5.67313 60.4572 5.67313C59.5602 5.67313 58.9195 6.21213 58.9195 6.93554Z" fill="#00003D"/>
<path d="M65.0253 6.28339C65.7799 6.28339 66.2071 6.62382 66.2071 7.21956C66.2071 7.81531 65.723 8.1841 64.9968 8.1841H63.9147V6.26921H65.0253V6.28339ZM63.3737 5.74438H63.3452V10.3118H63.929V8.72311H64.9968C65.8938 8.72311 66.8051 8.25502 66.8051 7.21956C66.8051 6.31176 66.1216 5.74438 65.0823 5.74438H63.3737Z" fill="#00003D"/>
<path d="M71.1199 5.74438H67.8167V10.3118H71.1768V9.78694H68.3862V8.28339H70.8636V7.74438H68.3862V6.26921H71.1484V5.74438H71.1199Z" fill="#00003D"/>
<path d="M76.1463 5.74401H75.5341C75.5341 5.74401 74.0676 7.88586 74.0106 7.97096C73.9537 7.88586 72.5014 5.74401 72.5014 5.74401H71.8037C71.8037 5.74401 73.6974 8.49578 73.7116 8.50997V10.3114H74.2954V8.49578C74.3096 8.4816 76.2033 5.72983 76.2033 5.72983H76.1463V5.74401Z" fill="#00003D"/>
<path d="M80.3894 5.74438H77.0862V10.3118H80.4606V9.78694H77.6699V8.28339H80.1331V7.74438H77.6699V6.26921H80.4321V5.74438H80.3894Z" fill="#00003D"/>
<path d="M83.5189 6.28339C84.2166 6.28339 84.6437 6.60963 84.6437 7.13446C84.6437 7.68765 84.2023 8.04226 83.5189 8.04226H82.1663V6.28339H83.5189ZM81.611 5.74438H81.5825V10.3118H82.1663V8.56708H83.405C83.4192 8.59545 84.7149 10.3118 84.7149 10.3118H85.4268C85.4268 10.3118 84.0884 8.53871 84.0315 8.4536C84.8003 8.29758 85.2417 7.81531 85.2417 7.12027C85.2417 6.75148 85.1136 6.42524 84.8858 6.19829C84.5868 5.90041 84.1169 5.74438 83.5759 5.74438H81.611Z" fill="#00003D"/>
<path d="M29.316 5.74438H25.1443V6.28339H26.9525V10.3118H27.5363V6.28339H29.3588V5.74438H29.316Z" fill="#00003D"/>
<path d="M30.8682 5.74438H30.3271V10.3118H30.9109V5.74438H30.8682Z" fill="#00003D"/>
<path d="M32.205 6.93554C32.205 7.67313 32.6322 8.04192 33.757 8.28306C34.7252 8.48164 34.9103 8.72277 34.9103 9.10575C34.9103 9.54547 34.5116 9.84334 33.9421 9.84334C33.3726 9.84334 32.9169 9.65894 32.4186 9.21923L32.3901 9.19086L32.0342 9.61639L32.0627 9.64476C32.6179 10.1412 33.2159 10.3682 33.9278 10.3682C34.8533 10.3682 35.5083 9.82915 35.5083 9.0632C35.5083 8.36816 35.0527 7.971 34.0133 7.74405C33.0024 7.53128 32.8173 7.29015 32.8173 6.90717C32.8173 6.48164 33.2017 6.19795 33.7428 6.19795C34.2126 6.19795 34.6255 6.35398 35.0242 6.68022L35.0527 6.70859L35.3944 6.25469L35.3659 6.2405C34.8676 5.84334 34.3977 5.67313 33.757 5.67313C32.8458 5.67313 32.205 6.21213 32.205 6.93554Z" fill="#00003D"/>
<path d="M40.2783 5.74438H39.7373V7.74438H37.2029V5.74438H36.6191V10.3118H37.2029V8.28339H39.7373V10.3118H40.321V5.74438H40.2783Z" fill="#00003D"/>
<path d="M49.4618 6.79487L50.3731 8.59629H48.5364L49.4618 6.79487ZM49.4618 5.71686L47.1125 10.3268H47.7106L48.337 9.1353H50.6009L51.1846 10.3268H51.8111L49.4618 5.71686Z" fill="#00003D"/>
<path d="M56.3551 5.74438H55.8283V9.29048C55.7144 9.13445 53.0376 5.74438 53.0376 5.74438H52.4966V10.3118H53.0661V6.68055C53.18 6.83658 55.9422 10.3118 55.9422 10.3118H56.3978V5.74438H56.3551Z" fill="#00003D"/>
<path d="M45.7754 5.74438H45.7611L44.0383 9.20538L42.3155 5.74438H42.2871H41.7175V10.3118H42.2871V6.93587L44.0383 10.3543H44.0668L45.7754 6.95006V10.3118H46.3591V5.74438H45.7754Z" fill="#00003D"/>
<path d="M8.28657 0.822695V0.765957L0.953952 3.37589L0.355952 3.16312L8.28657 0.326241V0.269504L16.203 3.10638L15.4483 3.37589L8.28657 0.822695ZM16.203 3.85816L15.4483 4.12766L14.8361 3.91489L15.5907 3.64539L16.203 3.85816ZM16.203 4.62411L15.4483 4.89362L14.8361 4.68085L15.5907 4.41135L16.203 4.62411ZM16.203 5.39007L15.4483 5.65957L14.8361 5.44681L15.605 5.17731L16.203 5.39007ZM16.203 6.15603L15.4483 6.42553L14.8361 6.21277L15.605 5.94326L16.203 6.15603ZM16.203 6.92199L13.5974 7.84397L12.9851 7.63121L15.605 6.70922L16.203 6.92199ZM16.1318 8.99291L15.4199 9.24823L12.9851 8.38298L13.7113 8.12766L16.1318 8.99291ZM16.1318 9.75887L15.4199 10.0142L14.8219 9.80142L15.548 9.5461L16.1318 9.75887ZM16.1318 10.5248L15.4199 10.7801L14.8219 10.5674L15.548 10.3121L16.1318 10.5248ZM16.146 11.2908L15.4341 11.5461L14.8361 11.3333L15.5622 11.078L16.146 11.2908ZM16.146 12.0567L15.4341 12.3121L14.8361 12.0993L15.5622 11.844L16.146 12.0567ZM16.146 12.8227L8.28657 15.6312V15.6879L0.355952 12.8511L1.11057 12.5816L8.27233 15.1348V15.1915L15.5338 12.6099L16.146 12.8227ZM0.355952 12.0993L1.11057 11.8298L1.72281 12.0426L0.953952 12.3121L0.355952 12.0993ZM0.37019 11.3333L1.12481 11.0638L1.72281 11.2766L0.96819 11.5461L0.37019 11.3333ZM0.37019 10.5674L1.12481 10.2979L1.73705 10.5106L0.982428 10.7801L0.37019 10.5674ZM0.37019 9.80142L1.12481 9.53191L1.73705 9.74468L0.96819 10.0142L0.37019 9.80142ZM0.37019 9.03546L2.79067 8.17021L3.4029 8.38298L0.96819 9.24823L0.37019 9.03546ZM0.384429 6.99291L1.09633 6.73759L3.51681 7.58865L2.79067 7.84397L0.384429 6.99291ZM0.37019 6.22695L1.0821 5.97163L1.6801 6.1844L0.96819 6.43972L0.37019 6.22695ZM0.37019 5.46099L1.0821 5.20567L1.6801 5.41844L0.953952 5.67376L0.37019 5.46099ZM0.37019 4.69504L1.0821 4.43972L1.6801 4.65248L0.953952 4.9078L0.37019 4.69504ZM13.2841 4.12766L8.28657 2.35461V2.29787L3.1039 4.14184L2.5059 3.92908L8.28657 1.85816V1.80142L14.053 3.85816L13.2841 4.12766ZM13.754 4.29787L14.5229 4.02837L15.1351 4.24113L14.3662 4.51064L13.754 4.29787ZM13.2841 4.89362L12.6719 4.68085L13.4408 4.41135L14.053 4.62411L13.2841 4.89362ZM13.754 5.06383L14.5229 4.79433L15.1209 5.00709L14.352 5.2766L13.754 5.06383ZM13.2841 5.65957L12.6719 5.44681L13.4408 5.17731L14.053 5.39007L13.2841 5.65957ZM13.754 5.82979L14.5229 5.56028L15.1351 5.77305L14.3662 6.04255L13.754 5.82979ZM11.4332 7.07801L10.821 6.86525L13.4408 5.94326L14.053 6.15603L11.4332 7.07801ZM11.903 7.24823L14.5229 6.31206L15.1209 6.52482L12.501 7.44681L11.903 7.24823ZM11.4332 7.84397L10.821 7.63121L11.5471 7.37589L12.1593 7.58865L11.4332 7.84397ZM11.903 8.01418L12.6292 7.75887L13.2414 7.97163L12.5153 8.22695L11.903 8.01418ZM11.4332 8.60993L10.821 8.39716L11.5471 8.14184L12.1593 8.35461L11.4332 8.60993ZM11.903 8.78014L12.6292 8.52482L15.0639 9.39007L14.352 9.64539L11.903 8.78014ZM13.2699 10.0284L10.821 9.16312L11.5471 8.9078L13.996 9.77305L13.2699 10.0284ZM13.7398 10.1844L14.4659 9.92908L15.0639 10.1418L14.352 10.3972L13.7398 10.1844ZM13.2699 10.7801L12.6719 10.5674L13.3838 10.3121L13.9818 10.5248L13.2699 10.7801ZM13.7398 10.9504L14.4659 10.695L15.0639 10.9078L14.352 11.1631L13.7398 10.9504ZM13.2699 11.5603L12.6577 11.3475L13.3696 11.0922L13.9818 11.305L13.2699 11.5603ZM13.754 11.7163L14.4801 11.461L15.0781 11.6738L14.3662 11.9291L13.754 11.7163ZM2.8049 11.6596L2.03605 11.9291L1.42381 11.7163L2.19267 11.4468L2.8049 11.6596ZM3.27476 11.0638L3.887 11.2766L3.11814 11.5461L2.5059 11.3333L3.27476 11.0638ZM2.8049 10.8936L2.03605 11.1631L1.43805 10.9504L2.19267 10.6809L2.8049 10.8936ZM3.27476 10.2979L3.887 10.5106L3.11814 10.7801L2.52014 10.5674L3.27476 10.2979ZM2.81914 10.1277L2.05029 10.3972L1.43805 10.1844L2.19267 9.91489L2.81914 10.1277ZM4.95486 8.93617L5.56709 9.14894L3.11814 10.0142L2.5059 9.78723L4.95486 8.93617ZM4.485 8.76596L2.05029 9.63121L1.45229 9.41844L3.887 8.55319L4.485 8.76596ZM3.887 7.78723L4.49924 8L3.98667 8.1844L3.37443 7.97163L3.887 7.78723ZM4.5989 7.20567L3.87276 7.46099L1.45229 6.60993L2.16419 6.35461L4.5989 7.20567ZM3.24629 5.95745L5.66676 6.82269L4.94062 7.07801L2.52014 6.22695L3.24629 5.95745ZM2.77643 5.80142L2.05029 6.05674L1.45229 5.84397L2.16419 5.58865L2.77643 5.80142ZM3.24629 5.20567L3.84429 5.41844L3.11814 5.67376L2.52014 5.46099L3.24629 5.20567ZM2.76219 5.03546L2.05029 5.29078L1.45229 5.07801L2.16419 4.8227L2.76219 5.03546ZM11.1342 4.89362L8.30081 3.88652V3.82979L5.28233 4.9078L4.67009 4.69504L8.30081 3.39007V3.33333L11.903 4.62411L11.1342 4.89362ZM11.604 5.06383L12.3729 4.79433L12.9851 5.00709L12.2163 5.2766L11.604 5.06383ZM9.269 6.31206L8.65676 6.09929L11.2908 5.16312L11.903 5.37589L9.269 6.31206ZM9.73886 6.48227L12.3729 5.5461L12.9709 5.75887L10.3511 6.69504L9.73886 6.48227ZM9.269 7.07801L8.65676 6.86525L9.3829 6.60993L9.99514 6.82269L9.269 7.07801ZM9.73886 7.24823L10.465 6.99291L11.0772 7.20567L10.3511 7.46099L9.73886 7.24823ZM9.269 7.84397L8.65676 7.63121L9.3829 7.37589L9.99514 7.58865L9.269 7.84397ZM9.73886 8.01418L10.465 7.75887L11.0772 7.97163L10.3511 8.22695L9.73886 8.01418ZM9.269 8.60993L8.65676 8.39716L9.3829 8.14184L9.99514 8.35461L9.269 8.60993ZM9.73886 8.78014L10.465 8.52482L11.0772 8.73759L10.3511 8.99291L9.73886 8.78014ZM9.269 9.37589L8.65676 9.16312L9.3829 8.9078L9.99514 9.12057L9.269 9.37589ZM9.73886 9.5461L10.465 9.29078L12.914 10.156L12.1878 10.4113L9.73886 9.5461ZM11.12 10.7943L8.671 9.92908L9.39714 9.67376L11.8461 10.539L11.12 10.7943ZM11.5898 10.9504L12.316 10.695L12.914 10.9078L12.1878 11.1631L11.5898 10.9504ZM4.96909 10.8936L4.20024 11.1773L3.588 10.9645L4.35686 10.695L4.96909 10.8936ZM7.11905 9.70213L7.73128 9.91489L5.26809 10.7801L4.65586 10.5674L7.11905 9.70213ZM6.64919 9.53191L4.20024 10.3972L3.60224 10.1844L6.05119 9.31915L6.64919 9.53191ZM5.56709 8.38298L5.05452 8.56738L4.44229 8.35461L4.95486 8.17021L5.56709 8.38298ZM4.94062 7.41844L5.55286 7.63121L5.05452 7.80142L4.44229 7.58865L4.94062 7.41844ZM6.03695 7.03546L6.64919 7.24823L6.13662 7.43262L5.52438 7.21986L6.03695 7.03546ZM6.74886 6.43972L6.02271 6.69504L3.588 5.82979L4.31414 5.57447L6.74886 6.43972ZM8.30081 6.65248L7.68857 6.43972L8.30081 6.22695L8.91305 6.43972L8.30081 6.65248ZM8.30081 7.41844L7.68857 7.20567L8.30081 6.99291L8.91305 7.20567L8.30081 7.41844ZM8.31505 8.1844L7.70281 7.97163L8.31505 7.75887L8.92729 7.97163L8.31505 8.1844ZM8.30081 8.95035L7.68857 8.73759L8.30081 8.52482L8.91305 8.73759L8.30081 8.95035ZM8.31505 9.71631L7.70281 9.50355L8.31505 9.29078L8.92729 9.50355L8.31505 9.71631ZM6.64919 8.76596L6.15086 8.93617L5.53862 8.7234L6.05119 8.55319L6.64919 8.76596ZM6.64919 8.01418L6.15086 8.19858L5.53862 7.98582L6.03695 7.8156L6.64919 8.01418ZM6.62071 8.35461L7.11905 8.17021L7.73128 8.38298L7.21871 8.56738L6.62071 8.35461ZM7.73128 9.14894L7.23295 9.31915L6.62071 9.10638L7.11905 8.92199L7.73128 9.14894ZM7.71705 7.63121L7.21871 7.80142L6.60648 7.58865L7.10481 7.40426L7.71705 7.63121ZM7.10481 6.65248L7.71705 6.86525L7.21871 7.03546L6.60648 6.82269L7.10481 6.65248ZM8.28657 11.8014V11.8723L5.73795 10.9645L8.30081 10.0567L10.7498 10.922L8.28657 11.8014ZM8.28657 4.15603V4.08511L10.821 4.99291L8.1869 5.92908L5.75219 5.06383L8.28657 4.15603ZM4.20024 5.29078L3.60224 5.07801L4.31414 4.8227L4.92638 5.03546L4.20024 5.29078ZM5.382 5.19149L7.81671 6.05674L7.09057 6.31206L4.65586 5.44681L5.382 5.19149ZM8.28657 12.5674V12.6383L4.67009 11.3333L5.43895 11.0638L8.28657 12.0709V12.1277L11.2339 11.078L11.8461 11.2908L8.28657 12.5674ZM8.28657 13.3333V13.3901L3.588 11.7163L4.35686 11.4468L8.28657 12.8511V12.9078L12.3017 11.4752L12.914 11.6879L8.28657 13.3333ZM8.28657 2.62411V2.55319L12.9709 4.22695L12.202 4.49645L8.28657 3.10638V3.06383L4.186 4.52482L3.57376 4.31206L8.28657 2.62411ZM2.03605 4.52482L1.43805 4.31206L2.14995 4.05674L2.74795 4.2695L2.03605 4.52482ZM3.23205 4.42553L3.84429 4.6383L3.11814 4.89362L2.52014 4.68085L3.23205 4.42553ZM8.28657 14.1135V14.1702L2.5059 12.0993L3.27476 11.8298L8.28657 13.617V13.6738L13.398 11.8582L14.0103 12.0709L8.28657 14.1135ZM8.28657 14.8652V14.922L1.43805 12.4681L2.2069 12.1986L8.30081 14.3688V14.4255L14.4944 12.227L15.0924 12.4397L8.28657 14.8652ZM8.28657 1.0922V1.03546L15.1209 3.47518L14.352 3.74468L8.28657 1.58865V1.53191L2.03605 3.75887L1.43805 3.5461L8.28657 1.0922ZM0.37019 3.92908L1.0821 3.67376L1.6801 3.88652L0.953952 4.14184L0.37019 3.92908ZM16.5874 3.10638V3.00709L8.30081 0.0567376V0L0 2.95035V3.03546V3.29078V3.30496H0.0142381L0.612238 3.51773L0.0142381 3.7305V3.8156V4.07092V4.08511H0.0284762L0.626476 4.29787L0.0142381 4.51064V4.58156V4.83688V4.85106L0.0284762 4.83688L0.626476 5.04965L0.0142381 5.26241V5.33333V5.58865V5.60284L0.0427143 5.58865L0.640714 5.80142L0.0142381 6.02837V6.09929V6.35461V6.38298L0.0427143 6.36879L0.640714 6.58156L0.0142381 6.80851V6.87943V7.13475V7.16312L0.0427143 7.14894L2.44895 8L0.0142381 8.86525V9.10638V9.16312L0.683429 9.40426L0.0142381 9.64539V9.87234V9.94326L0.66919 10.1844L0.0142381 10.4255V10.6525V10.7234L0.66919 10.9504L0.0142381 11.1915V11.4043V11.4894L0.66919 11.7163L0.0142381 11.9433V12.1277V12.2411L0.66919 12.4681L0.0142381 12.695V12.8794V12.9929L8.30081 15.9433V16L16.6016 13.0496V13.0071V12.7518L15.9182 12.5106L16.6016 12.2695V12.2411V11.9858L15.904 11.7163L16.5874 11.4752V11.1915L15.904 10.9504L16.5874 10.7092V10.4397L15.8897 10.1986L16.5874 9.95745V9.68794L15.8897 9.44681L16.5874 9.20567V8.9078L14.053 8.01418L16.5874 7.12057V6.92199V6.83688L15.904 6.59574L16.5874 6.35461V6.07092L15.9182 5.82979L16.5874 5.58865V5.31915L15.9182 5.07801L16.5874 4.83688V4.52482L15.9182 4.28369L16.5874 4.04255V3.84397V3.77305L15.9182 3.53191L16.5874 3.29078V3.10638Z" fill="#00003D"/>
</svg>
