<svg width="166" height="28" viewBox="0 0 166 28" fill="none" xmlns="http://www.w3.org/2000/svg">
<path d="M105.316 11.8774C105.316 13.5585 106.294 14.3991 108.868 14.9487C111.085 15.4013 111.508 15.9509 111.508 16.8239C111.508 17.8261 110.596 18.505 109.292 18.505C107.988 18.505 106.946 18.0847 105.805 17.0825L105.74 17.0178L104.892 17.9877L104.958 18.0524C106.229 19.1839 107.597 19.7012 109.227 19.7012C111.345 19.7012 112.844 18.4727 112.844 16.7269C112.844 15.1427 111.802 14.2375 109.422 13.7202C107.108 13.2352 106.685 12.6856 106.685 11.8127C106.685 10.8428 107.565 10.1962 108.803 10.1962C109.879 10.1962 110.824 10.5518 111.736 11.2954L111.802 11.3601L112.584 10.3255L112.519 10.2932C111.378 9.38796 110.302 9 108.836 9C106.783 9 105.316 10.2285 105.316 11.8774Z" fill="#111827"/>
<path d="M119.298 10.3902C121.025 10.3902 122.003 11.1661 122.003 12.5239C122.003 13.8818 120.895 14.7224 119.232 14.7224H116.756V10.3578H119.298V10.3902ZM115.517 9.16162H115.452V19.5719H116.788V15.9509H119.232C121.286 15.9509 123.371 14.884 123.371 12.5239C123.371 10.4548 121.807 9.16162 119.428 9.16162H115.517Z" fill="#111827"/>
<path d="M133.246 9.16162H125.685V19.5719H133.377V18.3757H126.989V14.9487H132.66V13.7201H126.989V10.3578H133.312V9.16162H133.246Z" fill="#111827"/>
<path d="M144.751 9.16172H143.349C143.349 9.16172 139.992 14.0436 139.862 14.2375C139.732 14.0436 136.407 9.16172 136.407 9.16172H134.811C134.811 9.16172 139.145 15.4337 139.178 15.4661V19.572H140.514V15.4337C140.547 15.4014 144.881 9.12939 144.881 9.12939H144.751V9.16172Z" fill="#111827"/>
<path d="M154.463 9.16162H146.902V19.5719H154.626V18.3757H148.238V14.9487H153.876V13.7201H148.238V10.3578H154.561V9.16162H154.463Z" fill="#111827"/>
<path d="M161.633 10.3902C163.23 10.3902 164.207 11.1338 164.207 12.33C164.207 13.5908 163.197 14.3991 161.633 14.3991H158.537V10.3902H161.633ZM157.266 9.16162H157.2V19.5719H158.537V15.5953H161.372C161.405 15.6599 164.37 19.5719 164.37 19.5719H166C166 19.5719 162.936 15.5306 162.806 15.3366C164.566 14.981 165.576 13.8818 165.576 12.2976C165.576 11.4571 165.283 10.7135 164.761 10.1962C164.077 9.51725 163.002 9.16162 161.763 9.16162H157.266Z" fill="#111827"/>
<path d="M37.5598 9.16162H28.0107V10.3902H32.1498V19.5719H33.486V10.3902H37.6576V9.16162H37.5598Z" fill="#111827"/>
<path d="M41.1118 9.16162H39.8738V19.5719H41.2095V9.16162H41.1118Z" fill="#111827"/>
<path d="M44.1758 11.8774C44.1758 13.5585 45.1535 14.3991 47.7281 14.9487C49.9443 15.4013 50.368 15.9509 50.368 16.8239C50.368 17.8261 49.4554 18.505 48.1518 18.505C46.8482 18.505 45.8053 18.0847 44.6646 17.0825L44.5994 17.0178L43.7847 17.9877L43.8498 18.0524C45.1209 19.1839 46.4897 19.7012 48.1192 19.7012C50.2376 19.7012 51.7368 18.4727 51.7368 16.7269C51.7368 15.1427 50.6939 14.2375 48.3148 13.7202C46.0008 13.2352 45.5772 12.6856 45.5772 11.8127C45.5772 10.8428 46.4571 10.1962 47.6956 10.1962C48.771 10.1962 49.7162 10.5518 50.6287 11.2954L50.6939 11.3601L51.4761 10.3255L51.4109 10.2932C50.2702 9.38796 49.1947 9 47.7281 9C45.6423 9 44.1758 10.2285 44.1758 11.8774Z" fill="#111827"/>
<path d="M62.6551 9.16162H61.4167V13.7201H55.6155V9.16162H54.2793V19.5719H55.6155V14.9487H61.4167V19.5719H62.7529V9.16162H62.6551Z" fill="#111827"/>
<path d="M83.6758 11.554L85.7616 15.6599H81.5574L83.6758 11.554ZM83.6758 9.09692L78.2983 19.6042H79.6672L81.1011 16.8885H86.2831L87.6193 19.6042H89.0533L83.6758 9.09692Z" fill="#111827"/>
<path d="M99.4495 9.16162H98.2437V17.2441C97.9829 16.8885 91.8559 9.16162 91.8559 9.16162H90.6174V19.5719H91.9211V11.2954C92.1818 11.651 98.5044 19.5719 98.5044 19.5719H99.5473V9.16162H99.4495Z" fill="#111827"/>
<path d="M75.2349 9.16162H75.2023L71.2588 17.0501L67.3153 9.16162H67.2502H65.9465V19.5719H67.2502V11.8773L71.2588 19.6689H71.324L75.2349 11.9097V19.5719H76.5711V9.16162H75.2349Z" fill="#111827"/>
<path d="M13.003 2.78546V2.69681L1.4969 6.77482L0.558546 6.44238L13.003 2.00975V1.9211L25.425 6.35372L24.2409 6.77482L13.003 2.78546ZM25.425 7.52837L24.2409 7.94947L23.2802 7.61702L24.4643 7.19592L25.425 7.52837ZM25.425 8.72518L24.2409 9.14628L23.2802 8.81383L24.4643 8.39273L25.425 8.72518ZM25.425 9.92199L24.2409 10.3431L23.2802 10.0106L24.4867 9.58954L25.425 9.92199ZM25.425 11.1188L24.2409 11.5399L23.2802 11.2074L24.4867 10.7863L25.425 11.1188ZM25.425 12.3156L21.3365 13.7562L20.3758 13.4238L24.4867 11.9832L25.425 12.3156ZM25.3133 15.5514L24.1962 15.9504L20.3758 14.5984L21.5152 14.1995L25.3133 15.5514ZM25.3133 16.7482L24.1962 17.1472L23.2579 16.8147L24.3973 16.4158L25.3133 16.7482ZM25.3133 17.945L24.1962 18.344L23.2579 18.0115L24.3973 17.6126L25.3133 17.945ZM25.3357 19.1418L24.2186 19.5408L23.2802 19.2083L24.4196 18.8094L25.3357 19.1418ZM25.3357 20.3387L24.2186 20.7376L23.2802 20.4051L24.4196 20.0062L25.3357 20.3387ZM25.3357 21.5355L13.003 25.9238V26.0124L0.558546 21.5798L1.74266 21.1587L12.9806 25.148V25.2367L24.375 21.203L25.3357 21.5355ZM0.558546 20.4051L1.74266 19.984L2.70336 20.3165L1.4969 20.7376L0.558546 20.4051ZM0.580888 19.2083L1.76501 18.7872L2.70336 19.1197L1.51925 19.5408L0.580888 19.2083ZM0.580888 18.0115L1.76501 17.5904L2.7257 17.9229L1.54159 18.344L0.580888 18.0115ZM0.580888 16.8147L1.76501 16.3936L2.7257 16.7261L1.51925 17.1472L0.580888 16.8147ZM0.580888 15.6179L4.379 14.266L5.3397 14.5984L1.51925 15.9504L0.580888 15.6179ZM0.60323 12.4264L1.72032 12.0275L5.51844 13.3573L4.379 13.7562L0.60323 12.4264ZM0.580888 11.2296L1.69798 10.8307L2.63634 11.1631L1.51925 11.5621L0.580888 11.2296ZM0.580888 10.0328L1.69798 9.63387L2.63634 9.96631L1.4969 10.3652L0.580888 10.0328ZM0.580888 8.83599L1.69798 8.43706L2.63634 8.7695L1.4969 9.16844L0.580888 8.83599ZM20.8449 7.94947L13.003 5.17908V5.09043L4.87052 7.97163L3.93216 7.63918L13.003 4.40337V4.31472L22.0514 7.52837L20.8449 7.94947ZM21.5822 8.21543L22.7887 7.79433L23.7494 8.12677L22.5429 8.54787L21.5822 8.21543ZM20.8449 9.14628L19.8842 8.81383L21.0907 8.39273L22.0514 8.72518L20.8449 9.14628ZM21.5822 9.41223L22.7887 8.99113L23.727 9.32358L22.5206 9.74468L21.5822 9.41223ZM20.8449 10.3431L19.8842 10.0106L21.0907 9.58954L22.0514 9.92199L20.8449 10.3431ZM21.5822 10.609L22.7887 10.1879L23.7494 10.5204L22.5429 10.9415L21.5822 10.609ZM17.9405 12.5594L16.9798 12.227L21.0907 10.7863L22.0514 11.1188L17.9405 12.5594ZM18.6778 12.8254L22.7887 11.3626L23.727 11.695L19.6161 13.1356L18.6778 12.8254ZM17.9405 13.7562L16.9798 13.4238L18.1192 13.0248L19.0799 13.3573L17.9405 13.7562ZM18.6778 14.0222L19.8172 13.6232L20.7779 13.9557L19.6385 14.3546L18.6778 14.0222ZM17.9405 14.953L16.9798 14.6206L18.1192 14.2216L19.0799 14.5541L17.9405 14.953ZM18.6778 15.219L19.8172 14.82L23.6377 16.172L22.5206 16.5709L18.6778 15.219ZM20.8226 17.1693L16.9798 15.8174L18.1192 15.4184L21.962 16.7704L20.8226 17.1693ZM21.5599 17.4131L22.6993 17.0142L23.6377 17.3466L22.5206 17.7456L21.5599 17.4131ZM20.8226 18.344L19.8842 18.0115L21.0013 17.6126L21.9397 17.945L20.8226 18.344ZM21.5599 18.6099L22.6993 18.211L23.6377 18.5434L22.5206 18.9424L21.5599 18.6099ZM20.8226 19.5629L19.8619 19.2305L20.979 18.8316L21.9397 19.164L20.8226 19.5629ZM21.5822 19.8067L22.7217 19.4078L23.66 19.7402L22.5429 20.1392L21.5822 19.8067ZM4.40134 19.7181L3.19488 20.1392L2.23418 19.8067L3.44064 19.3856L4.40134 19.7181ZM5.13862 18.7872L6.09932 19.1197L4.89286 19.5408L3.93216 19.2083L5.13862 18.7872ZM4.40134 18.5213L3.19488 18.9424L2.25653 18.6099L3.44064 18.1888L4.40134 18.5213ZM5.13862 17.5904L6.09932 17.9229L4.89286 18.344L3.95451 18.0115L5.13862 17.5904ZM4.42369 17.3245L3.21723 17.7456L2.25653 17.4131L3.44064 16.992L4.42369 17.3245ZM7.77496 15.4628L8.73566 15.7952L4.89286 17.1472L3.93216 16.7926L7.77496 15.4628ZM7.03768 15.1968L3.21723 16.5488L2.27887 16.2163L6.09932 14.8644L7.03768 15.1968ZM6.09932 13.6676L7.06002 14L6.25572 14.2881L5.29502 13.9557L6.09932 13.6676ZM7.21642 12.7589L6.07698 13.1578L2.27887 11.828L3.39596 11.4291L7.21642 12.7589ZM5.09394 10.8085L8.89205 12.1605L7.75262 12.5594L3.95451 11.2296L5.09394 10.8085ZM4.35666 10.5647L3.21723 10.9637L2.27887 10.6312L3.39596 10.2323L4.35666 10.5647ZM5.09394 9.63387L6.0323 9.96631L4.89286 10.3652L3.95451 10.0328L5.09394 9.63387ZM4.33432 9.36791L3.21723 9.76684L2.27887 9.4344L3.39596 9.03546L4.33432 9.36791ZM17.4713 9.14628L13.0253 7.57269V7.48404L8.28882 9.16844L7.32812 8.83599L13.0253 6.79699V6.70833L18.6778 8.72518L17.4713 9.14628ZM18.2086 9.41223L19.4151 8.99113L20.3758 9.32358L19.1693 9.74468L18.2086 9.41223ZM14.5445 11.3626L13.5838 11.0301L17.7171 9.56738L18.6778 9.89982L14.5445 11.3626ZM15.2818 11.6285L19.4151 10.1658L20.3534 10.4982L16.2425 11.961L15.2818 11.6285ZM14.5445 12.5594L13.5838 12.227L14.7233 11.828L15.684 12.1605L14.5445 12.5594ZM15.2818 12.8254L16.4213 12.4264L17.382 12.7589L16.2425 13.1578L15.2818 12.8254ZM14.5445 13.7562L13.5838 13.4238L14.7233 13.0248L15.684 13.3573L14.5445 13.7562ZM15.2818 14.0222L16.4213 13.6232L17.382 13.9557L16.2425 14.3546L15.2818 14.0222ZM14.5445 14.953L13.5838 14.6206L14.7233 14.2216L15.684 14.5541L14.5445 14.953ZM15.2818 15.219L16.4213 14.82L17.382 15.1525L16.2425 15.5514L15.2818 15.219ZM14.5445 16.1498L13.5838 15.8174L14.7233 15.4184L15.684 15.7509L14.5445 16.1498ZM15.2818 16.4158L16.4213 16.0168L20.2641 17.3688L19.1246 17.7677L15.2818 16.4158ZM17.449 18.3661L13.6062 17.0142L14.7456 16.6152L18.5884 17.9672L17.449 18.3661ZM18.1863 18.6099L19.3257 18.211L20.2641 18.5434L19.1246 18.9424L18.1863 18.6099ZM7.7973 18.5213L6.59084 18.9645L5.63015 18.6321L6.8366 18.211L7.7973 18.5213ZM11.1709 16.6596L12.1316 16.992L8.26648 18.344L7.30578 18.0115L11.1709 16.6596ZM10.4336 16.3936L6.59084 17.7456L5.65249 17.4131L9.49528 16.0612L10.4336 16.3936ZM8.73566 14.5984L7.93135 14.8865L6.97066 14.5541L7.77496 14.266L8.73566 14.5984ZM7.75262 13.0913L8.71332 13.4238L7.93135 13.6897L6.97066 13.3573L7.75262 13.0913ZM9.47294 12.4929L10.4336 12.8254L9.62933 13.1135L8.66864 12.781L9.47294 12.4929ZM10.59 11.5621L9.4506 11.961L5.63015 10.609L6.76958 10.2101L10.59 11.5621ZM13.0253 11.8945L12.0646 11.5621L13.0253 11.2296L13.986 11.5621L13.0253 11.8945ZM13.0253 13.0913L12.0646 12.7589L13.0253 12.4264L13.986 12.7589L13.0253 13.0913ZM13.0476 14.2881L12.0869 13.9557L13.0476 13.6232L14.0083 13.9557L13.0476 14.2881ZM13.0253 15.4849L12.0646 15.1525L13.0253 14.82L13.986 15.1525L13.0253 15.4849ZM13.0476 16.6817L12.0869 16.3493L13.0476 16.0168L14.0083 16.3493L13.0476 16.6817ZM10.4336 15.1968L9.65168 15.4628L8.69098 15.1303L9.49528 14.8644L10.4336 15.1968ZM10.4336 14.0222L9.65168 14.3103L8.69098 13.9778L9.47294 13.7119L10.4336 14.0222ZM10.389 14.5541L11.1709 14.266L12.1316 14.5984L11.3273 14.8865L10.389 14.5541ZM12.1316 15.7952L11.3497 16.0612L10.389 15.7287L11.1709 15.4406L12.1316 15.7952ZM12.1093 13.4238L11.3273 13.6897L10.3666 13.3573L11.1486 13.0691L12.1093 13.4238ZM11.1486 11.8945L12.1093 12.227L11.3273 12.4929L10.3666 12.1605L11.1486 11.8945ZM13.003 19.9397V20.0505L9.00376 18.6321L13.0253 17.2137L16.8681 18.5656L13.003 19.9397ZM13.003 7.99379V7.88298L16.9798 9.30142L12.8466 10.7642L9.02611 9.41223L13.003 7.99379ZM6.59084 9.76684L5.65249 9.4344L6.76958 9.03546L7.73028 9.36791L6.59084 9.76684ZM8.44522 9.6117L12.2657 10.9637L11.1262 11.3626L7.30578 10.0106L8.44522 9.6117ZM13.003 21.1365V21.2473L7.32812 19.2083L8.53458 18.7872L13.003 20.3608V20.4495L17.6277 18.8094L18.5884 19.1418L13.003 21.1365ZM13.003 22.3333V22.422L5.63015 19.8067L6.8366 19.3856L13.003 21.5798V21.6684L19.3034 19.43L20.2641 19.7624L13.003 22.3333ZM13.003 5.60018V5.48936L20.3534 8.10461L19.147 8.52571L13.003 6.35372V6.28723L6.5685 8.57003L5.6078 8.23759L13.003 5.60018ZM3.19488 8.57003L2.25653 8.23759L3.37362 7.83865L4.31198 8.1711L3.19488 8.57003ZM5.0716 8.41489L6.0323 8.74734L4.89286 9.14628L3.95451 8.81383L5.0716 8.41489ZM13.003 23.5523V23.641L3.93216 20.4051L5.13862 19.984L13.003 22.7766V22.8652L21.0237 20.0284L21.9844 20.3608L13.003 23.5523ZM13.003 24.7269V24.8156L2.25653 20.9814L3.46299 20.5603L13.0253 23.9512V24.0399L22.744 20.6046L23.6824 20.9371L13.003 24.7269ZM13.003 3.20656V3.11791L23.727 6.92996L22.5206 7.35106L13.003 3.98227V3.89362L3.19488 7.37323L2.25653 7.04078L13.003 3.20656ZM0.580888 7.63918L1.69798 7.24025L2.63634 7.57269L1.4969 7.97163L0.580888 7.63918ZM26.0282 6.35372V6.19858L13.0253 1.58865V1.5L0 6.10993V6.24291V6.64184V6.66401H0.0223418L0.960699 6.99645L0.0223418 7.3289V7.46188V7.86082V7.88298H0.0446837L0.983041 8.21543L0.0223418 8.54787V8.65869V9.05762V9.07979L0.0446837 9.05762L0.983041 9.39007L0.0223418 9.72252V9.83333V10.2323V10.2544L0.0670255 10.2323L1.00538 10.5647L0.0223418 10.9193V11.0301V11.4291V11.4734L0.0670255 11.4512L1.00538 11.7837L0.0223418 12.1383V12.2491V12.648V12.6924L0.0670255 12.6702L3.8428 14L0.0223418 15.3519V15.7287V15.8174L1.07241 16.1941L0.0223418 16.5709V16.9255V17.0363L1.05007 17.4131L0.0223418 17.7899V18.1445V18.2553L1.05007 18.6099L0.0223418 18.9867V19.3191V19.4521L1.05007 19.8067L0.0223418 20.1613V20.4495V20.6268L1.05007 20.9814L0.0223418 21.336V21.6241V21.8014L13.0253 26.4113V26.5L26.0506 21.8901V21.8236V21.4246L24.9782 21.0479L26.0506 20.6711V20.6268V20.2278L24.9558 19.8067L26.0282 19.43V18.9867L24.9558 18.6099L26.0282 18.2332V17.8121L24.9335 17.4353L26.0282 17.0585V16.6374L24.9335 16.2606L26.0282 15.8839V15.4184L22.0514 14.0222L26.0282 12.6259V12.3156V12.1826L24.9558 11.8059L26.0282 11.4291V10.9858L24.9782 10.609L26.0282 10.2323V9.81117L24.9782 9.4344L26.0282 9.05762V8.57003L24.9782 8.19326L26.0282 7.81649V7.50621V7.39539L24.9782 7.01862L26.0282 6.64184V6.35372Z" fill="#111827"/>
</svg>
