<svg width="75" height="16" viewBox="0 0 75 16" fill="none" xmlns="http://www.w3.org/2000/svg">
<path fill-rule="evenodd" clip-rule="evenodd" d="M4.71508 4.21259C4.71508 5.20091 4.69519 6.39435 4.75486 7.58779C4.75486 7.69968 4.77475 7.81156 4.79464 7.92345C4.87421 8.40828 4.97366 8.50152 5.49082 8.53882C5.61016 8.53882 5.7494 8.53882 5.86874 8.55746C5.92841 8.55746 6.00798 8.57611 5.98808 8.66935C5.98808 8.74394 5.90852 8.76259 5.84885 8.76259C5.80907 8.76259 5.7494 8.76259 5.70961 8.76259C4.65541 8.76259 3.6012 8.76259 2.56689 8.76259C2.52711 8.76259 2.46743 8.76259 2.42765 8.76259C2.34809 8.76259 2.30831 8.72529 2.28842 8.6507C2.28842 8.57611 2.34809 8.55746 2.40776 8.53882C2.44754 8.53882 2.46743 8.53882 2.50721 8.53882C3.06415 8.50152 3.12383 8.46423 3.20339 7.9421C3.30284 7.28943 3.28295 6.63677 3.28295 5.9841C3.28295 4.32447 3.28295 2.66484 3.28295 0.986561C3.28295 0.818733 3.24317 0.781438 3.06415 0.781438C2.38787 0.800086 1.73148 0.800086 1.05519 0.856028C0.63749 0.893324 0.418692 1.13574 0.279457 1.49005C0.259567 1.56464 0.259567 1.71382 0.100441 1.67652C-0.0387936 1.63923 0.000987712 1.50869 0.0208784 1.4341C0.0805505 1.00521 0.160113 0.576315 0.279457 0.147422C0.299348 0.0541841 0.35902 -0.0390537 0.498255 0.016889C0.975631 0.203364 1.49279 0.166069 2.00995 0.184717C3.6012 0.203364 5.21235 0.184717 6.8036 0.184717C7.06218 0.184717 7.32076 0.128774 7.57934 0.0728316C7.73847 0.0355365 7.81803 0.0728317 7.81803 0.24066C7.79814 0.706848 7.79814 1.17304 7.77825 1.63923C7.77825 1.71382 7.77825 1.80705 7.67879 1.80705C7.57934 1.80705 7.55945 1.73246 7.55945 1.67652C7.53956 1.4714 7.53956 1.28492 7.36054 1.13574C7.14174 0.967914 6.88317 0.893324 6.62459 0.874676C6.04776 0.818733 5.47093 0.837381 4.8941 0.818733C4.71508 0.818733 4.75486 0.911971 4.75486 1.00521C4.71508 1.97488 4.71508 3.0005 4.71508 4.21259Z" fill="#00003D"/>
<path fill-rule="evenodd" clip-rule="evenodd" d="M24.8656 8.76224C24.428 8.76224 23.9904 8.76224 23.5528 8.76224C23.4732 8.76224 23.3738 8.76224 23.3738 8.669C23.3738 8.55711 23.4732 8.53847 23.5528 8.55711C24.1893 8.59441 24.5274 8.24011 24.7263 7.73662C25.2435 6.44994 25.7806 5.16326 26.2977 3.89523C26.7751 2.72043 27.2525 1.54564 27.7298 0.37084C27.7895 0.22166 27.8094 -0.00211108 28.0282 0.0165365C28.247 0.0165365 28.2669 0.240307 28.3266 0.389487C29.2614 2.64584 30.1963 4.90219 31.1113 7.15855C31.2505 7.4942 31.4096 7.81121 31.6085 8.10957C31.8273 8.40793 32.1257 8.57576 32.5036 8.55711C32.5633 8.55711 32.6229 8.55711 32.6627 8.55711C32.7025 8.55711 32.7622 8.57576 32.7622 8.63171C32.7622 8.7063 32.7224 8.72494 32.6627 8.74359C32.6031 8.76224 32.5434 8.76224 32.5036 8.76224C31.6682 8.76224 30.8527 8.74359 30.0173 8.74359C29.9775 8.74359 29.9377 8.74359 29.8979 8.72494C29.8383 8.7063 29.7388 8.72494 29.7189 8.65035C29.699 8.55711 29.7985 8.55711 29.8581 8.53847C29.9974 8.50117 30.0173 8.38929 29.9775 8.29605C29.6791 7.51285 29.3808 6.7483 29.0824 5.9651C29.0426 5.87187 28.983 5.85322 28.8835 5.85322C28.0879 5.85322 27.2922 5.85322 26.4966 5.85322C26.4171 5.85322 26.3574 5.85322 26.3176 5.92781C26.059 6.63642 25.701 7.30773 25.5419 8.05363C25.4623 8.40793 25.6015 8.53847 25.9795 8.53847C26.0988 8.53847 26.3176 8.46388 26.2977 8.65035C26.2977 8.83683 26.0789 8.74359 25.9596 8.74359C25.6214 8.76224 25.2435 8.76224 24.8656 8.76224ZM27.7497 2.31019C27.7099 2.32883 27.6901 2.34748 27.6901 2.34748C27.3519 3.26121 26.9939 4.17494 26.6557 5.08867C26.5961 5.23785 26.6756 5.2565 26.795 5.2565C27.3917 5.2565 28.0083 5.2565 28.605 5.2565C28.8039 5.2565 28.8437 5.2192 28.7642 5.05138C28.426 4.15629 28.0879 3.24256 27.7497 2.31019Z" fill="#00003D"/>
<path fill-rule="evenodd" clip-rule="evenodd" d="M39.2245 4.77321C38.8267 5.55641 38.4289 6.33961 38.0311 7.1228C37.7924 7.58899 37.5537 8.05518 37.3349 8.50272C37.2951 8.59596 37.2553 8.70784 37.1161 8.72649C36.9768 8.74514 36.9172 8.61461 36.8774 8.52137C36.3403 7.57034 35.8431 6.60067 35.3657 5.61235C35.2464 5.35129 35.1071 5.09022 34.948 4.79186C34.8286 5.72424 34.7093 6.60067 34.6099 7.47711C34.59 7.68223 34.5502 7.906 34.5303 8.11112C34.4905 8.40948 34.5502 8.48407 34.8684 8.54002C34.9281 8.55866 35.0077 8.55866 35.0872 8.55866C35.1469 8.55866 35.2066 8.57731 35.2066 8.6519C35.2066 8.72649 35.1469 8.74514 35.0673 8.74514C34.4706 8.74514 33.854 8.74514 33.2573 8.74514C33.1976 8.74514 33.1379 8.72649 33.1379 8.67055C33.1379 8.59596 33.1976 8.57731 33.2573 8.57731C33.7148 8.50272 33.7744 8.44678 33.854 7.99924C34.1325 6.26502 34.4109 4.53079 34.6695 2.79657C34.6894 2.72198 34.6894 2.66604 34.7093 2.6101C34.769 2.47956 34.9082 2.44227 35.0077 2.5728C35.0872 2.68469 35.1668 2.81522 35.2265 2.94575C35.9425 4.34432 36.6387 5.76153 37.3548 7.1601C37.4343 7.1228 37.4542 7.04821 37.4741 6.97362C38.1703 5.57506 38.8665 4.17649 39.5626 2.77792V2.75928C39.6223 2.64739 39.6621 2.49821 39.8212 2.51686C40.0002 2.53551 40.0002 2.70333 40.0201 2.83387C40.2787 4.54944 40.5572 6.26502 40.8157 7.98059C40.8953 8.44678 41.0544 8.55866 41.5517 8.59596C41.6313 8.59596 41.7506 8.55866 41.7506 8.6892C41.7506 8.80108 41.6313 8.78243 41.5517 8.78243C40.955 8.78243 40.3583 8.78243 39.7615 8.74514C39.6223 8.74514 39.4234 8.74514 39.6422 8.54002C39.7019 8.48407 39.7019 8.40948 39.682 8.35354C39.5229 7.17875 39.3637 6.00395 39.2046 4.81051C39.2444 4.77321 39.2444 4.77321 39.2245 4.77321Z" fill="#00003D"/>
<path fill-rule="evenodd" clip-rule="evenodd" d="M50.1047 5.47972C50.1047 4.78976 50.1047 4.0998 50.1047 3.3912C50.1047 2.92501 49.9853 2.81312 49.4881 2.79448C49.4483 2.79448 49.4085 2.79448 49.3687 2.79448C49.3091 2.77583 49.2494 2.75718 49.2693 2.70124C49.2693 2.6453 49.329 2.62665 49.3687 2.62665C49.4085 2.62665 49.4682 2.62665 49.508 2.62665C50.3832 2.62665 51.2385 2.62665 52.1137 2.62665C52.3921 2.62665 52.6905 2.66394 52.969 2.73853C53.9038 2.98095 54.3613 3.87603 53.9635 4.71517C53.7646 5.12542 53.4463 5.46108 53.0883 5.75944C53.0087 5.83403 52.9491 5.87132 53.0485 5.98321C53.6055 6.67317 54.1624 7.36313 54.779 8.01579C55.0774 8.31415 55.3956 8.57522 55.873 8.59386C55.9526 8.59386 56.0122 8.61251 56.0122 8.6871C56.0122 8.74304 55.9526 8.76169 55.8929 8.76169C55.4553 8.76169 54.9978 8.79899 54.5602 8.74304C54.1425 8.6871 53.8441 8.46333 53.5856 8.16497C53.1281 7.64284 52.7303 7.06476 52.3324 6.46804C52.2131 6.28157 52.0739 6.20698 51.8352 6.20698C51.2385 6.22563 51.2186 6.20698 51.2584 6.78505C51.2782 7.23259 51.2385 7.66149 51.2981 8.10903C51.3578 8.50063 51.4374 8.55657 51.8352 8.57522C51.9346 8.57522 52.1137 8.51927 52.1137 8.66845C52.1137 8.83628 51.9346 8.76169 51.8153 8.76169C51.0992 8.76169 50.4031 8.76169 49.687 8.76169C49.6074 8.76169 49.4682 8.81763 49.4483 8.6871C49.4483 8.55657 49.5875 8.59386 49.6671 8.59386C49.9853 8.57522 50.0848 8.48198 50.1047 8.12768C50.1445 7.53095 50.1445 6.93423 50.1445 6.33751C50.1246 6.03915 50.1246 5.75944 50.1047 5.47972ZM51.6761 3.05554C51.5766 3.05554 51.4772 3.07419 51.3578 3.07419C51.2385 3.07419 51.1987 3.13013 51.1987 3.24202C51.1987 4.02521 51.1987 4.78976 51.1987 5.57296C51.1987 5.6662 51.2385 5.72214 51.3379 5.75944C52.1137 6.0205 52.8098 5.68485 52.969 4.93894C53.0087 4.80841 53.0286 4.65923 53.0286 4.51005C53.0485 3.59632 52.5314 3.05554 51.6761 3.05554Z" fill="#00003D"/>
<path fill-rule="evenodd" clip-rule="evenodd" d="M11.0396 2.62682C11.6164 2.64547 12.1932 2.58953 12.77 2.66412C14.2022 2.8133 14.5801 4.13727 13.8839 5.051C13.685 5.31207 13.4463 5.55449 13.1679 5.77826C13.0883 5.85285 13.0684 5.89014 13.148 5.98338C13.7049 6.67334 14.2618 7.3633 14.8785 8.01596C15.1768 8.31432 15.4951 8.57539 15.9724 8.59404C16.052 8.59404 16.1117 8.63133 16.1117 8.68727C16.1117 8.74322 16.052 8.76186 15.9923 8.76186C15.5547 8.74322 15.0973 8.79916 14.6597 8.74322C14.242 8.68727 13.9436 8.4635 13.685 8.16514C13.2275 7.64301 12.8297 7.06494 12.4319 6.46822C12.3126 6.28174 12.1733 6.20715 11.9346 6.20715C11.3379 6.2258 11.318 6.20715 11.3578 6.78522C11.3777 7.23277 11.3379 7.68031 11.3976 8.12785C11.4573 8.48215 11.5169 8.53809 11.9147 8.57539C12.0142 8.57539 12.2131 8.51945 12.2131 8.66863C12.2131 8.83645 12.0142 8.76186 11.8949 8.76186C11.1987 8.76186 10.5025 8.76186 9.80633 8.76186C9.72677 8.76186 9.58753 8.81781 9.56764 8.68727C9.56764 8.55674 9.70688 8.59404 9.78644 8.59404C10.1047 8.57539 10.2041 8.48215 10.224 8.14649C10.2439 7.73625 10.2638 7.326 10.2638 6.91576C10.2638 5.74096 10.2638 4.56617 10.2638 3.41002C10.2638 2.94383 10.1445 2.83195 9.64721 2.8133C9.60742 2.8133 9.58753 2.8133 9.54775 2.8133C9.48808 2.79465 9.40852 2.79465 9.42841 2.70141C9.42841 2.64547 9.50797 2.62682 9.56764 2.62682C9.70688 2.62682 9.84611 2.62682 10.0052 2.62682C10.1843 2.62682 10.3633 2.62682 10.5622 2.62682C10.7014 2.62682 10.8605 2.62682 11.0396 2.62682ZM11.3379 4.41699C11.3379 4.78994 11.3379 5.14424 11.3379 5.51719C11.3379 5.61043 11.318 5.70367 11.4573 5.74096C12.2728 5.90879 12.77 5.85285 13.0883 5.06965C13.148 4.90182 13.1877 4.71535 13.1877 4.52887C13.1877 3.68973 12.77 2.98113 11.5766 3.09301C11.4175 3.11166 11.3578 3.14895 11.3578 3.31678C11.3379 3.65244 11.3379 4.02539 11.3379 4.41699Z" fill="#00003D"/>
<path fill-rule="evenodd" clip-rule="evenodd" d="M17.1289 4.86513C17.1289 4.39894 17.1289 3.85817 17.1289 3.33603C17.1289 2.92579 16.9896 2.8139 16.552 2.79526C16.5321 2.79526 16.5123 2.79526 16.4725 2.79526C16.3929 2.79526 16.2935 2.79526 16.2935 2.70202C16.2935 2.60878 16.4128 2.62743 16.4924 2.62743C17.2681 2.62743 18.0438 2.62743 18.7997 2.62743C18.8792 2.62743 18.9787 2.59013 18.9986 2.70202C18.9986 2.8139 18.8792 2.79526 18.7997 2.79526C18.4417 2.83255 18.3422 2.90714 18.3223 3.2428C18.2825 4.3803 18.2626 5.53644 18.3223 6.69259C18.3422 6.89772 18.3621 7.10284 18.4417 7.30796C18.6604 8.01657 19.2572 8.40817 20.0528 8.37087C20.8484 8.33358 21.3855 7.90468 21.5247 7.15878C21.6043 6.80448 21.6043 6.46882 21.6043 6.11452C21.6043 5.18214 21.6242 4.24976 21.5844 3.31739C21.5645 2.92579 21.4451 2.8139 21.0473 2.79526C21.0076 2.79526 20.9479 2.79526 20.9081 2.79526C20.8484 2.77661 20.7888 2.75796 20.8086 2.70202C20.8086 2.64607 20.8683 2.64607 20.9081 2.62743C20.928 2.62743 20.9479 2.62743 20.9877 2.62743C21.6441 2.62743 22.3004 2.62743 22.9369 2.62743C23.0165 2.62743 23.116 2.59013 23.116 2.70202C23.116 2.79526 23.0165 2.79526 22.9369 2.79526C22.5192 2.83255 22.4397 2.90714 22.4397 3.29874C22.4397 4.23112 22.4397 5.16349 22.4198 6.09587C22.4198 6.50612 22.38 6.89772 22.2607 7.28931C21.9822 8.1844 21.1866 8.78112 20.192 8.83706C19.7743 8.85571 19.3566 8.85571 18.9588 8.78112C17.9444 8.57599 17.3278 7.90468 17.1885 6.89771C17.0891 6.24505 17.1686 5.59239 17.1289 4.86513Z" fill="#00003D"/>
<path fill-rule="evenodd" clip-rule="evenodd" d="M68.5837 8.76167C68.2655 8.76167 67.9472 8.76167 67.629 8.76167C67.5693 8.76167 67.4897 8.78032 67.4897 8.68708C67.4897 8.59384 67.5693 8.5752 67.629 8.59384C68.0666 8.61249 68.2854 8.37007 68.4445 8.03442C68.8622 7.0461 69.2998 6.05778 69.7175 5.08811C70.0556 4.30491 70.3938 3.54036 70.7319 2.75716C70.7518 2.71987 70.7717 2.66392 70.7916 2.62663C70.8314 2.55204 70.8712 2.4588 70.9905 2.4588C71.09 2.4588 71.1297 2.53339 71.1695 2.60798C71.269 2.79446 71.3485 2.98093 71.4281 3.18606C72.0646 4.65921 72.6812 6.11372 73.3177 7.58688C73.4172 7.81065 73.5166 8.01577 73.6559 8.22089C73.815 8.44466 74.0139 8.59384 74.3123 8.59384C74.3719 8.59384 74.4714 8.5752 74.4714 8.66843C74.4714 8.76167 74.3918 8.76167 74.3123 8.76167C73.6757 8.76167 73.0591 8.76167 72.4226 8.74303C72.363 8.74303 72.2635 8.74302 72.2436 8.66843C72.2237 8.59384 72.3232 8.59384 72.363 8.55655C72.4425 8.50061 72.4226 8.42602 72.4027 8.35143C72.2038 7.8293 72.0049 7.32581 71.7861 6.80368C71.7464 6.71044 71.6867 6.69179 71.5872 6.69179C70.9905 6.69179 70.3938 6.69179 69.7971 6.69179C69.7175 6.69179 69.6578 6.71044 69.6379 6.78503C69.4589 7.25122 69.2202 7.69876 69.1009 8.1836C69.0213 8.48196 69.1009 8.55655 69.439 8.5752C69.4589 8.5752 69.4788 8.5752 69.4788 8.5752C69.5584 8.5752 69.6578 8.55655 69.6578 8.66843C69.6578 8.76167 69.5584 8.74303 69.4987 8.74303C69.2202 8.76167 68.902 8.76167 68.5837 8.76167ZM70.7518 4.08114C70.4535 4.80839 70.1949 5.46106 69.9363 6.11372C69.8965 6.20696 69.9363 6.24425 70.0556 6.24425C70.5131 6.24425 70.9706 6.24425 71.4281 6.24425C71.5673 6.24425 71.5872 6.18831 71.5474 6.09507C71.2889 5.44241 71.0303 4.78974 70.7518 4.08114Z" fill="#00003D"/>
<path fill-rule="evenodd" clip-rule="evenodd" d="M64.9825 8.838C64.2863 8.85664 63.61 8.76341 62.9536 8.50234C61.4817 7.88697 60.9049 6.65623 61.0243 5.33226C61.1834 3.59804 62.5161 2.51648 64.3858 2.47918C65.1615 2.46054 65.8975 2.55377 66.6533 2.68431C66.7926 2.70295 66.8721 2.74025 66.8522 2.88943C66.7926 3.28103 66.8124 3.65398 66.7926 4.04558C66.7926 4.12017 66.7727 4.17611 66.7528 4.2507C66.7329 4.30664 66.6931 4.32529 66.6533 4.32529C66.6135 4.32529 66.5936 4.28799 66.5738 4.2507C66.5539 4.15746 66.5738 4.06422 66.5539 3.98963C66.4345 3.44886 66.0566 3.18779 65.5196 3.05726C64.9825 2.92672 64.4256 2.90808 63.8686 3.01996C63.2321 3.15049 62.7945 3.5048 62.5558 4.06422C62.1381 5.07119 62.1182 6.07816 62.6752 7.04783C63.3714 8.24127 64.5847 8.55828 65.8179 8.27857C66.2754 8.16668 66.534 7.83103 66.6533 7.40213C66.6732 7.32754 66.6533 7.23431 66.7528 7.23431C66.8721 7.23431 66.8522 7.34619 66.8522 7.42078C66.8323 7.77509 66.7727 8.11074 66.6931 8.46504C66.6533 8.63287 66.534 8.68882 66.3748 8.72611C65.9373 8.81935 65.4599 8.85664 64.9825 8.838Z" fill="#00003D"/>
<path fill-rule="evenodd" clip-rule="evenodd" d="M45.7479 8.76286C44.8528 8.72556 44.1964 8.70691 43.54 8.76286C43.5201 8.76286 43.5002 8.76286 43.4604 8.76286C43.361 8.74421 43.2018 8.8188 43.182 8.66962C43.182 8.55773 43.3411 8.59503 43.4206 8.59503C43.6991 8.55773 43.8185 8.44585 43.8384 8.14749C43.8582 7.69995 43.8781 7.25241 43.8781 6.80486C43.8781 5.66736 43.8781 4.52986 43.8781 3.41101C43.8781 2.96347 43.7389 2.83294 43.2814 2.81429C43.2416 2.81429 43.2019 2.81429 43.1621 2.81429C43.1024 2.79564 43.0427 2.77699 43.0427 2.7024C43.0427 2.62781 43.1223 2.62781 43.1621 2.62781C43.361 2.62781 43.54 2.60917 43.7389 2.62781C44.7135 2.68376 45.6882 2.64646 46.6628 2.64646C46.8021 2.64646 46.9612 2.60917 47.1004 2.57187C47.2397 2.53458 47.2794 2.59052 47.2596 2.7024C47.2198 3.01941 47.1999 3.35507 47.1601 3.67208C47.1601 3.74667 47.1402 3.82126 47.0606 3.82126C46.9612 3.82126 47.001 3.72802 46.9811 3.65343C46.9413 3.29912 46.8021 3.14994 46.4043 3.11265C45.9865 3.07535 45.5688 3.07535 45.1511 3.05671C45.0517 3.05671 45.0119 3.094 45.0119 3.18724C45.0119 3.82126 45.0119 4.47392 45.0119 5.10794C45.0119 5.20117 45.0517 5.25712 45.171 5.25712C45.6484 5.23847 46.1258 5.27576 46.6032 5.21982C46.7424 5.20117 46.8816 5.16388 46.9811 5.07064C47.0209 5.03335 47.0408 4.99605 47.1004 5.0147C47.1601 5.03335 47.1402 5.08929 47.1402 5.12658C47.1004 5.51818 47.0606 5.90978 47.0408 6.30138C47.0408 6.35732 47.0209 6.39462 46.9612 6.39462C46.8816 6.39462 46.8816 6.33868 46.8617 6.28273C46.8617 6.22679 46.8617 6.17085 46.8418 6.13355C46.822 5.90978 46.7026 5.77925 46.4639 5.74195C46.0263 5.68601 45.5688 5.70466 45.1312 5.68601C45.0318 5.68601 45.0119 5.74195 45.0119 5.81654C45.0119 6.46921 45.0119 7.12187 45.0318 7.75589C45.0318 7.97966 45.1909 8.14749 45.4296 8.20343C45.8871 8.29667 46.3446 8.29667 46.8021 8.20343C47.0606 8.14749 47.18 7.97966 47.2397 7.75589C47.2596 7.6813 47.2794 7.58806 47.2993 7.51347C47.3192 7.47618 47.3391 7.43888 47.3789 7.43888C47.4187 7.43888 47.4585 7.47618 47.4585 7.51347C47.4783 7.88642 47.4386 8.25937 47.3192 8.61368C47.2794 8.72556 47.1601 8.72556 47.0606 8.72556C46.5634 8.76286 46.0263 8.76286 45.7479 8.76286Z" fill="#00003D"/>
<path fill-rule="evenodd" clip-rule="evenodd" d="M58.0425 8.76229C57.6447 8.76229 57.2469 8.76229 56.8491 8.76229C56.7695 8.76229 56.67 8.78094 56.67 8.6877C56.67 8.57581 56.7695 8.59446 56.8491 8.59446C57.2469 8.57581 57.3264 8.50122 57.3463 8.12827C57.4259 6.52458 57.3861 4.92089 57.3861 3.3172C57.3861 2.94425 57.2668 2.83237 56.8491 2.79507C56.7695 2.79507 56.67 2.79507 56.6501 2.70184C56.6501 2.5713 56.7695 2.6086 56.8491 2.6086C57.5651 2.6086 58.3011 2.6086 59.0171 2.6086C59.0967 2.6086 59.1962 2.5713 59.1962 2.68319C59.1962 2.79507 59.0967 2.77643 59.0171 2.77643C58.6193 2.81372 58.5199 2.88831 58.5199 3.27991C58.4801 4.8463 58.5 6.39405 58.5199 7.96044C58.5199 8.03503 58.5398 8.10962 58.5398 8.18421C58.5597 8.42663 58.6989 8.53852 58.9376 8.55716C59.037 8.55716 59.1365 8.55716 59.216 8.57581C59.2956 8.57581 59.415 8.55716 59.415 8.66905C59.415 8.78093 59.2956 8.74364 59.216 8.74364C58.8381 8.76229 58.4403 8.76229 58.0425 8.76229Z" fill="#00003D"/>
<path fill-rule="evenodd" clip-rule="evenodd" d="M23.5126 11.3553C27.1924 11.3553 30.8722 11.3553 34.5321 11.3553C34.5917 11.3553 34.6514 11.3553 34.731 11.3553C34.8105 11.3553 34.8105 11.4112 34.8105 11.4671C34.8105 11.5417 34.7708 11.5417 34.7111 11.5417C34.6514 11.5417 34.5917 11.5417 34.552 11.5417C27.1924 11.5417 19.8329 11.5417 12.4733 11.5417C12.4136 11.5417 12.354 11.5417 12.2744 11.5417C12.2147 11.5417 12.2147 11.4858 12.1948 11.4485C12.1948 11.3926 12.2147 11.3739 12.2744 11.3739C12.3341 11.3739 12.3937 11.3739 12.4733 11.3739C16.1531 11.3553 19.8329 11.3553 23.5126 11.3553Z" fill="#00003D"/>
<path fill-rule="evenodd" clip-rule="evenodd" d="M51.0209 11.3553C54.7007 11.3553 58.3805 11.3553 62.0802 11.3553C62.1398 11.3553 62.1995 11.3553 62.2791 11.3553C62.3586 11.3553 62.3586 11.4112 62.3586 11.4671C62.3586 11.5417 62.3189 11.5417 62.2592 11.5417C62.1995 11.5417 62.1398 11.5417 62.1001 11.5417C54.7405 11.5417 47.3809 11.5417 40.0214 11.5417C39.9617 11.5417 39.902 11.5417 39.8225 11.5417C39.7628 11.5417 39.7628 11.4858 39.7429 11.4485C39.7429 11.3926 39.7628 11.3739 39.8225 11.3739C39.8822 11.3739 39.9418 11.3739 40.0214 11.3739C43.6813 11.3553 47.3611 11.3553 51.0209 11.3553Z" fill="#00003D"/>
<path fill-rule="evenodd" clip-rule="evenodd" d="M26.6148 14.4497C26.3563 14.9531 26.1176 15.4566 25.8391 15.9974C25.5208 15.4939 25.3021 14.9718 25.0236 14.4124C24.9639 14.8413 24.9241 15.2142 24.8645 15.5685C24.8446 15.7363 24.8247 15.9042 25.0833 15.9228C24.8446 15.9228 24.6059 15.9228 24.3672 15.9228C24.586 15.8669 24.6059 15.7177 24.6258 15.5499C24.7252 14.9158 24.8247 14.3005 24.9241 13.6665C24.9241 13.6105 24.944 13.5546 25.0236 13.48C25.3418 14.0953 25.6402 14.6921 25.9584 15.3261C26.2767 14.6921 26.5552 14.0953 26.8535 13.4986C26.9928 13.7597 27.0126 14.0394 27.0524 14.3191C27.1121 14.6734 27.1718 15.0464 27.2116 15.4007C27.2513 15.6244 27.2513 15.8669 27.5895 15.9042C27.3707 15.9042 27.1519 15.9042 26.9331 15.9042C26.8734 15.9042 26.8336 15.9042 26.8336 15.8109C26.8336 15.382 26.7143 14.9345 26.6148 14.4497Z" fill="#00003D"/>
<path fill-rule="evenodd" clip-rule="evenodd" d="M41.7911 14.7479C41.7513 15.0835 41.7115 15.4378 41.6717 15.7735C41.6518 15.904 41.811 15.8667 41.8706 15.9413C41.6319 15.9413 41.433 15.9413 41.2341 15.9413C41.433 15.904 41.433 15.7548 41.4529 15.6243C41.5325 15.1022 41.6121 14.58 41.7115 14.0579C41.7115 14.002 41.6916 13.9274 41.7712 13.9087C41.8507 13.8901 41.8507 13.9833 41.8905 14.0393C42.1292 14.4868 42.3679 14.953 42.6066 15.4378C42.7657 15.1208 42.9049 14.8411 43.0641 14.5428C43.1436 14.3749 43.2431 14.1885 43.3227 14.0206C43.3425 13.9833 43.3624 13.9087 43.4221 13.9087C43.5017 13.9087 43.5017 14.002 43.5017 14.0579C43.5812 14.5428 43.6409 15.0089 43.7205 15.4938C43.7602 15.6803 43.7404 15.904 44.0387 15.96C43.8398 15.96 43.6608 15.96 43.4619 15.96C43.3823 15.96 43.3823 15.9227 43.3624 15.8667C43.3227 15.4751 43.2829 15.1022 43.1834 14.7106C43.0044 15.0462 42.8254 15.3819 42.6663 15.7175C42.6464 15.7548 42.6265 15.7921 42.6265 15.8108C42.6066 15.8667 42.5867 15.9413 42.5071 15.9413C42.4475 15.9413 42.4077 15.8667 42.3878 15.8108C42.1889 15.4565 42.0099 15.1022 41.8309 14.7292C41.811 14.7479 41.811 14.7479 41.7911 14.7479Z" fill="#00003D"/>
<path fill-rule="evenodd" clip-rule="evenodd" d="M29.5194 13.9475C29.7581 13.9475 29.9968 13.9475 30.2355 13.9475C29.9769 14.0034 30.0365 14.2085 30.0365 14.3764C30.0167 14.712 30.0763 15.0477 29.9968 15.3833C29.8973 15.8309 29.599 16.0174 29.0818 15.9987C28.5845 15.9801 28.3259 15.7749 28.2862 15.3087C28.2663 14.9731 28.2663 14.6188 28.2663 14.2831C28.2663 14.0407 28.2663 14.0407 28.0276 13.9661C28.3061 13.9661 28.5845 13.9661 28.863 13.9661C28.6243 13.9848 28.6442 14.1526 28.6442 14.3204C28.6641 14.6934 28.6044 15.085 28.684 15.4579C28.7437 15.7376 28.9625 15.8868 29.2409 15.8682C29.5194 15.8495 29.7183 15.6817 29.7382 15.4206C29.7581 15.0104 29.7581 14.6188 29.7581 14.2085C29.7581 14.0407 29.6387 14.0034 29.5194 13.9475Z" fill="#00003D"/>
<path fill-rule="evenodd" clip-rule="evenodd" d="M40.918 15.9423C40.918 15.9609 40.918 15.9609 40.918 15.9423C40.6992 15.9423 40.4804 15.9982 40.3213 15.9236C40.202 15.8677 40.1821 15.6439 40.1423 15.4761C40.1025 15.3082 40.0031 15.2336 39.8241 15.2709C39.7843 15.2709 39.7644 15.2709 39.7246 15.2709C39.3666 15.2709 39.2074 15.4201 39.1677 15.7558C39.1478 15.8863 39.2671 15.8677 39.3467 15.9236C39.0881 15.9236 38.8693 15.9236 38.6306 15.9236C38.8494 15.8863 38.9091 15.7185 38.9886 15.5693C39.2074 15.0658 39.4262 14.581 39.645 14.0961C39.6848 14.0216 39.6848 13.9097 39.7843 13.9097C39.8638 13.9097 39.8837 14.0402 39.9036 14.1148C40.1224 14.6183 40.3412 15.1218 40.56 15.6252C40.6396 15.7744 40.7191 15.9236 40.918 15.9423ZM39.7047 14.4318C39.6053 14.6556 39.5456 14.8234 39.466 15.0099C39.4461 15.0472 39.3865 15.1218 39.5058 15.1404C39.6251 15.1404 39.7644 15.1404 39.8837 15.1404C39.9633 15.1404 39.9633 15.0845 39.9434 15.0285C39.8638 14.8607 39.7843 14.6742 39.7047 14.4318Z" fill="#00003D"/>
<path fill-rule="evenodd" clip-rule="evenodd" d="M38.0522 11.4105C38.0124 11.4478 37.9925 11.4851 37.9527 11.5224C37.7538 11.7089 37.5748 11.8954 37.3759 12.0819C37.2963 12.1751 37.2367 12.1564 37.1571 12.0819C36.9582 11.8954 36.7394 11.7089 36.5405 11.5224C36.441 11.4478 36.4609 11.3919 36.5405 11.3173C36.7394 11.1308 36.9184 10.9444 37.1173 10.7579C37.177 10.7019 37.2168 10.646 37.2963 10.7206C37.5151 10.9257 37.7538 11.1308 37.9925 11.336C38.0124 11.3732 38.0323 11.3919 38.0522 11.4105Z" fill="#00003D"/>
<path fill-rule="evenodd" clip-rule="evenodd" d="M50.0659 13.9661C49.8869 14.0221 49.7875 14.134 49.688 14.2645C49.6084 14.395 49.5289 14.5256 49.4294 14.6374C49.151 14.9731 49.1907 15.346 49.1907 15.719C49.1907 15.9055 49.3499 15.8682 49.5289 15.9241C49.1709 15.9241 48.8924 15.9241 48.6338 15.9241C48.8327 15.7936 48.9123 15.2715 48.7531 14.9917C48.594 14.712 48.3951 14.4323 48.2161 14.1526C48.1564 14.0594 48.057 14.0034 47.9575 13.9475C48.1962 13.9475 48.415 13.9475 48.6537 13.9475C48.5741 14.078 48.6935 14.3391 49.0714 14.8612C49.4095 14.451 49.5488 14.1153 49.4493 13.9475C49.6681 13.9661 49.867 13.9661 50.0659 13.9661Z" fill="#00003D"/>
<path fill-rule="evenodd" clip-rule="evenodd" d="M33.3579 15.9423C33.5369 15.905 33.5568 15.8117 33.5568 15.6626C33.5568 15.1777 33.5568 14.7115 33.5568 14.2267C33.5568 14.1335 33.5369 14.0589 33.4175 14.0962C33.2186 14.1335 32.9402 13.9843 32.8208 14.3013C32.781 14.1894 32.8009 14.1335 32.8208 14.0589C32.8407 13.9283 32.8805 13.891 33.0396 13.9097C33.5369 13.947 34.0341 13.947 34.5314 13.9097C34.6905 13.9097 34.7303 13.9097 34.7104 14.0589C34.7104 14.1335 34.7104 14.208 34.7104 14.3199C34.5911 14.1521 34.1336 14.0216 33.9944 14.0962C33.9347 14.1335 33.9546 14.1894 33.9546 14.2267C33.9546 14.6742 33.9546 15.1218 33.9546 15.5693C33.9546 15.7558 33.9944 15.905 34.2331 15.9236C33.9347 15.9423 33.6562 15.9423 33.3579 15.9423Z" fill="#00003D"/>
<path fill-rule="evenodd" clip-rule="evenodd" d="M38.2508 14.7302C38.2309 14.8793 38.2309 15.0099 38.211 15.1404C38.1115 15.0845 38.1314 14.9726 38.0121 14.9353C37.6541 14.842 37.5546 14.9166 37.5546 15.2523C37.5546 15.3642 37.5546 15.4574 37.5546 15.5693C37.5546 15.7558 37.5546 15.9236 37.8331 15.9236C37.5546 15.9236 37.2761 15.9236 36.938 15.9236C37.1966 15.849 37.1966 15.6812 37.1966 15.5134C37.1966 15.1031 37.1966 14.6742 37.1966 14.264C37.1966 14.0775 37.1568 13.9656 36.938 13.9097C37.3955 13.9097 37.8729 13.9097 38.3502 13.9097C38.3502 14.0216 38.3303 14.1334 38.3104 14.2826C38.211 14.1148 37.7933 13.9656 37.6541 14.0775C37.475 14.2267 37.6143 14.4691 37.5745 14.6742C37.5546 14.8048 37.6739 14.7675 37.7336 14.7675C37.8927 14.7861 38.0718 14.8234 38.2508 14.7302Z" fill="#00003D"/>
<path fill-rule="evenodd" clip-rule="evenodd" d="M31.7661 13.9646C31.5672 13.9833 31.5473 14.1138 31.5473 14.263C31.5473 14.6732 31.5473 15.0648 31.5473 15.4751C31.5473 15.7548 31.5871 15.7921 31.9053 15.7921C32.2832 15.7921 32.2832 15.7921 32.3827 15.5497C32.4821 15.8667 32.4225 15.9599 32.0644 15.9599C31.7661 15.9599 31.4677 15.9599 31.1892 15.9599C31.05 15.9599 31.05 15.9226 31.1296 15.8294C31.1892 15.7734 31.1694 15.6616 31.1694 15.5683C31.1694 15.1394 31.1694 14.7105 31.1694 14.3003C31.1694 14.1325 31.1495 14.0019 30.9307 13.9646C31.2091 13.9646 31.4876 13.9646 31.7661 13.9646Z" fill="#00003D"/>
<path fill-rule="evenodd" clip-rule="evenodd" d="M47.6991 15.5497C47.7588 15.9226 47.7389 15.9599 47.3609 15.9599C47.0825 15.9599 46.804 15.9599 46.5255 15.9599C46.4261 15.9599 46.3067 15.9972 46.446 15.8294C46.5056 15.7548 46.4858 15.6429 46.4858 15.5497C46.4858 15.1208 46.4858 14.6919 46.4858 14.2816C46.4858 14.1138 46.446 14.0019 46.2471 13.9646C46.5255 13.9646 46.804 13.9646 47.0825 13.9646C46.7841 14.0019 46.8637 14.2257 46.8637 14.3935C46.8637 14.7665 46.8637 15.1394 46.8637 15.5124C46.8637 15.7175 46.9432 15.8107 47.162 15.7921C47.3808 15.7734 47.6394 15.8667 47.6991 15.5497Z" fill="#00003D"/>
<path fill-rule="evenodd" clip-rule="evenodd" d="M36.2413 15.9428C35.923 15.9428 35.6247 15.9428 35.3462 15.9428C35.5252 15.9055 35.565 15.7749 35.565 15.6258C35.565 15.1596 35.565 14.6934 35.565 14.2085C35.565 14.0594 35.5053 13.9848 35.3462 13.9475C35.6048 13.9475 35.8633 13.9475 36.1418 13.9475C35.9429 13.9848 35.9429 14.1153 35.9429 14.2645C35.9429 14.6934 35.9429 15.1223 35.9429 15.5698C35.9429 15.8682 35.9429 15.8682 36.2413 15.9428Z" fill="#00003D"/>
<path fill-rule="evenodd" clip-rule="evenodd" d="M44.6569 13.9475C44.9154 13.9475 45.174 13.9475 45.4525 13.9475C45.2735 14.0034 45.2536 14.1526 45.2536 14.3018C45.2536 14.7307 45.2536 15.1596 45.2536 15.5698C45.2536 15.7563 45.2735 15.9055 45.532 15.9241C45.2536 15.9241 44.9552 15.9241 44.637 15.9241C44.9154 15.8682 44.8955 15.7003 44.8955 15.5325C44.8955 15.1036 44.8955 14.6747 44.8955 14.2645C44.8757 14.134 44.8558 13.9848 44.6569 13.9475Z" fill="#00003D"/>
</svg>
