<svg width="102" height="24" viewBox="0 0 102 24" fill="none" xmlns="http://www.w3.org/2000/svg">
<g clip-path="url(#clip0_6257_536370)">
<path d="M44.8172 13.0216C44.6732 13.0548 44.5293 13.117 44.3858 13.1161C43.2522 13.1079 42.1187 13.0888 40.9855 13.0693C40.9096 13.068 40.8341 13.038 40.7608 13.0216C40.7639 12.9844 40.7595 12.9626 40.767 12.9558C41.1106 12.6456 41.1299 12.5739 40.9693 12.1175C40.6226 11.1308 40.2746 10.1445 39.9266 9.15816C39.8033 8.80805 39.6874 8.72496 39.3223 8.72496C38.3937 8.72496 37.4651 8.72496 36.5365 8.72586C36.1564 8.72586 36.0634 8.79262 35.9414 9.15907C35.6469 10.0446 35.3537 10.931 35.061 11.8169C35.0351 11.8955 35.011 11.9754 34.9934 12.0562C34.8785 12.5789 35.0312 12.7905 35.5499 12.8327C35.6592 12.8414 35.7698 12.8454 35.8769 12.8681C35.9572 12.8849 36.0318 12.9281 36.1094 12.9594C36.1081 12.9821 36.1068 13.0053 36.1055 13.028C35.9537 13.0593 35.8018 13.1174 35.6495 13.1184C34.5818 13.1261 33.5141 13.1234 32.4464 13.1197C32.3463 13.1197 32.244 13.0966 32.1471 13.0689C32.1076 13.0575 32.079 13.0057 32.0452 12.9721C32.0808 12.9403 32.1119 12.8904 32.1523 12.8804C32.2655 12.8532 32.3823 12.8309 32.4981 12.8268C33.0678 12.8064 33.475 12.538 33.6874 11.9872C34.2364 10.5627 34.7885 9.13955 35.3226 7.70914C36.2069 5.34147 37.0776 2.9679 37.9566 0.597961C38.0141 0.443568 38.0777 0.288266 38.1611 0.14795C38.28 -0.0513993 38.4441 -0.0504911 38.5468 0.15794C38.689 0.446746 38.8158 0.745089 38.9291 1.04752C40.1491 4.30976 41.3621 7.57473 42.5873 10.8351C42.7427 11.2488 42.945 11.6462 43.1513 12.0367C43.4238 12.5525 43.8447 12.8409 44.4301 12.845C44.5587 12.8459 44.6872 12.8831 44.8158 12.904C44.8158 12.9435 44.8163 12.983 44.8167 13.0221L44.8172 13.0216ZM36.4035 7.86308H39.468C38.973 6.38226 38.4858 4.92461 37.9987 3.46695C37.968 3.46968 37.9377 3.47286 37.907 3.47558C37.4089 4.92869 36.9112 6.38136 36.4035 7.86308Z" fill="currentColor"/>
<path d="M10.8198 0.0834961C10.9036 0.955819 10.9014 1.80907 10.6969 2.65142C10.6732 2.65369 10.6495 2.65551 10.6258 2.65778C10.5946 2.52382 10.5428 2.39122 10.5363 2.25636C10.5161 1.82996 10.3041 1.54206 9.9223 1.44307C9.46502 1.32409 8.99545 1.23146 8.52631 1.19422C7.99574 1.15199 7.45947 1.1924 6.92582 1.18014C6.73756 1.1756 6.68358 1.24871 6.68665 1.42853C6.69323 1.83677 6.68796 2.24546 6.68884 2.65415C6.69499 5.30971 6.69674 7.96528 6.71298 10.6208C6.71605 11.1181 6.76608 11.6167 6.81874 12.1116C6.86658 12.5589 7.0487 12.7297 7.48009 12.7864C7.72629 12.8191 7.97424 12.8382 8.22044 12.8727C8.30118 12.8841 8.37798 12.9236 8.45654 12.9504C8.45654 12.9763 8.45654 13.0026 8.45698 13.0285C8.30864 13.0598 8.16075 13.117 8.01242 13.1179C6.61643 13.1247 5.22001 13.1229 3.82402 13.1197C3.73098 13.1197 3.63575 13.0957 3.54622 13.0671C3.50892 13.0548 3.48391 13.0003 3.45363 12.9654C3.49093 12.9363 3.52516 12.8891 3.56641 12.8809C3.75995 12.8423 3.95567 12.8173 4.15008 12.7824C4.41252 12.7351 4.57533 12.5703 4.59903 12.2987C4.6552 11.6521 4.732 11.0041 4.73595 10.3561C4.75526 7.42808 4.75219 4.50005 4.75702 1.57203C4.75746 1.22283 4.75614 1.22419 4.43007 1.2251C3.72089 1.22646 3.0117 1.22283 2.30252 1.22828C2.09099 1.23009 1.87771 1.24054 1.66882 1.27233C1.19003 1.34543 0.882832 1.6406 0.714752 2.10332C0.664723 2.24092 0.605478 2.37442 0.550183 2.5102C0.530434 2.50793 0.511125 2.50611 0.491376 2.50384C0.472506 2.41393 0.439592 2.32402 0.43652 2.23365C0.416772 1.57702 0.50542 0.936747 0.684032 0.307821C0.730989 0.142075 0.802961 0.0839502 0.978941 0.10166C3.86834 0.389558 6.7652 0.208827 9.65855 0.235165C10.0272 0.238344 10.3963 0.141621 10.8202 0.0839502L10.8198 0.0834961Z" fill="currentColor"/>
<path d="M47.6548 3.7583C47.7667 3.90861 47.9085 4.04393 47.9861 4.21149C48.9529 6.29626 49.9105 8.38556 50.8707 10.4735C50.9146 10.5689 50.9594 10.6633 51.0274 10.8082C51.1143 10.6315 51.1871 10.4926 51.2521 10.3495C52.1548 8.35877 53.0531 6.36573 53.9629 4.3786C54.0629 4.16018 54.2262 3.97218 54.36 3.77056C54.3938 3.77283 54.428 3.77556 54.4618 3.77783C54.5378 4.00533 54.6497 4.22738 54.6835 4.46124C55.0323 6.8834 55.3637 9.30829 55.7108 11.7304C55.8381 12.6168 55.9904 12.8366 56.8185 12.8961C56.8975 12.902 56.976 12.9193 57.0546 12.962C56.1176 13.1504 55.1776 13.1241 54.2499 13.031C54.22 11.0189 53.8356 9.07851 53.6491 7.11545L53.5837 7.10682C53.5179 7.23805 53.4481 7.36747 53.3871 7.50098C52.6309 9.1539 51.8805 10.8095 51.1165 12.4584C51.012 12.6841 50.8426 12.878 50.6688 13.1382C50.5034 12.8902 50.3467 12.7068 50.2458 12.4951C49.5678 11.072 48.9033 9.6416 48.2301 8.21573C48.0901 7.91875 47.9339 7.62949 47.7312 7.34386C47.6846 7.68216 47.632 8.01956 47.592 8.35832C47.4494 9.57394 47.3112 10.7905 47.1716 12.0065C47.1628 12.0815 47.1554 12.1568 47.1541 12.2327C47.1462 12.7004 47.2528 12.8221 47.7004 12.8739C47.8049 12.8861 47.908 12.9143 48.0379 12.9406C47.7513 13.1413 45.8024 13.164 45.235 12.9751C45.3982 12.9347 45.5062 12.8943 45.6168 12.8829C45.9876 12.8457 46.1285 12.7336 46.1921 12.3589C46.3058 11.6891 46.4129 11.018 46.5112 10.3454C46.8096 8.30519 47.1005 6.26401 47.4025 4.22466C47.4248 4.0739 47.51 3.93313 47.5657 3.78782C47.5951 3.77828 47.625 3.76829 47.6544 3.75875L47.6548 3.7583Z" fill="currentColor"/>
<path d="M18.0292 8.85477C18.849 9.90601 19.6521 10.945 20.4662 11.9753C20.7734 12.364 21.1666 12.6324 21.6375 12.7764C21.8077 12.8286 21.9697 12.9108 22.1351 12.9793C22.1356 13.0098 22.136 13.0402 22.1369 13.0706C21.939 13.1156 21.7432 13.186 21.5431 13.2014C20.3262 13.294 19.3116 12.9008 18.5971 11.8337C18.131 11.1375 17.6667 10.4405 17.2187 9.73164C17.0229 9.42149 16.7917 9.24893 16.4213 9.30887C16.3006 9.3284 16.1733 9.30842 16.0491 9.30297C15.7209 9.28935 15.6357 9.36563 15.6441 9.69894C15.6599 10.3415 15.6827 10.984 15.7033 11.6266C15.7099 11.8309 15.713 12.0353 15.7279 12.2387C15.7591 12.6633 15.9236 12.8299 16.3318 12.869C16.4625 12.8813 16.5933 12.8953 16.7223 12.918C16.7702 12.9267 16.8136 12.963 16.8588 12.9866C16.854 13.0057 16.8492 13.0248 16.8443 13.0443H13.2756C13.2712 13.0202 13.2668 12.9962 13.2624 12.9716C13.3879 12.9389 13.5117 12.8926 13.6394 12.8758C13.9927 12.8286 14.1112 12.7382 14.1419 12.3713C14.1836 11.8745 14.2095 11.375 14.2117 10.8764C14.2191 8.93243 14.216 6.98798 14.2139 5.04398C14.213 4.41778 14.0563 4.24749 13.4511 4.17166C13.3423 4.15804 13.2374 4.11217 13.1308 4.08129C13.1321 4.05541 13.1334 4.02998 13.1347 4.0041C13.2207 3.98911 13.3067 3.96005 13.3928 3.96096C14.7668 3.97776 16.1413 3.9873 17.5153 4.02226C18.3097 4.0427 18.9741 4.35057 19.3524 5.12027C19.7425 5.91449 19.7065 6.70961 19.2124 7.43844C18.9245 7.86302 18.5616 8.23357 18.2315 8.62727C18.1745 8.69539 18.1135 8.75987 18.0288 8.85477H18.0292ZM18.2372 6.65921C18.2175 6.65421 18.1978 6.64967 18.178 6.64468C18.1727 6.53161 18.1697 6.41808 18.1622 6.30501C18.0858 5.15842 17.1406 4.37646 16.0426 4.55038C15.7147 4.60214 15.6454 4.68434 15.6454 5.02355C15.6454 6.01303 15.6454 7.00296 15.6471 7.99244C15.6471 8.1205 15.659 8.24855 15.6665 8.37661C15.6757 8.53645 15.7634 8.62818 15.9122 8.64634C16.1725 8.67813 16.434 8.72218 16.6951 8.72399C17.3394 8.72763 17.783 8.40295 17.9827 7.7713C18.0968 7.41029 18.1547 7.03066 18.2381 6.65921H18.2372Z" fill="currentColor"/>
<path d="M76.2784 13.0734C76.1959 13.0889 76.113 13.1189 76.0309 13.117C75.4538 13.1039 74.8759 13.0939 74.2997 13.0639C73.8301 13.0394 73.4702 12.7919 73.2008 12.4046C72.6202 11.5699 72.0321 10.7407 71.4717 9.89158C71.0741 9.28944 70.7998 9.2295 70.0116 9.34257C69.848 9.36619 69.7957 9.50014 69.7997 9.64228C69.8238 10.5491 69.8436 11.4569 69.8923 12.3628C69.9107 12.7074 70.117 12.8423 70.5075 12.8727C70.6734 12.8854 70.8376 12.9168 71.0026 12.9399C71.0035 12.9754 71.0043 13.0103 71.0052 13.0457C70.8999 13.0712 70.7946 13.1184 70.6892 13.1189C69.6878 13.1252 68.6859 13.1248 67.6844 13.1216C67.5909 13.1216 67.4975 13.0866 67.404 13.068C67.4018 13.038 67.3996 13.0081 67.3974 12.9781C67.5295 12.9422 67.6594 12.8927 67.7937 12.8736C68.1408 12.8241 68.2694 12.717 68.2843 12.3587C68.3216 11.4446 68.3572 10.53 68.3646 9.61549C68.3765 8.12513 68.3651 6.63478 68.3638 5.14489C68.3638 5.1072 68.3638 5.06905 68.3638 5.03136C68.3537 4.42423 68.1904 4.24169 67.6045 4.17448C67.4865 4.16086 67.3702 4.13543 67.253 4.11499C67.2508 4.08548 67.2486 4.05641 67.246 4.0269C67.343 4.00419 67.44 3.96151 67.5365 3.96242C68.94 3.97831 70.3452 3.96196 71.746 4.03008C73.4237 4.11181 74.2909 5.89052 73.4005 7.3677C73.228 7.65423 73.002 7.90762 72.7887 8.16555C72.5938 8.40032 72.3828 8.62056 72.166 8.86168C72.2362 8.95341 72.3011 9.04151 72.3692 9.12688C73.1604 10.1182 73.9543 11.1077 74.7433 12.1008C75.0905 12.5381 75.4955 12.8568 76.0696 12.885C76.1446 12.8886 76.2166 12.9549 76.2903 12.9917C76.2868 13.019 76.2833 13.0457 76.2798 13.073L76.2784 13.0734ZM69.7913 6.59392H69.7935C69.7935 7.14565 69.7905 7.69692 69.7949 8.2482C69.797 8.54154 69.8515 8.61238 70.1244 8.65779C70.3399 8.69367 70.5589 8.72273 70.7766 8.725C71.4752 8.73317 71.8772 8.43982 72.1331 7.76776C72.3082 7.3073 72.3529 6.83186 72.3104 6.34416C72.2037 5.11583 71.2633 4.34522 70.1354 4.56046C69.8567 4.61359 69.7922 4.69124 69.7918 4.98414C69.7905 5.52043 69.7918 6.05672 69.7918 6.59346L69.7913 6.59392Z" fill="currentColor"/>
<path d="M22.4708 4.02873H26.0589C26.0624 4.05234 26.0655 4.07595 26.069 4.09957C25.9268 4.13362 25.785 4.16995 25.6424 4.20128C25.2953 4.27712 25.1689 4.41017 25.1649 4.76709C25.1469 6.40866 25.121 8.05022 25.1342 9.69133C25.1382 10.1536 25.218 10.6295 25.3475 11.0727C25.6406 12.0744 26.4775 12.6384 27.5093 12.5962C28.5138 12.5553 29.2928 11.9359 29.5039 10.9696C29.5789 10.6263 29.6013 10.2653 29.6065 9.91157C29.6298 8.36854 29.6381 6.82506 29.6509 5.28158C29.6517 5.16806 29.6478 5.05454 29.639 4.94146C29.5965 4.39973 29.4551 4.24942 28.9294 4.17676C28.8179 4.16132 28.7069 4.13953 28.5981 4.08594C29.6162 3.92156 30.6317 3.91384 31.6472 4.04326C31.6485 4.06687 31.6494 4.09048 31.6507 4.1141C31.5024 4.14725 31.3541 4.1804 31.2053 4.21355C30.8819 4.28529 30.777 4.38565 30.7555 4.72849C30.7313 5.10539 30.7414 5.48457 30.7326 5.86283C30.7041 7.12568 30.701 8.39034 30.6317 9.65092C30.6001 10.2249 30.5154 10.8225 30.3166 11.3542C29.865 12.5635 28.907 13.1284 27.7002 13.2447C27.0388 13.3082 26.3713 13.2919 25.7227 13.0839C24.5049 12.6934 23.693 11.6571 23.6518 10.3411C23.5987 8.6628 23.5894 6.98309 23.5592 5.30384C23.5557 5.11538 23.5438 4.92648 23.5271 4.73894C23.5008 4.4415 23.3275 4.27939 23.0549 4.22126C22.8592 4.17949 22.6622 4.14588 22.466 4.10865C22.4673 4.08231 22.4686 4.05552 22.4704 4.02918L22.4708 4.02873Z" fill="currentColor"/>
<path d="M101.428 13.0149C100.459 13.2038 99.4867 13.1543 98.4734 13.0122C98.8521 12.8119 98.6999 12.5435 98.6086 12.2842C98.3839 11.6453 98.1539 11.0082 97.9367 10.3666C97.8577 10.1336 97.7239 10.0278 97.482 10.0319C96.7654 10.0433 96.0488 10.0465 95.3321 10.0442C95.0745 10.0433 94.9135 10.1359 94.8261 10.407C94.6256 11.0305 94.3886 11.6408 94.1898 12.2647C94.0599 12.6725 94.1534 12.7969 94.5597 12.8646C94.701 12.8882 94.8402 12.9254 94.9806 12.9563C94.9828 12.9813 94.985 13.0063 94.9872 13.0308C94.8762 13.0612 94.7656 13.1171 94.6545 13.1184C93.8501 13.1261 93.0457 13.1248 92.2408 13.1193C92.139 13.1184 92.0377 13.0757 91.9358 13.0526C91.9345 13.0285 91.9328 13.0044 91.9314 12.9804C92.0438 12.9472 92.1557 12.8855 92.2681 12.8855C92.7626 12.8841 93.0501 12.6048 93.2261 12.1607C93.6136 11.1822 94.0024 10.2036 94.3881 9.22408C95.0328 7.5866 95.6718 5.94685 96.3226 4.3121C96.4095 4.09322 96.5508 3.89751 96.6671 3.69135C96.6939 3.68908 96.7211 3.68635 96.7478 3.68408C96.8677 3.88479 97.0173 4.07324 97.1024 4.28894C98.0398 6.66751 98.9636 9.05198 99.901 11.431C100.033 11.7652 100.202 12.0867 100.383 12.396C100.567 12.7106 100.845 12.8946 101.219 12.8859C101.29 12.8841 101.363 12.9173 101.434 12.9345C101.432 12.9618 101.43 12.9886 101.427 13.0158L101.428 13.0149ZM96.4297 6.16982C96.4042 6.16845 96.3792 6.16709 96.3538 6.16618C95.972 7.22514 95.5902 8.2841 95.2048 9.35214H97.5474C97.1691 8.27502 96.7992 7.22242 96.4297 6.16982Z" fill="currentColor"/>
<path d="M90.8277 6.44152C90.8027 6.3666 90.7733 6.29303 90.7531 6.21629C90.7303 6.1291 90.7167 6.03874 90.6969 5.95064C90.5113 5.13372 90.0294 4.65374 89.2171 4.52386C88.5106 4.41079 87.8049 4.38627 87.0992 4.49889C86.3343 4.62104 85.7234 5.02292 85.4044 5.75311C84.7395 7.27297 84.6039 8.83416 85.3368 10.3731C85.8709 11.4947 86.7192 12.2553 87.9449 12.4869C88.5904 12.6091 89.2294 12.5478 89.8513 12.3489C90.3906 12.1763 90.6544 11.7263 90.8343 11.2091C90.8786 11.0824 90.9317 10.9589 90.9813 10.834C91.0098 10.8381 91.0384 10.8422 91.0669 10.8458C91.0814 10.9739 91.1213 11.1056 91.1055 11.2295C91.0502 11.6637 90.9778 12.096 90.9085 12.5278C90.8624 12.8134 90.6904 12.9951 90.4262 13.0527C88.8186 13.4033 87.2296 13.4128 85.7024 12.6885C84.0935 11.9252 83.3176 10.5747 83.2053 8.78376C83.1175 7.3815 83.4734 6.13546 84.4481 5.11465C85.2429 4.28274 86.2342 3.91492 87.3318 3.78913C88.5176 3.6529 89.6784 3.84907 90.8374 4.06977C91.005 4.10155 91.0879 4.20736 91.0787 4.39036C91.0476 4.99476 91.023 5.59917 90.9874 6.20312C90.9826 6.28577 90.9317 6.36523 90.9023 6.44606C90.8782 6.4447 90.8536 6.44334 90.8295 6.44198L90.8277 6.44152Z" fill="currentColor"/>
<path d="M58.9842 12.9619C59.0961 12.9319 59.2067 12.8915 59.3208 12.8742C59.7188 12.8134 59.8527 12.6903 59.8597 12.2739C59.8922 10.3758 59.9146 8.47766 59.9369 6.57953C59.9431 6.06503 59.9405 5.55054 59.9334 5.03605C59.9255 4.42937 59.7601 4.24637 59.1764 4.17235C59.0895 4.16145 59.0009 4.1501 58.9193 4.12104C58.8745 4.10514 58.842 4.05156 58.8043 4.01478C58.8464 3.98662 58.8859 3.95348 58.9311 3.93213C58.9552 3.92078 58.9886 3.92941 59.018 3.92941C60.7725 3.92941 62.5275 3.92941 64.282 3.92986C64.3457 3.92986 64.4097 3.93804 64.5028 3.94439C64.4501 4.50657 64.3996 5.0533 64.3439 5.59958C64.3408 5.6291 64.2873 5.67769 64.2636 5.67405C64.232 5.66951 64.189 5.62592 64.1815 5.59186C64.1521 5.45972 64.1442 5.32213 64.1117 5.19135C64.0459 4.92661 63.8857 4.7318 63.6176 4.71318C62.969 4.66823 62.319 4.64552 61.6695 4.62463C61.5238 4.62009 61.4462 4.72998 61.4462 4.87847C61.4435 5.79394 61.4427 6.70894 61.4457 7.62441C61.4462 7.79242 61.5322 7.89596 61.7042 7.89414C62.3401 7.88688 62.9773 7.89732 63.611 7.85645C63.8471 7.84101 64.0753 7.7016 64.3342 7.60897C64.3154 7.83783 64.2987 8.05307 64.2798 8.26786C64.246 8.65203 64.2131 9.03574 64.1749 9.41946C64.1697 9.47077 64.1346 9.5189 64.1131 9.5684C64.0797 9.52117 64.042 9.47622 64.0148 9.42536C63.9976 9.39357 63.9937 9.35316 63.9876 9.31592C63.8862 8.72423 63.8024 8.64749 63.2156 8.62297C62.7188 8.60253 62.2221 8.58982 61.7257 8.56439C61.5287 8.5544 61.4405 8.63614 61.4431 8.83821C61.4545 9.75367 61.4549 10.6691 61.4778 11.5841C61.4918 12.1427 61.7147 12.3575 62.2567 12.367C62.739 12.3756 63.2218 12.3743 63.7041 12.3661C64.1609 12.3584 64.3751 12.1804 64.5115 11.7199C64.5598 11.5569 64.6055 11.393 64.6524 11.2299C64.6766 11.2281 64.7002 11.2263 64.7244 11.2245C64.7459 11.3085 64.792 11.3943 64.7849 11.4756C64.7468 11.9197 64.706 12.3638 64.6445 12.8048C64.6129 13.0323 64.4694 13.1276 64.2096 13.1258C63.6176 13.1213 63.0256 13.104 62.4331 13.099C61.3659 13.0899 60.2986 13.0858 59.2317 13.0786C59.1554 13.0781 59.079 13.0654 59.0026 13.0581L58.9855 12.9619H58.9842Z" fill="currentColor"/>
<path d="M77.2224 4.07708C77.5335 3.9077 80.548 3.93767 80.6889 4.10523C80.5436 4.14065 80.4137 4.1738 80.2825 4.20377C79.877 4.29686 79.7853 4.39631 79.7638 4.83043C79.7392 5.32857 79.7151 5.82808 79.7168 6.32668C79.723 8.16442 79.7388 10.0022 79.7537 11.8394C79.755 11.9979 79.7712 12.1564 79.7906 12.314C79.8344 12.675 79.9907 12.8294 80.3448 12.8671C80.5046 12.8843 80.6656 12.8911 80.8249 12.9138C80.8785 12.9215 80.9267 12.9651 80.9777 12.9919C80.9215 13.0196 80.8653 13.0714 80.8087 13.0719C79.9025 13.0768 78.9962 13.0755 78.0896 13.0755C77.8223 13.0755 77.555 13.0755 77.2878 13.0755C77.2808 13.0451 77.2737 13.0146 77.2667 12.9847C77.3694 12.9492 77.4695 12.8984 77.5744 12.8816C78.0768 12.8012 78.1497 12.7376 78.155 12.1991C78.1778 9.79463 78.1958 7.39018 78.2059 4.98573C78.2081 4.40857 78.0983 4.29686 77.555 4.18334C77.4567 4.1629 77.3624 4.12203 77.2224 4.07662V4.07708Z" fill="currentColor"/>
<path d="M35.5161 23.1136C35.9378 22.1768 36.3389 21.2859 36.7401 20.3945C36.7664 20.3986 36.7927 20.4022 36.819 20.4063C36.8511 20.6002 36.8879 20.7932 36.9143 20.988C37.0227 21.7808 37.1197 22.5755 37.2399 23.3666C37.2684 23.5559 37.3694 23.7335 37.4427 23.9315C37.2807 23.9183 37.085 23.9165 36.8967 23.8779C36.8467 23.8674 36.7936 23.748 36.7835 23.6722C36.7001 23.0587 36.6273 22.4438 36.55 21.8294C36.5426 21.7718 36.5268 21.7155 36.5149 21.6582C36.4934 21.651 36.4719 21.6437 36.4509 21.6364C36.1028 22.3971 35.7548 23.1577 35.3801 23.9755C35.0114 23.1799 34.6652 22.4329 34.3189 21.6859C34.2974 21.6905 34.2759 21.695 34.254 21.6996C34.211 22.0238 34.1662 22.3476 34.1249 22.6722C34.0898 22.9492 34.0442 23.2262 34.0315 23.5051C34.0253 23.634 34.0854 23.7666 34.1175 23.9047H33.6554C33.8331 22.7304 34.0122 21.5465 34.1912 20.3627C34.2145 20.36 34.2373 20.3573 34.2605 20.355C34.6739 21.2623 35.0869 22.1696 35.517 23.1132L35.5161 23.1136Z" fill="currentColor"/>
<path d="M57.0686 20.9077C57.4245 21.6615 57.78 22.4153 58.1565 23.2123C58.5282 22.4171 58.8797 21.6647 59.2312 20.9123C59.2541 20.9186 59.2773 20.925 59.3001 20.9313C59.57 21.9026 59.4744 22.953 59.8768 23.912H59.28C59.2023 23.2886 59.1233 22.6578 59.0447 22.0275C59.0215 22.0203 58.9982 22.013 58.975 22.0062C58.6708 22.6478 58.3667 23.2895 58.0389 23.9806C57.7155 23.319 57.4104 22.6941 57.105 22.0698L57.0322 22.082C56.9966 22.6882 56.8141 23.2836 56.9167 23.9252C56.8237 23.9138 56.6982 23.8989 56.5385 23.8798C56.6868 22.8817 56.8325 21.9031 56.9782 20.9245C57.0085 20.9191 57.0392 20.9132 57.0695 20.9077H57.0686Z" fill="currentColor"/>
<path d="M16.9835 17.1401H47.4429C47.4429 17.156 47.4429 17.1719 47.4429 17.1878H16.9808C16.9817 17.1719 16.983 17.156 16.9839 17.1401H16.9835Z" fill="#AA8C00"/>
<path d="M84.8637 17.1922H54.392C54.392 17.1763 54.392 17.1604 54.392 17.1445H84.8606C84.8615 17.1604 84.8624 17.1763 84.8633 17.1922H84.8637Z" fill="#AA8C00"/>
<path d="M40.6524 20.9662H41.1685C40.9522 21.6006 41.0658 22.2568 41.0101 22.8989C40.9522 23.566 40.6516 23.9324 40.0087 23.9928C39.8151 24.011 39.6115 23.9942 39.4219 23.9497C39.0322 23.8584 38.8001 23.5864 38.7491 23.1791C38.7101 22.8648 38.7075 22.546 38.6917 22.2291C38.6811 22.0175 38.6855 21.805 38.668 21.5938C38.6504 21.3867 38.614 21.181 38.5846 20.9653H39.2727C39.0915 21.7101 39.1463 22.4557 39.217 23.1954C39.2525 23.5664 39.5738 23.8143 39.9209 23.8207C40.3132 23.828 40.6248 23.6091 40.6766 23.2131C40.7301 22.8035 40.7319 22.3844 40.7279 21.9693C40.7249 21.6383 40.6797 21.3073 40.6524 20.9667V20.9662Z" fill="currentColor"/>
<path d="M52.9816 23.9041C53.5485 22.9487 53.8316 21.862 54.3205 20.8267C54.3657 20.9261 54.4017 20.9956 54.4302 21.0687C54.6961 21.7385 54.9542 22.4119 55.2294 23.0776C55.3456 23.3587 55.4966 23.6248 55.6313 23.8964C55.3347 24.0285 55.0744 23.9245 54.9428 23.5953C54.9235 23.5467 54.9094 23.4954 54.8901 23.4468C54.8164 23.2629 54.8019 22.9936 54.575 22.9705C54.3012 22.9423 53.9988 22.9505 53.7478 23.0495C53.6153 23.1017 53.5354 23.371 53.4858 23.5581C53.3906 23.9168 53.366 23.9504 52.9816 23.9045V23.9041ZM53.8162 22.6998H54.6022C54.475 22.3515 54.3574 22.0309 54.2402 21.7103C54.216 21.7149 54.1915 21.7194 54.1673 21.724C54.0519 22.045 53.9365 22.3661 53.8162 22.6998Z" fill="currentColor"/>
<path d="M51.9187 17.1143C51.6352 17.4295 51.3864 17.7046 51.1397 17.9821C51.0059 18.1329 50.8598 18.1415 50.7176 18.0103C50.4889 17.7996 50.2682 17.5798 50.0474 17.3609C49.9193 17.2337 49.9202 17.0925 50.04 16.9622C50.2414 16.7442 50.4385 16.5199 50.6605 16.3265C50.7351 16.2615 50.9238 16.2243 50.9853 16.2738C51.3048 16.5317 51.6001 16.8219 51.9183 17.1139L51.9187 17.1143Z" fill="#AA8C00"/>
<path d="M44.854 21.3532C44.8675 21.0705 44.9854 20.9289 45.2077 20.9286C45.8581 20.9286 46.5081 20.9277 47.1584 20.9286C47.4082 20.9291 47.4226 20.9518 47.3577 21.2497C47.0386 21.2029 46.717 21.1561 46.3654 21.1048C46.3654 21.2156 46.3654 21.3042 46.3654 21.3923C46.3668 21.9821 46.3562 22.572 46.3742 23.161C46.3817 23.4089 46.4493 23.655 46.4909 23.9107H45.7962C45.9161 23.3349 45.8726 22.7541 45.8906 22.1774C45.8985 21.9204 45.8937 21.6634 45.895 21.4063C45.8959 21.2324 45.8296 21.1457 45.6448 21.1511C45.3754 21.1589 45.102 21.1248 44.8536 21.3523L44.854 21.3532Z" fill="currentColor"/>
<path d="M50.7 20.9575H52.3141C52.3005 21.0729 52.2886 21.1741 52.2711 21.3231C51.9797 21.0288 51.6475 21.1451 51.3144 21.1373V22.1868H52.1793V22.5982C51.9582 22.3489 51.6962 22.3861 51.439 22.4188C51.389 22.4252 51.3117 22.4778 51.3043 22.5201C51.2196 22.9946 51.1832 23.466 51.5053 23.9037H50.7377C50.8044 22.9247 50.8764 21.9475 50.6995 20.9575H50.7Z" fill="currentColor"/>
<path d="M65.631 20.9546C65.8193 20.9546 65.9716 20.9397 66.1186 20.9619C66.1791 20.971 66.2472 21.0491 66.2801 21.1131C66.4942 21.525 66.6992 21.9419 66.927 22.3955C67.2377 21.9491 67.5291 21.5341 67.5488 20.9692H68.129C68.0544 21.0623 67.9978 21.1345 67.9403 21.2053C67.5405 21.6953 67.189 22.2107 67.0981 22.8691C67.0485 23.227 67.0454 23.5757 67.2811 23.909H66.5267C66.6395 23.4263 66.7343 22.9395 66.4934 22.4691C66.2818 22.0558 66.0361 21.6612 65.8052 21.2584C65.7543 21.1699 65.7034 21.0813 65.6306 20.9551L65.631 20.9546Z" fill="currentColor"/>
<path d="M44.2743 23.4647C44.2796 23.8743 44.2326 23.9293 43.9101 23.9329C43.5524 23.937 43.1939 23.9238 42.8367 23.9388C42.6515 23.9465 42.619 23.8671 42.6199 23.7004C42.6243 22.9752 42.6234 22.2496 42.6128 21.5244C42.6102 21.3414 42.5637 21.1593 42.536 20.9658H43.1825C43.1575 21.2324 43.1175 21.4939 43.1123 21.7564C43.1022 22.2623 43.1096 22.769 43.1136 23.2749C43.1162 23.6096 43.2066 23.7036 43.5305 23.7181C43.7929 23.7295 44.0624 23.7635 44.2739 23.4643L44.2743 23.4647Z" fill="currentColor"/>
<path d="M63.3609 20.9678H63.9976C63.9709 21.2184 63.9265 21.4582 63.9239 21.6984C63.9182 22.242 63.9309 22.786 63.9406 23.3295C63.9454 23.607 64.0068 23.6837 64.2697 23.7069C64.5506 23.7319 64.8442 23.79 65.0618 23.4957C65.1215 23.8263 65.0557 23.9258 64.7792 23.9299C64.3439 23.9362 63.9081 23.9317 63.446 23.9317C63.446 23.7727 63.446 23.6388 63.446 23.5053C63.4451 22.9313 63.4517 22.3569 63.439 21.7829C63.4333 21.5163 63.3894 21.2511 63.3609 20.9678Z" fill="currentColor"/>
<path d="M61.1148 20.9668H61.8266C61.6243 21.4486 61.7244 21.9495 61.7253 22.4394C61.7257 22.9221 61.6397 23.4217 61.8736 23.9035H61.1275C61.2816 23.3049 61.2767 21.4073 61.1152 20.9668H61.1148Z" fill="currentColor"/>
<path d="M49.2439 23.9146H48.5259C48.6269 22.9292 48.6018 21.9529 48.5501 20.9644H49.1684C49.0038 21.6292 49.046 23.5323 49.2439 23.9146Z" fill="currentColor"/>
</g>
<defs>
<clipPath id="clip0_6257_536370">
<rect width="101" height="24" fill="currentColor" transform="translate(0.434784)"/>
</clipPath>
</defs>
</svg>
