<svg width="37" height="37" viewBox="0 0 37 37" fill="none" xmlns="http://www.w3.org/2000/svg">
<g id="Icon/award">
<path id="Vector" d="M18.5005 23.2773C16.1136 23.2773 13.8244 22.3291 12.1366 20.6413C10.4487 18.9535 9.50053 16.6643 9.50053 14.2773C9.50053 11.8904 10.4487 9.60121 12.1366 7.91338C13.8244 6.22556 16.1136 5.27734 18.5005 5.27734C20.8875 5.27734 23.1767 6.22556 24.8645 7.91338C26.5523 9.60121 27.5005 11.8904 27.5005 14.2773C27.5005 16.6643 26.5523 18.9535 24.8645 20.6413C23.1767 22.3291 20.8875 23.2773 18.5005 23.2773ZM18.5005 23.2773L23.6005 32.1123L25.9975 27.2628L31.3945 27.6108L26.2945 18.7773M10.7035 18.7773L5.60352 27.6123L11.0005 27.2628L13.3975 32.1108L18.4975 23.2773" stroke="#111827" stroke-width="2.725" stroke-linecap="round" stroke-linejoin="round"/>
</g>
</svg>
