<svg width="40" height="40" viewBox="0 0 40 40" fill="none" xmlns="http://www.w3.org/2000/svg">
<path d="M10.28 31.416C10.6925 30.043 11.5366 28.8396 12.6871 27.9843C13.8375 27.1289 15.2331 26.6672 16.6667 26.6676H23.3333C24.7688 26.6671 26.166 27.13 27.3173 27.9873C28.4686 28.8446 29.3124 30.0506 29.7233 31.426M5 20.001C5 21.9708 5.38799 23.9213 6.14181 25.7412C6.89563 27.5611 8.00052 29.2147 9.3934 30.6076C10.7863 32.0005 12.4399 33.1054 14.2597 33.8592C16.0796 34.613 18.0302 35.001 20 35.001C21.9698 35.001 23.9204 34.613 25.7403 33.8592C27.5601 33.1054 29.2137 32.0005 30.6066 30.6076C31.9995 29.2147 33.1044 27.5611 33.8582 25.7412C34.612 23.9213 35 21.9708 35 20.001C35 18.0311 34.612 16.0806 33.8582 14.2607C33.1044 12.4408 31.9995 10.7873 30.6066 9.39438C29.2137 8.0015 27.5601 6.8966 25.7403 6.14278C23.9204 5.38896 21.9698 5.00098 20 5.00098C18.0302 5.00098 16.0796 5.38896 14.2597 6.14278C12.4399 6.8966 10.7863 8.0015 9.3934 9.39438C8.00052 10.7873 6.89563 12.4408 6.14181 14.2607C5.38799 16.0806 5 18.0311 5 20.001ZM15 16.6676C15 17.9937 15.5268 19.2655 16.4645 20.2032C17.4021 21.1409 18.6739 21.6676 20 21.6676C21.3261 21.6676 22.5979 21.1409 23.5355 20.2032C24.4732 19.2655 25 17.9937 25 16.6676C25 15.3416 24.4732 14.0698 23.5355 13.1321C22.5979 12.1944 21.3261 11.6676 20 11.6676C18.6739 11.6676 17.4021 12.1944 16.4645 13.1321C15.5268 14.0698 15 15.3416 15 16.6676Z" stroke="white" stroke-width="2.775" stroke-linecap="round" stroke-linejoin="round"/>
</svg>
