<svg width="40" height="40" viewBox="0 0 40 40" fill="none" xmlns="http://www.w3.org/2000/svg">
<path d="M27.0693 12.933L24.0626 21.9514C23.899 22.4423 23.6233 22.8885 23.2573 23.2544C22.8914 23.6203 22.4453 23.8961 21.9543 24.0597L12.936 27.0664L15.9426 18.048C16.1063 17.5571 16.382 17.1109 16.7479 16.745C17.1139 16.379 17.56 16.1033 18.051 15.9397L27.0693 12.933Z" stroke="white" stroke-width="2.775" stroke-linecap="round" stroke-linejoin="round"/>
<path d="M20.0026 36.6663C29.2074 36.6663 36.6693 29.2044 36.6693 19.9997C36.6693 10.7949 29.2074 3.33301 20.0026 3.33301C10.7979 3.33301 3.33594 10.7949 3.33594 19.9997C3.33594 29.2044 10.7979 36.6663 20.0026 36.6663Z" stroke="white" stroke-width="2.775" stroke-linecap="round" stroke-linejoin="round"/>
</svg>
