<svg width="40" height="40" viewBox="0 0 40 40" fill="none" xmlns="http://www.w3.org/2000/svg">
<path d="M15.0008 20.0017L18.3341 23.3351L25.0008 16.6684M8.3341 12.0017C8.3341 11.0293 8.72041 10.0967 9.40804 9.40902C10.0957 8.72139 11.0283 8.33508 12.0008 8.33508H13.6674C14.6356 8.33452 15.5643 7.95108 16.2508 7.26841L17.4174 6.10175C17.7582 5.75908 18.1633 5.48715 18.6095 5.30159C19.0557 5.11603 19.5342 5.02051 20.0174 5.02051C20.5007 5.02051 20.9792 5.11603 21.4254 5.30159C21.8716 5.48715 22.2767 5.75908 22.6174 6.10175L23.7841 7.26841C24.4708 7.95175 25.4008 8.33508 26.3674 8.33508H28.0341C29.0066 8.33508 29.9392 8.72139 30.6268 9.40902C31.3145 10.0967 31.7008 11.0293 31.7008 12.0017V13.6684C31.7008 14.6351 32.0841 15.5651 32.7674 16.2517L33.9341 17.4184C34.2768 17.7592 34.5487 18.1643 34.7343 18.6105C34.9198 19.0567 35.0153 19.5352 35.0153 20.0184C35.0153 20.5017 34.9198 20.9801 34.7343 21.4263C34.5487 21.8725 34.2768 22.2777 33.9341 22.6184L32.7674 23.7851C32.0848 24.4716 31.7013 25.4002 31.7008 26.3684V28.0351C31.7008 29.0075 31.3145 29.9402 30.6268 30.6278C29.9392 31.3154 29.0066 31.7017 28.0341 31.7017H26.3674C25.3993 31.7023 24.4706 32.0857 23.7841 32.7684L22.6174 33.9351C22.2767 34.2777 21.8716 34.5497 21.4254 34.7352C20.9792 34.9208 20.5007 35.0163 20.0174 35.0163C19.5342 35.0163 19.0557 34.9208 18.6095 34.7352C18.1633 34.5497 17.7582 34.2777 17.4174 33.9351L16.2508 32.7684C15.5643 32.0857 14.6356 31.7023 13.6674 31.7017H12.0008C11.0283 31.7017 10.0957 31.3154 9.40804 30.6278C8.72041 29.9402 8.3341 29.0075 8.3341 28.0351V26.3684C8.33355 25.4002 7.9501 24.4716 7.26744 23.7851L6.10077 22.6184C5.7581 22.2777 5.48617 21.8725 5.30061 21.4263C5.11506 20.9801 5.01953 20.5017 5.01953 20.0184C5.01953 19.5352 5.11506 19.0567 5.30061 18.6105C5.48617 18.1643 5.7581 17.7592 6.10077 17.4184L7.26744 16.2517C7.9501 15.5652 8.33355 14.6366 8.3341 13.6684V12.0017Z" stroke="white" stroke-width="2.775" stroke-linecap="round" stroke-linejoin="round"/>
</svg>
