<svg width="40" height="40" viewBox="0 0 40 40" fill="none" xmlns="http://www.w3.org/2000/svg">
<path d="M19.9999 25.001C17.3478 25.001 14.8042 23.9474 12.9289 22.072C11.0535 20.1967 9.99993 17.6531 9.99993 15.001C9.99993 12.3488 11.0535 9.80527 12.9289 7.92991C14.8042 6.05455 17.3478 5.00098 19.9999 5.00098C22.6521 5.00098 25.1956 6.05455 27.071 7.92991C28.9464 9.80527 29.9999 12.3488 29.9999 15.001C29.9999 17.6531 28.9464 20.1967 27.071 22.072C25.1956 23.9474 22.6521 25.001 19.9999 25.001ZM19.9999 25.001L25.6666 34.8176L28.3299 29.4293L34.3266 29.816L28.6599 20.001M11.3366 20.001L5.66992 29.8176L11.6666 29.4293L14.3299 34.816L19.9966 25.001" stroke="white" stroke-width="2.775" stroke-linecap="round" stroke-linejoin="round"/>
</svg>
