<svg width="40" height="40" viewBox="0 0 40 40" fill="none" xmlns="http://www.w3.org/2000/svg">
<path d="M32.5002 20.9541L20.0002 33.3341L7.50018 20.9541C6.67569 20.1518 6.02625 19.1875 5.59276 18.1218C5.15926 17.0562 4.95111 15.9124 4.98141 14.7623C5.0117 13.6123 5.27978 12.481 5.76877 11.4397C6.25776 10.3983 6.95707 9.46954 7.82265 8.71175C8.68824 7.95396 9.70135 7.3836 10.7982 7.03658C11.895 6.68957 13.0519 6.57342 14.1958 6.69545C15.3397 6.81748 16.446 7.17504 17.445 7.74563C18.4439 8.31621 19.3139 9.08745 20.0002 10.0108C20.6894 9.09415 21.5604 8.32965 22.5587 7.76512C23.5569 7.2006 24.661 6.8482 25.8017 6.72998C26.9425 6.61177 28.0953 6.73028 29.1881 7.0781C30.2809 7.42593 31.2902 7.99557 32.1528 8.75139C33.0153 9.50721 33.7126 10.4329 34.2009 11.4706C34.6892 12.5083 34.9581 13.6356 34.9907 14.782C35.0233 15.9283 34.8189 17.0691 34.3904 18.1329C33.9619 19.1966 33.3184 20.1605 32.5002 20.9641M20.0002 10.0008L14.5119 15.4891C14.1994 15.8017 14.0239 16.2255 14.0239 16.6675C14.0239 17.1094 14.1994 17.5332 14.5119 17.8458L15.4169 18.7508C16.5669 19.9008 18.4335 19.9008 19.5835 18.7508L21.2502 17.0841C22.2448 16.0896 23.5937 15.5308 25.0002 15.5308C26.4067 15.5308 27.7556 16.0896 28.7502 17.0841L32.5002 20.8341M20.8335 25.8341L24.1668 29.1675M25.0002 21.6675L28.3335 25.0008" stroke="white" stroke-width="2.775" stroke-linecap="round" stroke-linejoin="round"/>
</svg>
