<svg width="25" height="24" viewBox="0 0 25 24" fill="none" xmlns="http://www.w3.org/2000/svg">
<path d="M16.5 21V19C16.5 17.9391 16.0786 16.9217 15.3284 16.1716C14.5783 15.4214 13.5609 15 12.5 15H6.5C5.43913 15 4.42172 15.4214 3.67157 16.1716C2.92143 16.9217 2.5 17.9391 2.5 19V21M22.5 20.9999V18.9999C22.4993 18.1136 22.2044 17.2527 21.6614 16.5522C21.1184 15.8517 20.3581 15.3515 19.5 15.1299M16.5 3.12988C17.3604 3.35018 18.123 3.85058 18.6676 4.55219C19.2122 5.2538 19.5078 6.11671 19.5078 7.00488C19.5078 7.89305 19.2122 8.75596 18.6676 9.45757C18.123 10.1592 17.3604 10.6596 16.5 10.8799M13.5 7C13.5 9.20914 11.7091 11 9.5 11C7.29086 11 5.5 9.20914 5.5 7C5.5 4.79086 7.29086 3 9.5 3C11.7091 3 13.5 4.79086 13.5 7Z" stroke="#18181B" stroke-width="2" stroke-linecap="round" stroke-linejoin="round"/>
</svg>
