<svg width="40" height="40" viewBox="0 0 40 40" fill="none" xmlns="http://www.w3.org/2000/svg">
<path d="M40 31.4282C40 32.7341 38.9414 33.7928 37.6355 33.7928H2.36445C1.05859 33.7929 0 32.7341 0 31.4282V8.57162C0 7.26576 1.05859 6.20709 2.36445 6.20709H37.6355C38.9415 6.20709 40 7.26576 40 8.57162V31.4282Z" fill="#1D4ED8"/>
<path opacity="0.15" d="M1.68102 31.4282V8.57162C1.68102 7.26576 2.73977 6.20709 4.04563 6.20709H2.36438C1.05859 6.20709 0 7.26569 0 8.57162V31.4283C0 32.7342 1.05859 33.7929 2.36445 33.7929H4.0457C2.73984 33.7929 1.68102 32.7341 1.68102 31.4282Z" fill="#202121"/>
<path d="M5.82727 17.2459H7.02243L6.425 15.7248L5.82727 17.2459Z" fill="white"/>
<path d="M12.1831 22.3521V23.0584H14.1932V23.8191H12.1831V24.6342H14.4104L15.4425 23.4931L14.4647 22.3521H12.1831Z" fill="white"/>
<path d="M27.8829 15.7248L27.231 17.2459H28.4806L27.8829 15.7248Z" fill="white"/>
<path d="M17.9961 25.0681V21.9717L16.5836 23.4929L17.9961 25.0681Z" fill="white"/>
<path d="M20.6578 22.8412C20.6035 22.5153 20.386 22.3521 20.0599 22.3521H18.9193V23.3299H20.1145C20.4404 23.3299 20.6578 23.1671 20.6578 22.8412Z" fill="white"/>
<path d="M24.4602 23.2214C24.5689 23.167 24.6234 23.0038 24.6234 22.8412C24.6778 22.6241 24.5689 22.5152 24.4602 22.4609C24.3519 22.4065 24.1887 22.4065 24.0259 22.4065H22.9392V23.2758H24.0258C24.1886 23.2758 24.3518 23.2758 24.4602 23.2214Z" fill="white"/>
<path d="M32.2827 14.3123V14.9642L31.957 14.3123H29.4041V14.9642L29.078 14.3123H25.6012C25.0037 14.3123 24.5146 14.4211 24.0802 14.6383V14.3123H21.6358V14.3667V14.6383C21.3642 14.4211 21.0383 14.3123 20.6037 14.3123H11.8576L11.2598 15.6704L10.6623 14.3123H8.7068H7.89187V14.9642L7.62023 14.3123H7.56586H5.23L4.14336 16.8654L2.89406 19.6359L2.87109 19.6904H2.89406H5.66461H5.6993L5.71898 19.6359L6.04508 18.8212H6.75125L7.07719 19.6904H10.2277V19.6359V19.0385L10.4995 19.6903H12.0747L12.3462 19.0385V19.6359V19.6904H13.5956H19.8429H19.8973V18.2779H20.0062C20.1147 18.2779 20.1147 18.2779 20.1147 18.4409V19.636H24.026V19.3101C24.352 19.4733 24.8405 19.636 25.4925 19.636H27.1224L27.4484 18.767H28.2087L28.5346 19.636H31.6852V19.0929V18.8213L32.1744 19.636H32.2827H32.3373H34.7275V14.3123H32.2829H32.2827ZM13.8674 18.8757H13.3241H12.9982V18.55V15.8878L12.9438 16.0124V16.0109L11.6801 18.8757H11.6401H11.3495H10.8795L9.57578 15.8878V18.8757H7.72891L7.34867 18.0608H5.50148L5.12117 18.8757H4.16625L5.77328 15.0729H7.13125L8.65227 18.7126V15.0729H8.97812H10.0915L10.1171 15.1274H10.119L10.8044 16.6191L11.2966 17.7368L11.314 17.6804L12.4004 15.073H13.8673V18.8757H13.8674ZM17.6159 15.8878H15.4972V16.594H17.5615V17.3544H15.4972V18.1152H17.6159V18.9298H14.5738V15.073H17.6159V15.8878ZM21.4905 17.2886C21.4919 17.2898 21.4937 17.2907 21.4954 17.2918C21.5159 17.3136 21.5335 17.3354 21.5485 17.3562C21.6526 17.4926 21.7367 17.6955 21.7409 17.993C21.7413 17.9982 21.7415 18.0033 21.7418 18.0084C21.7418 18.0114 21.7423 18.014 21.7423 18.017C21.7423 18.0187 21.7422 18.0201 21.7422 18.0217C21.7434 18.0516 21.7442 18.0822 21.7442 18.1152V18.8758H20.9295V18.441C20.9295 18.2237 20.9295 17.8977 20.7663 17.6804C20.715 17.6291 20.663 17.5953 20.6065 17.5712C20.5251 17.5185 20.3708 17.5176 20.1147 17.5176H19.1366V18.8758H18.2133V15.073H20.2777C20.7663 15.073 21.0924 15.073 21.3641 15.236C21.6303 15.3958 21.7911 15.6609 21.7972 16.0807C21.7846 16.6588 21.4135 16.976 21.1467 17.0829C21.1467 17.0829 21.328 17.1194 21.4905 17.2886ZM23.3198 18.8757H22.3962V15.0729H23.3198V18.8757ZM33.9129 18.8757H32.7176L30.9793 15.9964V18.3866L30.9736 18.381V18.878H30.0559V18.8758H29.1323L28.8063 18.0609H26.9048L26.5789 18.9299H25.5468C25.1125 18.9299 24.5689 18.8214 24.2431 18.4954C23.9172 18.1695 23.7544 17.7349 23.7544 17.0288C23.7544 16.4856 23.8629 15.942 24.2431 15.5076C24.5145 15.1814 25.0037 15.073 25.6011 15.073H26.4705V15.8878H25.6011C25.2752 15.8878 25.1125 15.9419 24.8948 16.1052C24.7321 16.2681 24.6234 16.594 24.6234 16.9742C24.6234 17.4089 24.6777 17.6804 24.8948 17.8977C25.0581 18.0609 25.2752 18.1153 25.5468 18.1153H25.927L27.1763 15.1276H27.7198H28.5345L30.0558 18.7672V18.5815V17.3546V17.2461V15.1276H31.4137L32.9888 17.7893V15.1276H33.9127V18.8758H33.9129V18.8757Z" fill="white"/>
<path d="M20.7156 16.6567C20.7315 16.6397 20.7458 16.6205 20.758 16.5985C20.8072 16.5206 20.8637 16.3803 20.8333 16.1888C20.832 16.1712 20.8288 16.155 20.8251 16.1393C20.824 16.1349 20.8242 16.1311 20.823 16.1267L20.8225 16.1268C20.7954 16.0337 20.7265 15.9765 20.6576 15.9418C20.5487 15.8877 20.3858 15.8877 20.2229 15.8877H19.1362V16.757H20.2229C20.3858 16.757 20.5488 16.757 20.6576 16.7025C20.674 16.6943 20.6885 16.683 20.7025 16.6703L20.7026 16.671C20.7026 16.671 20.7083 16.6651 20.7156 16.6567Z" fill="white"/>
<path d="M37.1175 24.308C37.1175 23.9277 37.009 23.5473 36.8461 23.2758V20.8313H36.8436V20.6681C36.8436 20.6681 34.5666 20.6681 34.2277 20.6681C33.889 20.6681 33.4779 20.994 33.4779 20.994V20.6681H30.9791C30.5987 20.6681 30.1101 20.7769 29.8925 20.994V20.6681H25.4381V20.8313V20.9939C25.1124 20.7225 24.5144 20.668 24.2429 20.668H21.3094V20.8312V20.9938C21.0379 20.7224 20.3857 20.668 20.0596 20.668H16.8007L16.04 21.4829L15.3337 20.668H15.1063H14.7362H10.4448V20.8312V21.2603V26.1549H15.2253L16.0108 25.3692L16.6916 26.1549H16.7462H19.5007H19.6255H19.6799H19.734V25.6117V24.9055H20.0058C20.3857 24.9055 20.8748 24.9055 21.2551 24.7423V26.1003V26.2092H23.6997V26.1003V24.7967H23.808C23.9712 24.7967 23.9712 24.7967 23.9712 24.9597V26.1003V26.2092H31.359C31.8483 26.2092 32.3369 26.1003 32.6084 25.883V26.1003V26.2092H34.9445C35.4331 26.2092 35.9224 26.1549 36.2483 25.9375C36.7485 25.6374 37.0637 25.1062 37.1106 24.4727C37.1128 24.454 37.1155 24.4352 37.1172 24.4164L37.114 24.4134C37.1161 24.3782 37.1175 24.3434 37.1175 24.308ZM20.0058 23.9821H18.9191V24.1447V24.4708V24.7968V25.3944H17.1336L16.0944 24.1991L16.0908 24.2031L16.04 24.1447L14.8449 25.3944H11.3683V21.5918H14.8993L15.864 22.6484L16.0668 22.8697L16.0943 22.8412L17.2352 21.5919H20.1143C20.673 21.5919 21.2987 21.7298 21.5358 22.2983C21.5644 22.4109 21.5809 22.536 21.5809 22.6782C21.5809 23.7646 20.8204 23.9821 20.0058 23.9821ZM25.4381 23.9277C25.5466 24.0902 25.601 24.3079 25.601 24.634V25.3943H24.6776V24.9055C24.6776 24.6879 24.6776 24.3079 24.5144 24.1447C24.4061 23.9821 24.1885 23.9821 23.8628 23.9821H22.8851V25.3944H21.9616V21.5374H24.0258C24.4601 21.5374 24.8403 21.5374 25.1124 21.7002C25.3838 21.8634 25.601 22.135 25.601 22.5696C25.601 23.167 25.2209 23.493 24.9492 23.6018C25.2209 23.71 25.3838 23.819 25.4381 23.9277ZM29.1865 22.352H27.0676V23.0582H29.132V23.8189H27.0676V24.5795H29.1865V25.3943H26.1444V21.5373H29.1865V22.352ZM31.4679 25.3944H29.7295V24.5796H31.4679C31.6306 24.5796 31.7395 24.5796 31.8484 24.4709C31.9028 24.4164 31.9568 24.308 31.9568 24.1992C31.9568 24.0903 31.9028 23.9822 31.8484 23.9277C31.7939 23.8734 31.6851 23.8191 31.5222 23.8191C30.6529 23.7647 29.6208 23.8191 29.6208 22.6241C29.6208 22.0808 29.9468 21.4831 30.9247 21.4831H32.7172V22.4065H31.0333C30.8704 22.4065 30.7616 22.4065 30.6529 22.4609C30.5445 22.5153 30.5445 22.6241 30.5445 22.7326C30.5445 22.8956 30.6529 22.95 30.7615 23.0039C30.8704 23.0584 30.979 23.0584 31.0875 23.0584H31.5765C32.0654 23.0584 32.3913 23.167 32.6086 23.3844C32.7716 23.5474 32.8803 23.8191 32.8803 24.1992C32.8803 25.0138 32.3914 25.3944 31.4679 25.3944ZM36.1397 25.0138C35.9227 25.2314 35.5422 25.3944 34.9988 25.3944H33.2608V24.5796H34.9987C35.1618 24.5796 35.2707 24.5796 35.3792 24.4709C35.4333 24.4164 35.4879 24.308 35.4879 24.1992C35.4879 24.0903 35.4333 23.9822 35.3792 23.9277C35.3248 23.8734 35.2163 23.8191 35.0533 23.8191C34.1844 23.7647 33.1519 23.8191 33.1519 22.6241C33.1519 22.1078 33.4473 21.6414 34.1758 21.5029C34.2629 21.4909 34.355 21.4831 34.4558 21.4831H36.2486V22.4065H35.0533H34.6188H34.5644C34.4014 22.4065 34.2929 22.4065 34.1844 22.4609C34.1297 22.5153 34.0753 22.6241 34.0753 22.7326C34.0753 22.8956 34.1297 22.95 34.2929 23.0039C34.4014 23.0584 34.5101 23.0584 34.6188 23.0584H34.6728H35.1076C35.345 23.0584 35.5245 23.0877 35.6888 23.1454C35.8393 23.1998 36.3374 23.4227 36.4488 24.0043C36.4585 24.0652 36.4656 24.1288 36.4656 24.1992C36.4656 24.5252 36.3569 24.7968 36.1397 25.0138Z" fill="white"/>
</svg>
