<svg width="40" height="40" viewBox="0 0 40 40" fill="none" xmlns="http://www.w3.org/2000/svg">
<path d="M40 31.4283C40 32.7342 38.9414 33.7929 37.6355 33.7929H2.36445C1.05859 33.7929 0 32.734 0 31.4283V8.57162C0 7.26569 1.05859 6.20709 2.36445 6.20709H37.6355C38.9414 6.20709 39.9999 7.26576 39.9999 8.57162L40 31.4283Z" fill="#0284C7"/>
<path d="M40 24.0767H0V29.7024H40V24.0767Z" fill="#475569"/>
<path opacity="0.15" d="M1.68102 31.4283V8.57162C1.68102 7.26569 2.73977 6.20709 4.04563 6.20709H2.36438C1.05859 6.20709 0 7.26584 0 8.57162V31.4283C0 32.7342 1.05859 33.7929 2.36445 33.7929H4.0457C2.73984 33.7929 1.68102 32.734 1.68102 31.4283Z" fill="#0F172A"/>
<path d="M28.8277 14.2955H21.1146C20.7544 14.2955 20.4624 14.0037 20.4624 13.6433C20.4624 13.283 20.7543 12.9911 21.1146 12.9911H28.8277C29.1879 12.9911 29.4799 13.283 29.4799 13.6433C29.4799 14.0037 29.1879 14.2955 28.8277 14.2955Z" fill="white"/>
<path d="M35.3348 17.0037H21.1143C20.7541 17.0037 20.4622 16.7118 20.4622 16.3515C20.4622 15.9914 20.754 15.6993 21.1143 15.6993H35.3348C35.695 15.6993 35.987 15.9914 35.987 16.3515C35.9869 16.7118 35.695 17.0037 35.3348 17.0037Z" fill="white"/>
<path d="M6.36914 15.161C6.36914 16.4216 7.14172 17.4787 8.23961 17.8852V12.4368C7.1418 12.8433 6.36914 13.9005 6.36914 15.161Z" fill="white"/>
<path d="M12.1835 15.161C12.1835 13.9004 11.4111 12.8433 10.3129 12.4368V17.8852C11.4111 17.4786 12.1835 16.3807 12.1835 15.161Z" fill="white"/>
<path d="M14.5929 10.984C14.5893 10.9804 14.586 10.9767 14.5828 10.9729C14.5136 10.9304 14.4435 10.8894 14.3725 10.8496C13.7377 10.4825 13.0257 10.2431 12.2843 10.156C12.0881 10.1193 11.8918 10.119 11.6958 10.119H11.6549H9.29666H9.2562C6.45049 10.119 4.17346 12.1927 4.17346 15.2017C4.17346 16.4214 4.62088 17.5599 5.39338 18.4137L5.46057 18.4814C6.39284 19.5358 7.76526 20.2028 9.29651 20.2028H11.6547C14.4199 20.2028 16.9406 17.9665 16.9406 15.2018C16.9158 13.3566 15.9581 11.8634 14.5929 10.984ZM9.31596 19.8396C6.73206 19.8396 4.63729 17.7448 4.63729 15.1609C4.63729 12.5769 6.73206 10.4822 9.31596 10.4822C11.9 10.4822 13.9949 12.5769 13.9949 15.1609C13.9947 17.7447 11.9 19.8396 9.31596 19.8396Z" fill="white"/>
</svg>
