<svg width="40" height="40" viewBox="0 0 40 40" fill="none" xmlns="http://www.w3.org/2000/svg">
<path d="M40 31.4283C40 32.7342 38.9414 33.7929 37.6355 33.7929H2.36445C1.05859 33.7929 0 32.734 0 31.4283V8.57162C0 7.26569 1.05859 6.20709 2.36445 6.20709H37.6355C38.9414 6.20709 39.9999 7.26576 39.9999 8.57162L40 31.4283Z" fill="#475569"/>
<path opacity="0.15" d="M1.68102 31.4283V8.57162C1.68102 7.26569 2.73977 6.20709 4.04563 6.20709H2.36438C1.05859 6.20709 0 7.26584 0 8.57162V31.4283C0 32.7342 1.05859 33.7929 2.36445 33.7929H4.0457C2.73984 33.7929 1.68102 32.734 1.68102 31.4283Z" fill="#020617"/>
<path d="M24.1711 19.9845C24.1743 19.2317 23.892 18.4778 23.324 17.9097C22.7547 17.3404 21.9989 17.0583 21.2445 17.0629C21.2409 17.0629 21.2374 17.0626 21.2336 17.0626C19.5955 17.0626 18.2961 18.3617 18.2961 20.0003C18.2961 21.6227 19.6115 22.9377 21.2336 22.9377C22.8722 22.9377 24.1715 21.6384 24.1715 20.0003C24.1715 19.9949 24.1711 19.9898 24.1711 19.9845Z" fill="#EA580C"/>
<path d="M17.7499 21.2432C17.3108 21.6828 16.9056 21.8545 16.4691 21.8638C15.4058 21.8542 14.624 21.0667 14.624 19.944C14.624 19.3788 14.838 18.9156 15.1769 18.5199C15.4948 18.2181 15.9044 18.0231 16.3753 18.0231C16.8837 18.0231 17.2793 18.1926 17.7309 18.6446V17.3453C17.2794 17.1194 16.8836 17.0063 16.3753 17.0063C15.6572 17.0577 14.9801 17.3478 14.4607 17.8035C14.311 17.9381 14.1676 18.0868 14.0459 18.257C13.6666 18.7487 13.4373 19.3508 13.4373 20.0007C13.4373 21.6388 14.737 22.8816 16.3752 22.8816C16.3832 22.8816 16.3911 22.8809 16.3988 22.8808C16.4098 22.881 16.4207 22.8816 16.4316 22.8816C16.8835 22.8816 17.2793 22.7688 17.7876 22.5428L17.7499 21.2432C17.7308 21.2623 17.7688 21.28 17.7499 21.2981V21.2432Z" fill="#F1F5F9"/>
<path d="M27.8798 17.8153L26.6004 20.9608L25.1315 17.2319H23.9453L26.2614 22.9378H26.8828L29.312 17.2319H28.1259L27.8798 17.8153Z" fill="#F1F5F9"/>
<path d="M29.7643 19.7177V22.7686H32.8151H32.8713V21.8644H31.911H30.8941V20.8477V20.3394H32.8151V19.3787H30.8941V18.1925H32.8713V17.2319H29.7643V19.7177Z" fill="#F1F5F9"/>
<path d="M4.22908 17.2319H2.64697V22.7686H4.229C5.07627 22.7686 5.6976 22.5424 6.20604 22.1469C6.82736 21.6385 7.22299 20.8478 7.22299 20.0005C7.22307 18.3618 6.0365 17.2319 4.22908 17.2319ZM5.5283 21.4127C5.18932 21.6951 4.73736 21.8644 4.05939 21.8644H3.72041V18.1924H4.00283C4.6808 18.1924 5.13275 18.3054 5.47182 18.6442C5.86721 18.983 6.0933 19.4917 6.0933 20.0003C6.14979 20.5087 5.92385 21.0734 5.5283 21.4127Z" fill="#F1F5F9"/>
<path d="M8.80517 17.2314H7.73181V22.7679H8.80517V17.2314Z" fill="#F1F5F9"/>
<path d="M11.5168 19.3786C10.8389 19.1527 10.6693 18.9831 10.6693 18.7007C10.6693 18.3618 11.0082 18.0793 11.4602 18.0793C11.7992 18.0793 12.0816 18.1924 12.3641 18.5314L12.9292 17.797C12.4771 17.4014 11.9124 17.1757 11.2909 17.1757C10.3303 17.1757 9.53934 17.8536 9.53934 18.7572C9.53934 19.5483 9.87863 19.8872 10.8954 20.2827C11.3473 20.4519 11.5168 20.5086 11.63 20.6216C11.8556 20.7344 11.9688 20.9606 11.9688 21.1863C11.9688 21.6383 11.63 21.9774 11.1213 21.9774C10.6124 21.9774 10.1608 21.695 9.9348 21.2429L9.25684 21.9209C9.76551 22.6553 10.3869 22.9942 11.1779 22.9942C12.3076 22.9942 13.0982 22.2598 13.0982 21.1863C13.0983 20.2261 12.7596 19.8307 11.5168 19.3786Z" fill="#F1F5F9"/>
<path d="M35.922 20.452C36.7691 20.2828 37.2212 19.7176 37.2212 18.8704C37.2212 17.8537 36.4867 17.2319 35.244 17.2319H33.6056V22.7686H34.679V20.5651H34.8486L36.3736 22.7686H37.6731L35.922 20.452ZM35.0178 19.774H34.679V18.0794H35.0178C35.6957 18.0794 36.0914 18.3618 36.0914 18.9271C36.0914 19.4918 35.6958 19.774 35.0178 19.774Z" fill="#F1F5F9"/>
</svg>
