<svg width="40" height="40" viewBox="0 0 40 40" fill="none" xmlns="http://www.w3.org/2000/svg">
<path d="M40 31.4283C40 32.7342 38.9414 33.7929 37.6355 33.7929H2.36445C1.05859 33.7929 0 32.734 0 31.4283V8.57162C0 7.26569 1.05859 6.20709 2.36445 6.20709H37.6355C38.9414 6.20709 39.9999 7.26576 39.9999 8.57162L40 31.4283Z" fill="white"/>
<path opacity="0.15" d="M1.68102 31.4283V8.57162C1.68102 7.26569 2.73977 6.20709 4.04563 6.20709H2.36438C1.05859 6.20709 0 7.26584 0 8.57162V31.4281C0 32.734 1.05859 33.7927 2.36445 33.7927H4.0457C2.73984 33.7929 1.68102 32.734 1.68102 31.4283Z" fill="#020617"/>
<path d="M15.3277 11.2007H11.136C9.09953 11.2007 7.73132 12.569 7.73132 14.6054V20.6955C7.73132 20.6985 7.73164 20.7015 7.73218 20.7045C7.89289 21.4681 8.69328 22.0438 9.5939 22.0438C10.5882 22.0438 11.3378 21.3452 11.3378 20.4187V17.3773H13.9003V20.379C13.9003 22.0907 11.6968 22.8987 10.208 22.9057C9.32742 22.902 8.46445 22.6315 7.84031 22.1633C7.82726 22.1536 7.80953 22.1519 7.79484 22.1593C7.79484 22.1593 7.79468 22.1594 7.79453 22.1594C7.78226 22.1533 7.76765 22.1531 7.75531 22.1593C7.7407 22.1667 7.7314 22.1817 7.7314 22.1982V28.9208C7.7314 28.9447 7.75078 28.9643 7.77492 28.9643H12.0854C13.6051 28.9643 15.3714 27.5289 15.3714 25.6783V11.2442C15.3712 11.2201 15.3519 11.2007 15.3277 11.2007Z" fill="#1E3A8A"/>
<path d="M23.7513 11.2007H19.5991C17.5309 11.2007 16.1944 12.5216 16.1944 14.5661V18.0064C16.1944 18.0233 16.2041 18.0386 16.2194 18.0458C16.2347 18.0529 16.2527 18.0505 16.2657 18.0397C16.6281 17.7376 17.2124 17.3774 17.9382 17.3774H22.4029V18.1896C21.3188 17.9522 20.3161 17.8441 19.8362 17.8441C18.7001 17.8441 17.7758 18.7684 17.7758 19.9044L17.7761 19.917L17.7758 19.944C17.7758 21.0801 18.7001 22.0043 19.8362 22.0043C20.4183 22.0043 21.4316 21.9096 22.4029 21.6983V22.4314H17.9382C17.296 22.4314 16.6875 22.1908 16.2685 21.7716C16.2559 21.7591 16.2373 21.7555 16.2211 21.7622C16.2048 21.769 16.1942 21.7848 16.1942 21.8024V28.9205C16.1942 28.9445 16.2136 28.964 16.2377 28.964H20.5083C22.0282 28.964 23.7946 27.5287 23.7946 25.678V11.2442C23.7948 11.2201 23.7754 11.2007 23.7513 11.2007Z" fill="#B91C1C"/>
<path d="M26.0414 21.9214C26.0414 21.9454 26.0609 21.9649 26.0849 21.9649H27.9434C28.4424 21.9649 28.8967 21.5106 28.8967 21.0118C28.8967 20.5131 28.4423 20.0588 27.9434 20.0588H26.0849C26.061 20.0588 26.0414 20.0783 26.0414 20.1024V21.9214Z" fill="#16A34A"/>
<path d="M32.2933 11.2007H28.1803C27.0855 11.2007 26.1959 11.5709 25.6008 12.2226C25.6008 12.2226 24.7361 13.0661 24.7361 14.4573C24.7361 14.5087 24.7361 14.5576 24.7361 14.6053V15.8486V17.3339C24.7361 17.3579 24.7555 17.3774 24.7796 17.3774H29.7625C30.4462 17.3774 31.0241 17.9552 31.0241 18.639C31.0241 19.3229 30.4462 19.9006 29.7625 19.9006C29.7384 19.9006 29.719 19.9201 29.719 19.9441C29.719 19.9682 29.7383 19.9876 29.7625 19.9876C30.5362 19.9876 31.1426 20.5244 31.1426 21.2097C31.1426 21.9064 30.5492 22.4318 29.7625 22.4318H24.7796C24.7555 22.4318 24.7361 22.4512 24.7361 22.4753V28.9209C24.7361 28.9449 24.7555 28.9644 24.7796 28.9644H29.0506C30.5704 28.9644 32.3368 27.529 32.3368 25.6784V11.2442C32.3368 11.2201 32.3172 11.2007 32.2933 11.2007Z" fill="#16A34A"/>
<path d="M26.0849 19.711H27.9434C28.4386 19.711 28.857 19.2926 28.857 18.7974C28.857 18.2987 28.4029 17.8444 27.9042 17.8444H26.0849C26.061 17.8444 26.0414 17.8638 26.0414 17.8879V19.6676C26.0414 19.6915 26.0609 19.711 26.0849 19.711Z" fill="#16A34A"/>
</svg>
