<svg width="40" height="40" viewBox="0 0 40 40" fill="none" xmlns="http://www.w3.org/2000/svg">
<path d="M40 31.4282C40 32.7341 38.9414 33.7928 37.6355 33.7928H2.36445C1.05859 33.7929 0 32.7341 0 31.4282V8.57162C0 7.26569 1.05859 6.20709 2.36445 6.20709H37.6355C38.9415 6.20709 40 7.26576 40 8.57162V31.4282Z" fill="#020617"/>
<path d="M1.68102 31.4282V8.57162C1.68102 7.26569 2.73969 6.20709 4.04563 6.20709H2.36438C1.05859 6.20709 0 7.26569 0 8.57162V31.4283C0 32.7342 1.05859 33.7929 2.36445 33.7929H4.0457C2.73977 33.7929 1.68102 32.7341 1.68102 31.4282Z" fill="#EEF0F0" fill-opacity="0.36"/>
<path d="M24.2146 13.1219H16.5576V26.8784H24.2146V13.1219Z" fill="#FF5A00"/>
<path d="M17.0672 20C17.0672 17.2051 18.3811 14.7245 20.3972 13.1218C18.9134 11.9551 17.0417 11.25 15 11.25C10.1634 11.25 6.25 15.1634 6.25 20C6.25 24.8366 10.1634 28.75 15 28.75C17.0417 28.75 18.9134 28.0449 20.3972 26.8782C18.3782 25.2981 17.0672 22.7949 17.0672 20Z" fill="#DC2626"/>
<path d="M34.5446 20C34.5446 24.8366 30.6312 28.75 25.7946 28.75C23.7529 28.75 21.8812 28.0449 20.3973 26.8782C22.439 25.2727 23.7274 22.7949 23.7274 20C23.7274 17.2051 22.4135 14.7245 20.3973 13.1218C21.8783 11.9551 23.7501 11.25 25.7918 11.25C30.6312 11.25 34.5446 15.1889 34.5446 20Z" fill="#FB923C"/>
</svg>
