<svg width="40" height="40" viewBox="0 0 40 40" fill="none" xmlns="http://www.w3.org/2000/svg">
<path d="M40 31.4282C40 32.7341 38.9414 33.7928 37.6355 33.7928H2.36445C1.05859 33.7929 0 32.7341 0 31.4282V8.57162C0 7.26569 1.05859 6.20709 2.36445 6.20709H37.6355C38.9415 6.20709 40 7.26576 40 8.57162V31.4282Z" fill="white"/>
<path d="M8.87797 20.1591L7.93875 15.6536C7.7782 15.0322 7.31102 14.8474 6.72727 14.8229H2.42117L2.38281 15.0288C5.73664 15.8418 7.95578 17.8033 8.87797 20.1591Z" fill="#FB923C"/>
<path d="M18.8559 14.9137H16.0736L14.3359 25.1111H17.1136L18.8559 14.9137Z" fill="#0891B2"/>
<path d="M10.5738 25.1009L14.9496 14.9207H12.005L9.28289 21.876L8.99234 20.8258C8.45875 19.5624 6.93375 17.7441 5.14343 16.5994L7.63171 25.1043L10.5738 25.1009Z" fill="#0891B2"/>
<path d="M26.7914 21.7776C26.8017 20.6198 26.0583 19.7368 24.4565 19.0074C23.4829 18.5363 22.8896 18.2222 22.8967 17.7441C22.8967 17.3218 23.3992 16.8681 24.4879 16.8681C25.399 16.8541 26.0549 17.053 26.5679 17.259L26.8194 17.3742L27.1964 15.1651C26.6449 14.959 25.7828 14.7392 24.7046 14.7392C21.9579 14.7392 20.0246 16.1213 20.0071 18.1036C19.9896 19.5694 21.3893 20.3861 22.4431 20.8746C23.5249 21.3726 23.8879 21.6912 23.8809 22.1379C23.874 22.821 23.0188 23.1325 22.2197 23.1325C21.1064 23.1325 20.5165 22.979 19.6018 22.5979L19.2463 22.4346L18.8558 24.7197C19.5045 25.0032 20.7049 25.251 21.951 25.2613C24.8719 25.2613 26.7704 23.8968 26.7914 21.7776Z" fill="#0891B2"/>
<path d="M30.0965 23.5827C30.4141 23.5827 33.2514 23.5862 33.6564 23.5862C33.7401 23.9413 33.9949 25.1147 33.9949 25.1147H36.5739L34.3228 14.9243H32.1766C31.51 14.9243 31.0146 15.1057 30.7213 15.7687L26.5928 25.1147H29.514C29.5138 25.1147 29.9883 23.8586 30.0965 23.5827ZM32.0019 18.6444C31.9882 18.6723 32.2324 18.0546 32.372 17.6707L32.5603 18.5501C32.5603 18.5501 33.091 20.9862 33.2025 21.4957H30.8957C31.1261 20.9095 32.0019 18.6444 32.0019 18.6444Z" fill="#0891B2"/>
<path d="M37.6355 6.20709H2.36445C1.05859 6.20709 0 7.26569 0 8.57162V11.0257H40V8.57162C40 7.26569 38.9415 6.20709 37.6355 6.20709Z" fill="#0891B2"/>
<path d="M37.6355 33.793H2.36445C1.05859 33.793 0 32.7343 0 31.4284V28.9744H40V31.4284C40 32.7343 38.9415 33.793 37.6355 33.793Z" fill="#FB923C"/>
<path opacity="0.15" d="M1.68102 31.4282V8.57162C1.68102 7.26569 2.73969 6.20709 4.04563 6.20709H2.36438C1.05859 6.20709 0 7.26569 0 8.57162V31.4283C0 32.7342 1.05859 33.7929 2.36445 33.7929H4.0457C2.73977 33.7929 1.68102 32.7341 1.68102 31.4282Z" fill="#202121"/>
</svg>
