<svg width="222" height="222" viewBox="0 0 222 222" fill="none" xmlns="http://www.w3.org/2000/svg">
<g clip-path="url(#clip0_25017_4254)">
<path d="M76.6308 201.175V212.379C76.6308 216.235 72.2292 218.437 69.143 216.125L27.4602 184.895C24.9603 183.022 24.9616 179.272 27.4628 177.401L69.1456 146.212C72.2323 143.903 76.6308 146.105 76.6308 149.96V161.462C90.4088 161.547 114.569 160.557 139.959 152.945C190.716 137.73 205.423 107.043 208.08 101.312C208.08 101.312 213.035 201.175 76.6308 201.175Z" stroke="#111827" stroke-width="9.53195" stroke-miterlimit="10" stroke-linecap="round" stroke-linejoin="round"/>
<path d="M39.6443 168.287C24.122 151.068 13.7317 126.947 13.7317 101.938C13.7313 48.2716 57.2412 4.76599 110.908 4.76599C164.575 4.76599 208.081 48.2716 208.081 101.939C208.081 102.777 208.072 103.61 208.051 104.435C208.008 106.209 207.914 108.116 207.773 109.868" stroke="#111827" stroke-width="9.53195" stroke-miterlimit="10" stroke-linecap="round" stroke-linejoin="round"/>
<path d="M127.784 74.2301C127.784 74.2301 116.252 66.7818 105.368 70.0608C95.3732 73.0716 92.8915 86.746 99.683 92.0731C103.583 95.1315 109.451 97.6467 117.359 100.442C135.058 106.699 128.515 131.659 110.511 131.779C103.485 131.826 100.201 131.38 94.0288 127.343" stroke="#111827" stroke-width="9.53195" stroke-miterlimit="10" stroke-linecap="round" stroke-linejoin="round"/>
<path d="M110.509 140.887V131.777" stroke="#111827" stroke-width="9.53195" stroke-miterlimit="10" stroke-linecap="round" stroke-linejoin="round"/>
<path d="M110.509 69.1586V60.7137" stroke="#111827" stroke-width="9.53195" stroke-miterlimit="10" stroke-linecap="round" stroke-linejoin="round"/>
<path d="M57.524 154.909C44.2421 141.225 34.9052 121.389 34.9052 100.81C34.9052 58.8347 68.9334 24.8069 110.908 24.8069C152.883 24.8069 186.907 58.8351 186.907 100.81C186.907 112.601 184.221 123.762 179.432 133.717" stroke="#111827" stroke-width="9.53195" stroke-miterlimit="10" stroke-linecap="round" stroke-linejoin="round"/>
</g>
<defs>
<clipPath id="clip0_25017_4254">
<rect width="221.835" height="221.835" fill="white"/>
</clipPath>
</defs>
</svg>
