<svg width="222" height="222" viewBox="0 0 222 222" fill="none" xmlns="http://www.w3.org/2000/svg">
<g clip-path="url(#clip0_25017_4308)">
<path d="M197.571 172.454V93.5864M24.2632 93.5864V172.454" stroke="#111827" stroke-width="9.53195" stroke-miterlimit="2.6131" stroke-linecap="round" stroke-linejoin="round"/>
<path d="M91.4153 117.408H91.4191" stroke="#111827" stroke-width="9.53195" stroke-miterlimit="22.9256" stroke-linecap="round" stroke-linejoin="round"/>
<path d="M110.913 117.408H110.916" stroke="#111827" stroke-width="9.53195" stroke-miterlimit="22.9256" stroke-linecap="round" stroke-linejoin="round"/>
<path d="M130.416 117.408H130.42" stroke="#111827" stroke-width="9.53195" stroke-miterlimit="22.9256" stroke-linecap="round" stroke-linejoin="round"/>
<path d="M130.949 207.32H164.812C182.181 207.32 196.506 193.621 197.515 176.494" stroke="#111827" stroke-width="9.53195" stroke-miterlimit="2.6131" stroke-linecap="round" stroke-linejoin="round"/>
<path fill-rule="evenodd" clip-rule="evenodd" d="M24.263 91.4202H50.2593V174.621H24.263C13.5405 174.621 4.76587 166.197 4.76587 155.9V110.14C4.76587 99.8442 13.5396 91.4202 24.263 91.4202Z" stroke="#111827" stroke-width="9.53195" stroke-miterlimit="2.6131" stroke-linecap="round" stroke-linejoin="round"/>
<path fill-rule="evenodd" clip-rule="evenodd" d="M197.571 91.4202H171.575V174.621H197.571C208.295 174.621 217.069 166.197 217.069 155.9V110.14C217.069 99.8442 208.293 91.4202 197.571 91.4202Z" stroke="#111827" stroke-width="9.53195" stroke-miterlimit="2.6131" stroke-linecap="round" stroke-linejoin="round"/>
<path d="M178.046 89.4804C177.009 53.4678 147.166 24.2632 110.917 24.2632C74.8877 24.2632 45.1879 53.1151 43.8101 88.8261" stroke="#111827" stroke-width="9.53195" stroke-miterlimit="2.6131" stroke-linecap="round" stroke-linejoin="round"/>
<path d="M197.571 91.4201C197.571 43.7604 158.577 4.76599 110.917 4.76599C63.2575 4.76599 24.2632 43.7608 24.2632 91.4201" stroke="#111827" stroke-width="9.53195" stroke-miterlimit="2.6131" stroke-linecap="round" stroke-linejoin="round"/>
<path fill-rule="evenodd" clip-rule="evenodd" d="M100.167 143.396H81.847C75.1972 143.396 69.7566 137.956 69.7566 131.306V103.511C69.7566 96.8607 75.1972 91.4202 81.847 91.4202H139.988C146.637 91.4202 152.078 96.8607 152.078 103.511V131.306C152.078 137.956 146.637 143.396 139.988 143.396H117.822L100.167 159.134V143.396Z" stroke="#111827" stroke-width="9.53195" stroke-miterlimit="2.6131" stroke-linecap="round" stroke-linejoin="round"/>
<path fill-rule="evenodd" clip-rule="evenodd" d="M101.168 217.069H120.666C126.028 217.069 130.415 212.682 130.415 207.32C130.415 201.958 126.028 197.571 120.666 197.571H101.168C95.807 197.571 91.4202 201.958 91.4202 207.32V207.32C91.4202 212.682 95.807 217.069 101.168 217.069Z" stroke="#111827" stroke-width="9.53195" stroke-miterlimit="2.6131" stroke-linecap="round" stroke-linejoin="round"/>
</g>
<defs>
<clipPath id="clip0_25017_4308">
<rect width="221.835" height="221.835" fill="white"/>
</clipPath>
</defs>
</svg>
