<svg width="212" height="212" viewBox="0 0 212 212" fill="none" xmlns="http://www.w3.org/2000/svg">
<path d="M112.365 54.6963L111.852 54.2997C110.724 53.5167 107.806 51.949 103.806 53.154C99.0393 54.5899 97.855 61.1122 101.095 63.6529C102.955 65.1117 105.753 66.3112 109.525 67.6445C117.967 70.6286 114.847 82.5342 106.259 82.5913C102.908 82.6137 101.341 82.4008 98.3975 80.475" stroke="#111827" stroke-width="9.10938" stroke-miterlimit="10" stroke-linecap="round" stroke-linejoin="round"/>
<path d="M106.259 82.5914V86.937" stroke="#111827" stroke-width="9.10938" stroke-miterlimit="10" stroke-linecap="round" stroke-linejoin="round"/>
<path d="M106.259 48.6949V52.7138" stroke="#111827" stroke-width="9.10938" stroke-miterlimit="10" stroke-linecap="round" stroke-linejoin="round"/>
<path d="M140.016 156.457C146.493 156.457 151.744 161.708 151.744 168.184C151.744 174.661 146.493 179.912 140.016 179.912H98.4805" stroke="#111827" stroke-width="9.10938" stroke-miterlimit="10" stroke-linecap="round" stroke-linejoin="round"/>
<path d="M49.1897 203.966H144.044C148.963 203.966 153.668 201.957 157.069 198.404L189.811 164.211C194.391 159.631 194.391 152.205 189.811 147.626C185.231 143.046 177.805 143.046 173.225 147.626L151.701 169.15C151.727 168.831 151.744 168.51 151.744 168.184C151.744 161.708 146.493 156.457 140.016 156.457H128.012C122.693 156.457 117.448 155.216 112.693 152.832C107.938 150.448 102.693 149.207 97.3742 149.207H92.0046C86.7941 149.207 81.6431 150.312 76.8913 152.45L73.2331 154.096C68.4813 156.234 63.3304 157.339 58.1198 157.339H48.2979" stroke="#111827" stroke-width="9.10938" stroke-miterlimit="10" stroke-linecap="round" stroke-linejoin="round"/>
<path d="M42.6088 207.445H22.8953C20.6084 207.445 18.7546 205.592 18.7546 203.305V156.003C18.7546 153.716 20.6084 151.862 22.8953 151.862H42.6092C44.8961 151.862 46.7498 153.716 46.7498 156.003V203.305C46.7494 205.592 44.8956 207.445 42.6088 207.445Z" stroke="#111827" stroke-width="9.10938" stroke-miterlimit="10" stroke-linecap="round" stroke-linejoin="round"/>
<path d="M105.243 131.077C140.181 131.077 168.504 102.754 168.504 67.816C168.504 32.8777 140.181 4.55469 105.243 4.55469C70.3047 4.55469 41.9817 32.8777 41.9817 67.816C41.9817 102.754 70.3047 131.077 105.243 131.077Z" stroke="#111827" stroke-width="9.10938" stroke-miterlimit="10" stroke-linecap="round" stroke-linejoin="round"/>
<path d="M105.243 110.558C128.849 110.558 147.985 91.4215 147.985 67.8159C147.985 44.2104 128.849 25.0743 105.243 25.0743C81.6375 25.0743 62.5015 44.2104 62.5015 67.8159C62.5015 91.4215 81.6375 110.558 105.243 110.558Z" stroke="#111827" stroke-width="9.10938" stroke-miterlimit="10" stroke-linecap="round" stroke-linejoin="round"/>
</svg>
