<svg width="40" height="40" viewBox="0 0 40 40" fill="none" xmlns="http://www.w3.org/2000/svg">
<path d="M11.4164 30.7941C9.79241 30.7941 8.40174 30.5327 7.24441 30.0101C6.08707 29.4687 5.14441 28.7407 4.41641 27.8261C3.70707 26.9114 3.17507 25.8567 2.82041 24.6621C2.48441 23.4487 2.31641 22.1701 2.31641 20.8261V19.2301C2.31641 17.3634 2.64307 15.6741 3.29641 14.1621C3.94974 12.6501 4.94841 11.4461 6.29241 10.5501C7.63641 9.65405 9.34441 9.20605 11.4164 9.20605C13.4884 9.20605 15.1871 9.65405 16.5124 10.5501C17.8564 11.4461 18.8551 12.6501 19.5084 14.1621C20.1617 15.6741 20.4884 17.3634 20.4884 19.2301V20.8261C20.4884 22.1701 20.3111 23.4487 19.9564 24.6621C19.6204 25.8567 19.0884 26.9114 18.3604 27.8261C17.6511 28.7407 16.7177 29.4687 15.5604 30.0101C14.4217 30.5327 13.0404 30.7941 11.4164 30.7941ZM11.4164 26.5661C12.9284 26.5661 14.0484 26.0434 14.7764 24.9981C15.5231 23.9341 15.8964 22.2914 15.8964 20.0701C15.8964 17.7181 15.5137 16.0287 14.7484 15.0021C14.0017 13.9567 12.8911 13.4341 11.4164 13.4341C9.90441 13.4341 8.77507 13.9567 8.02841 15.0021C7.28174 16.0287 6.90841 17.6994 6.90841 20.0141C6.90841 22.2541 7.27241 23.9061 8.00041 24.9701C8.74707 26.0341 9.88574 26.5661 11.4164 26.5661Z" fill="#00003D"/>
<path d="M29.9559 30.7941C28.3692 30.7941 26.9879 30.5047 25.8119 29.9261C24.6545 29.3287 23.7679 28.5261 23.1519 27.5181C22.5359 26.5101 22.2279 25.3714 22.2279 24.1021H26.6519C26.6519 24.9607 26.9412 25.6607 27.5199 26.2021C28.0985 26.7247 28.9105 26.9861 29.9559 26.9861C30.6465 26.9861 31.2345 26.8554 31.7199 26.5941C32.2052 26.3327 32.5785 25.9781 32.8399 25.5301C33.1012 25.0634 33.2319 24.5407 33.2319 23.9621C33.2319 23.0661 32.9425 22.3287 32.3639 21.7501C31.8039 21.1714 31.0012 20.8821 29.9559 20.8821C29.3959 20.8821 28.9012 20.9661 28.4719 21.1341C28.0612 21.3021 27.7065 21.5074 27.4079 21.7501L25.3359 18.2501L31.5239 14.2181L31.2719 13.7421H23.0679V9.82206H36.8439V14.0781L29.7039 18.6141L27.4639 17.9981C27.8372 17.8861 28.2292 17.8021 28.6399 17.7461C29.0692 17.6714 29.5265 17.6341 30.0119 17.6341C31.5985 17.6341 32.9612 17.8954 34.0999 18.4181C35.2385 18.9407 36.1159 19.6781 36.7319 20.6301C37.3665 21.5634 37.6839 22.6554 37.6839 23.9061V24.2421C37.6839 25.4927 37.3665 26.6127 36.7319 27.6021C36.1159 28.5914 35.2292 29.3754 34.0719 29.9541C32.9332 30.5141 31.5612 30.7941 29.9559 30.7941Z" fill="#00003D"/>
</svg>
