<svg width="40" height="40" viewBox="0 0 40 40" fill="none" xmlns="http://www.w3.org/2000/svg">
<path d="M11.4862 30.7941C9.86223 30.7941 8.47156 30.5327 7.31423 30.0101C6.1569 29.4687 5.21423 28.7407 4.48623 27.8261C3.7769 26.9114 3.2449 25.8567 2.89023 24.6621C2.55423 23.4487 2.38623 22.1701 2.38623 20.8261V19.2301C2.38623 17.3634 2.7129 15.6741 3.36623 14.1621C4.01956 12.6501 5.01823 11.4461 6.36223 10.5501C7.70623 9.65405 9.41423 9.20605 11.4862 9.20605C13.5582 9.20605 15.2569 9.65405 16.5822 10.5501C17.9262 11.4461 18.9249 12.6501 19.5782 14.1621C20.2316 15.6741 20.5582 17.3634 20.5582 19.2301V20.8261C20.5582 22.1701 20.3809 23.4487 20.0262 24.6621C19.6902 25.8567 19.1582 26.9114 18.4302 27.8261C17.7209 28.7407 16.7876 29.4687 15.6302 30.0101C14.4916 30.5327 13.1102 30.7941 11.4862 30.7941ZM11.4862 26.5661C12.9982 26.5661 14.1182 26.0434 14.8462 24.9981C15.5929 23.9341 15.9662 22.2914 15.9662 20.0701C15.9662 17.7181 15.5836 16.0287 14.8182 15.0021C14.0716 13.9567 12.9609 13.4341 11.4862 13.4341C9.97423 13.4341 8.8449 13.9567 8.09823 15.0021C7.35156 16.0287 6.97823 17.6994 6.97823 20.0141C6.97823 22.2541 7.34223 23.9061 8.07023 24.9701C8.8169 26.0341 9.95556 26.5661 11.4862 26.5661Z" fill="#00003D"/>
<path d="M23.0257 30.2621V26.0621C23.0257 25.1847 23.1657 24.4194 23.4457 23.7661C23.7444 23.1127 24.211 22.5341 24.8457 22.0301C25.4804 21.5074 26.3204 21.0221 27.3657 20.5741L30.6697 19.1461C31.5097 18.7914 32.1257 18.3527 32.5177 17.8301C32.9284 17.3074 33.1337 16.6447 33.1337 15.8421C33.1337 15.0207 32.8817 14.3487 32.3777 13.8261C31.8737 13.3034 31.1364 13.0421 30.1657 13.0421C29.195 13.0421 28.4577 13.3127 27.9537 13.8541C27.4497 14.3954 27.1977 15.1234 27.1977 16.0381H22.7457C22.7457 14.7501 23.0257 13.5927 23.5857 12.5661C24.1457 11.5207 24.9764 10.6994 26.0777 10.1021C27.179 9.50472 28.5417 9.20605 30.1657 9.20605C31.7897 9.20605 33.143 9.49539 34.2257 10.0741C35.327 10.6527 36.1577 11.4274 36.7177 12.3981C37.2964 13.3687 37.5857 14.4607 37.5857 15.6741V16.0101C37.5857 17.5781 37.1564 18.8754 36.2977 19.9021C35.439 20.9101 34.1137 21.8061 32.3217 22.5901L29.0457 24.0181C28.4857 24.2607 28.0844 24.5127 27.8417 24.7741C27.6177 25.0354 27.5057 25.3901 27.5057 25.8381V27.2381L26.4137 26.3141H37.6137V30.2621H23.0257Z" fill="#00003D"/>
</svg>
