<svg width="40" height="40" viewBox="0 0 40 40" fill="none" xmlns="http://www.w3.org/2000/svg">
<path d="M14.8744 30.7941C13.2504 30.7941 11.8597 30.5327 10.7024 30.0101C9.54508 29.4687 8.60241 28.7407 7.87441 27.8261C7.16508 26.9114 6.63308 25.8567 6.27841 24.6621C5.94241 23.4487 5.77441 22.1701 5.77441 20.8261V19.2301C5.77441 17.3634 6.10108 15.6741 6.75441 14.1621C7.40775 12.6501 8.40641 11.4461 9.75041 10.5501C11.0944 9.65405 12.8024 9.20605 14.8744 9.20605C16.9464 9.20605 18.6451 9.65405 19.9704 10.5501C21.3144 11.4461 22.3131 12.6501 22.9664 14.1621C23.6197 15.6741 23.9464 17.3634 23.9464 19.2301V20.8261C23.9464 22.1701 23.7691 23.4487 23.4144 24.6621C23.0784 25.8567 22.5464 26.9114 21.8184 27.8261C21.1091 28.7407 20.1757 29.4687 19.0184 30.0101C17.8797 30.5327 16.4984 30.7941 14.8744 30.7941ZM14.8744 26.5661C16.3864 26.5661 17.5064 26.0434 18.2344 24.9981C18.9811 23.9341 19.3544 22.2914 19.3544 20.0701C19.3544 17.7181 18.9717 16.0287 18.2064 15.0021C17.4597 13.9567 16.3491 13.4341 14.8744 13.4341C13.3624 13.4341 12.2331 13.9567 11.4864 15.0021C10.7397 16.0287 10.3664 17.6994 10.3664 20.0141C10.3664 22.2541 10.7304 23.9061 11.4584 24.9701C12.2051 26.0341 13.3437 26.5661 14.8744 26.5661Z" fill="#00003D"/>
<path d="M29.6619 30.2621V12.8461L30.8939 13.7981H25.6579V9.82206H34.2259V30.2621H29.6619Z" fill="#00003D"/>
</svg>
